<mxfile host="Electron" modified="2024-02-13T21:42:02.948Z" agent="Mozilla/5.0 (X11; Linux x86_64) AppleWebKit/537.36 (KHTML, like Gecko) draw.io/23.0.2 Chrome/120.0.6099.109 Electron/28.1.0 Safari/537.36" etag="eK1KrJ48fwAQG0H-Akir" version="23.0.2" type="device">
  <diagram name="Page-1" id="7e0a89b8-554c-2b80-1dc8-d5c74ca68de4">
    <mxGraphModel dx="1048" dy="655" grid="1" gridSize="10" guides="1" tooltips="1" connect="1" arrows="1" fold="1" page="1" pageScale="1" pageWidth="1169" pageHeight="827" background="none" math="0" shadow="0">
      <root>
        <mxCell id="0" />
        <mxCell id="1" parent="0" />
        <mxCell id="1cb643a89b7d889d-6" value="1k&amp;nbsp;&lt;b&gt;Î©&lt;/b&gt;" style="verticalLabelPosition=middle;shadow=0;dashed=0;align=left;html=1;verticalAlign=middle;strokeWidth=1;shape=mxgraph.electrical.resistors.resistor_2;rounded=1;comic=0;labelBackgroundColor=none;fontFamily=Verdana;fontSize=12;direction=south;labelPosition=right;" parent="1" vertex="1">
          <mxGeometry x="278" y="390" width="20" height="100" as="geometry" />
        </mxCell>
        <mxCell id="VuVPS5KJBOoQBnHny8Ev-1" value="B" style="shape=waypoint;sketch=0;fillStyle=solid;size=6;pointerEvents=1;points=[];fillColor=none;resizable=0;rotatable=0;perimeter=centerPerimeter;snapToPoint=1;verticalAlign=top;spacingBottom=0;spacingTop=-5;fontFamily=Verdana;fontSize=12;" parent="1" vertex="1">
          <mxGeometry x="592" y="150" width="40" height="40" as="geometry" />
        </mxCell>
        <mxCell id="hSU6qVYD1k81FgD0RHNi-1" value="NPN Transistor&lt;br&gt;BC337-40" style="verticalLabelPosition=bottom;shadow=0;dashed=0;align=center;html=1;verticalAlign=top;shape=mxgraph.electrical.transistors.npn_transistor_1;" parent="1" vertex="1">
          <mxGeometry x="298" y="490" width="41" height="60" as="geometry" />
        </mxCell>
        <mxCell id="Z2mN5AaFtpbvVztp5gZX-1" value="" style="shape=image;verticalLabelPosition=bottom;verticalAlign=top;imageAspect=0;aspect=fixed;image=data:image/png,iVBORw0KGgoAAAANSUhEUgAABSIAAAKyCAIAAABOize9AAAAA3NCSVQICAjb4U/gAAAAGXRFWHRTb2Z0d2FyZQBnbm9tZS1zY3JlZW5zaG907wO/PgAAIABJREFUeJzs3Xd8FHXi+P+Zbdn03VRCSAihiUhTIBoBkSIiAiKInh4ecIgeHAIq6J1wgt6dFMtJUUHRD0gXJQEUC54gIr2EDpEjoaSTtptsn/39Mffd316AkDLJJub1/Es3b2bfu/pg95V5z3tEt9stAAAAAAAAJah8PQEAAAAAAH47yGwAAAAAABRDZgMAAAAAoBgyGwAAAAAAxZDZAAAAAAAohswGAAAAAEAxZDYAAAAAAIohswEAAAAAUAyZDQAAAACAYshsAAAAAAAUQ2YDAAAAAKAYMhsAAAAAAMWQ2QAAAAAAKIbMBgAAAABAMWQ2AAAAAACKIbMBAAAAAFAMmQ0AAAAAgGLIbAAAAAAAFENmAwAAAACgGDIbAAAAAADFkNkAAAAAACiGzAYAAAAAQDFkNgAAAAAAiiGzAQAAAABQDJkNAAAAAIBiyGwAAAAAABRDZgMAAAAAoBgyGwAAAAAAxZDZAAAAAAAohswGAAAAAEAxZDYAAAAAAIohswEAAAAAUIzG1xOoBrfbnZGRsXbtWrPZ7Ou5AACE4uLi0tLSoUOHPvHEE76eC1B/0tLS/v3vf+fl5fl6IgAAoaSkJDs7e/Lkyb169dLr9b6ezn81pswuLS3dvn37ggULJEny9VwAAIIkSZIk6fX6vn37NmvWzNfTAepJSkrKe++953A4fD0RAIAgSZLL5dJqtQkJCW3atPH1dP6rMWW2y+Uym83l5eUJCQkDBw709XQAoElzuVxpaWn79+8vKyuzWq2+ng5Qf8xmc1FRUbdu3bp16+bn5+fr6QBAk/bLL7+cPXvWaDQ2qL+QG1NmC4Lgdrs1Gk2XLl3++c9/+nouANCkWa3WpUuX7t+/39cTAXyjT58+U6dONRqNvp4IADRps2bNyszM1Ov1KlUD2neskWW2IAiiKGq1WoPB4OuJAECTZrVaG84VUED98/PzCw0N5QsJAPiWXq8XRVEURV9P5H80oOIHAAAAAKCxI7MBAAAAAFAMmQ0AAAAAgGLIbAAAAAAAFENmAwAAAACgGDIbAAAAAADFkNkAAAAAACiGzAYAAAAAQDFkNgAAAAAAiiGzAQAAAABQDJkNAAAAAIBiyGwAAAAAABRDZgMAAAAAoBgyGwAAAAAAxZDZAAAAAAAohswGAAAAAEAxZDYAAAAAAIohswEAAAAAUAyZDQAAAACAYshsAAAAAAAUQ2YDAAAAAKAYMhsAAAAAAMWQ2QAAAAAAKIbMBgAAAABAMWQ2AAAAAACKIbMBAAAAAFAMmQ0AAAAAgGLIbAAAAAAAFENmAwAAAACgGDIbAAAAAADFkNkAAAAAACiGzAYAAAAAQDFkNgAAAAAAiiGzAQAAAABQDJkNAAAAAIBiyGwAAAAAABRDZgMAAAAAoBgyGwAAAAAAxZDZAAAAAAAohswGAAAAAEAxZDYAAAAAAIohswEAAAAAUAyZDQAAAACAYshsAAAAAAAUQ2YDAAAAAKAYMhsAAAAAAMWQ2QAAAAAAKIbMBgAAAABAMWQ2AAAAAACKIbMBAAAAAFAMmQ0AAAAAgGLIbAAAAAAAFENmAwAAAACgGDIbAAAAAADFkNkAAAAAACiGzAYAAAAAQDFkNgAAAAAAiiGzAQAAAABQDJkNAAAAAIBiyGwAAAAAABRDZgMAAAAAoBgyGwAAAAAAxZDZAAAAAAAohswGAAAAAEAxZDYAAAAAAIohswEAAAAAUAyZDQAAAACAYshsAAAAAAAUQ2YDAAAAAKAYMhsAAAAAAMWQ2QAAAAAAKIbMBgAAAABAMWQ2AAAAAACK0fh6AkBV5eXlbdiw4YcffnjkkUfGjh3r/SNJkg4fPvzee+/l5eX16dNnypQpoaGhPpqmAoqLi0tKSlq2bHmzAadOnfrwww+PHz9+swHh4eEjR4586qmn6maCAAA0USdOnFi+fLnZbJ48eXL37t29f+RwOFavXp2SkiJJ0sSJEwcOHKjX6301T0VkZmaGhoYaDIYb/nTz5s3r16/Pycm52R9v3br11KlTu3TpUmcTBBouMhuNhs1mu3jx4sGDB++66y7vxyVJOnDgwOzZsw8fPty3b98RI0YEBwf7apK1ZLfbd+/e/dFHHyUlJU2fPv1mw0wm04kTJ3755ZebDWjWrFnPnj3rZo4AADRdpaWlJ0+eLC4uLi4u9n7c4XCsWLFi8eLF165de/7557t37+7n5+erSdZeWVnZ8uXL9+7dO3Xq1HvvvfeGY7Kzsw8fPpyZmXmzg5SWlpaUlNTZHIEGjcxGo+F2u10ul9PplCTJ86CnsQ8dOtS3b9833nijffv2KlVjvRrCYrEcP358z549t99+eyXDunbtunr1aovFUuHxgoKC1atXL1u2LDY2NikpqS5nCgBAU+R2u51OZ4VvI3JjL1q0qKCgYOrUqWPHjo2OjhZF0YfzrKXCwsJdu3ZduHDBZrPdbMyTTz750EMPORyOCo+fP3/+H//4x/79+5OSklq0aFHHMwUaKDIbjZjc2LNmzTpy5MiAAQPeeOONtm3bqtVqX8+r5txut91ut9vtlQ/T6/XXf26Zzebdu3enpKQkJiaOHz/+nnvuqbNpAgCA//I0dmFh4YsvvviHP/whKiqq8f7GXyZJks1mc7lclYwxGAzXryfPzc1NSUk5derUgAEDxowZEx8fX5fTBBouMhuNlaexjx49OmjQoNdffz0xMbFCY9tsttOnT3/77bcZGRlarbZTp04DBw5s1apVJWM6d+48YMAAz5hr167t27fPZrPdddddZ8+e3bFjR1lZWdu2bQcMGHDHHXdU+EV1eXl5Wlrajh07Ll++rNfrO3Xq1L9//8TERPmn+fn5v/zyi81m69WrV/PmzeUHrVbryZMnjx071qVLl/j4+B07duzZs6e8vHzfvn0rVqzo0qVLheu+bsbhcOzcufPtt9+WJOnxxx9/4oknPNeDlZWVHTt27Icffrhy5Yper+/SpUu/fv2834T8/Px9+/ZJktSzZ88LFy58//33ubm5ERERffv27dWrl/d1ZVar9cSJE99///2lS5d0Ol3Xrl379+9fyTXkAAD8tnkau6SkZMaMGWPGjImIiKjQ2KWlpbt3796zZ09BQYHBYOjVq1evXr3CwsJuNsZoNPbq1evee+/1HpOenn7gwIHWrVuHh4f/9NNPR48e1Wg0PXr06N+/f7NmzbwPde3atZ07d+7fv7+oqCgsLOzee+/1frozZ84cOnQoLi7uzjvvDAkJkR8sKSnZuXOn2Wy+7777WrRocfLkye+//z4zM7OwsHDz5s25ubl9+vSJjY295bthtVqXLFmydevWuLg4+dp1jea/rVFQUCDPqri4ODw8XH6BRqPR82fPnTt34MCBDh06xMTE/PzzzwcOHCgvL2/duvWQIUPatm3rOY5ntnv37i0sLAwLC+vTp09ycvLNLiAHfIXMRqPkaexjx4499NBDc+bMadWqVYVPtby8vM8+++z9998vKSnR6XRarXb9+vVr1qyZMmXKqFGjPGNWrVr1wQcfeI9ZvXr1888/P3LkSOH/7bt27ty522+/fefOnfKYL7/8ct26dRMnThw3bpwn7DMzM5ctW7ZmzZry8nI/Pz+3271u3br27dtPmjTpiSeeUKlU2dnZq1evLikpiYuL887sn3/+edmyZRMmTOjXr9/GjRt/+OEHq9W6c+fOjIyMiRMnVjGzjxw58u677169enXkyJGTJk3yfHBmZGR88MEH69evl2clSdK6des6dOgwadKk0aNHy+9YTk7OunXrcnJyOnXqtHXr1uLiYpfLJYrihg0bnnrqqZkzZwYEBAiCkJ2d/emnn3788celpaU6nU6j0axfv75z587PP//8sGHDFPiPCgBAo+JpbLPZPHPmzKeeeio8PLzCr+BPnjz51ltv7dixw2q1BgYG2u32zz777IEHHnjppZc6derkGbNw4UL5C0BgYKDNZlu1alWFMadOnXr//ffj4+Pz8/N//fXXkJAQs9m8YcOGpKSkV155pWfPnvJn+s8///zOO+/s3btXkiQ/Pz+r1bpq1aq+ffvOnDmza9euoigeO3Zs8eLF9913X2JioufbQnFx8erVq7Ozs+Pj41u0aHHkyJFVq1b9+uuvkiStWrXq+PHj8fHxt8xst9u9cuXKDRs2iKI4bdq0+++/33N1+u7du99+++39+/e73W6dTme1WleuXNmvX7+ZM2d27txZfsdOnDixdOnSO++888qVK4cPHy4vL3e5XBqNZu3atf/4xz8GDBig1WoFQUhLS5s3b95PP/1ks9mCgoLkF/jQQw/NmDGjffv2iv2nBWqNzEbj43K5Dhw48Oqrr+7bt69Pnz6vv/56y5YtKzS2yWTasmXLwoULmzdv/tprryUnJ1ut1h07dixdunTx4sXyqVqTyZSamvrWW2/FxsbOmTPnnnvusVqt33333QcffLB48eLw8PC+ffu6XC6TyXT06NHi4uI//OEPTz31lNvt/ve///3uu++uWLGiRYsWDz74oCAI+fn569atW758efv27V944YWuXbvKB//oo48WL14cHBw8dOhQp9NpMplKS0udTqdnnpIkWSyWoqIii8XSoUOHf/7zn23btv3000+feuqp559/3vu3vJU4d+7chx9+uH///r59+77wwgue32rn5uauWbNmxYoVt99++7Rp07p06VJSUpKSkvLJJ58sWbIkJCTkoYceEgRBntjevXtzc3NHjx796KOPajSabdu2ffDBB999913v3r379+9fUlLyxRdfLFq0KCEh4e9//3vPnj0tFstXX3318ccfL1myJCwsrFevXor9BwYAoMHzNHZmZuasWbNu2NhZWVnvvvvuli1bBg0a9Mc//jExMTE/P3/58uXffvttSEjItGnTWrduffXq1XfeeWfr1q0PPvjg+PHj5THLli377rvvQkJCpk+fLi+Ls9lsJSUlW7ZsufPOO+fNm9ezZ8+ysrL3339/y5YtH3/8sdFobN++/ZkzZ959990ff/xx1KhRTz/9dGxs7OXLl5csWfLDDz/o9fqZM2d26NBBPk55ebn3teXyt52SkhL5K8qwYcNatWr16quvZmVlzZo1q2/fvlFRUbd8Q77++utPP/00Ozt75syZQ4cODQoKkh8/derU22+/vWvXrscff3zMmDExMTGXLl1atGjR999/r9frX3755Xbt2skvsLi4eM2aNZ07d547d25SUlJxcfF77723Y8eOlJSU9u3bJyYmXrlyZf78+d98882wYcPGjRsXHx+fl5e3ZMmSr7/+OjQ0dOrUqaxRR8NBZqORkSTp4MGDe/bs2bNnj91uz87OPn36dIV14IIgpKenr1+/3mg0Tps2bdSoUQEBAZIkRUdH2+32N998c9OmTb179/aMmTp16siRI+UxUVFRDodj3rx5X3zxRe/eveWj6fX6vn37Tp06VV6SFB4ebjab33jjjdTU1IEDB6rV6jNnzqxfvz4uLm7mzJmDBg3S6/Xy06lUqvnz53/xxRf333//LV+aXq9v3rx5ZGSkRqOJiIho06ZNVd6QnJyc9evXf/HFF506dZo+fXr79u09n/GnT5/esGFDQkLCzJkzBwwYoNfrXS5Xs2bNRFF8++23v/zyyz59+ng+BfV6/cCBA19++eWQkBBRFAMCAjIzM7/99ttjx47179//9OnTn3/+eVRU1NSpUx955BF/f39JkiIjI20226JFi7Zs2XLPPfc06qviAQCoOrmxz549m56e7nK5Tp8+nZ+fHxERUWHY9u3bd+/e3bt37ylTpvTo0UOr1bZs2TIsLCwvL2/z5s33339/q1at5DHy7Ui7d+/uGZOfn7958+Z+/folJCR4ziWEhoY+88wzw4YNk7+0zJgx4+rVq1u3bh08eHDbtm23bNmyd+/ehx9++M9//nPHjh01Gk1cXFxkZOQLL7yQmprar1+/1q1bV+XVGQyGuLi4wMBAnU4XHx+fkJBwyz9y/PjxDz744NixY2PHjn3iiSciIyM930ZSUlL27ds3fPjwyZMnd+jQwTOrqVOnbt68ecCAAQkJCTqdzvPUU6ZMGTJkSEBAgMvlslgsGRkZhw4dysnJSUxMTE1N3bt374ABA6ZMmdKlSxetVhsfHz9r1qycnJyNGzcOHDgwLi6uUe88h9+Sxr09A5qgoqKiXbt2nT59eujQoePGjTt79uzy5csvXLjgPcbtdl+5cuXAgQPx8fGDBg2S1zyrVKqIiIhu3bqFh4efO3cuMzPzypUrBw8ebNmypfeYyMjIO++8Ux5z6dIl+YBxcXEDBgwwGo2iKIqiGBYW1q1bt9jY2PT09IsXL9rt9osXL54/f75Dhw6em2SqVKro6Oh77rmnZcuWFy5cOHfuXFVeXXU/G8xms3zaOTY29rnnnuvVq5fn4iWbzfaf//znwoULHTt27NevnzwrtVrdrFmz5OTk+Pj4CxcunD9/3nOomJiYnj17Go1GtVotT75Vq1Y2m81sNkuSlJmZeeTIkTZt2gwYMMDf319+gVFRUd26dQsNDT137tyVK1eqNXMAABqvixcvfvPNN5IkTZ48uUePHqmpqampqdeuXfMe43K5Dh8+fOnSpd69e3fu3Fle86xWqxMTE7t27Wqz2c6cOXPt2rXDhw9fvny5d+/enTp18h7TpUsXefsY7zuHJScnd+3a1fOlJSEhoXv37qIonjp16tKlS2lpaaWlpf3795drVhAErVbbvn375ORknU6XlpaWn59fxRdYrS8kOTk577333q5duwYMGDBu3Djv6/jMZvOxY8fKysoGDhx42223eWZ12223JScna7XatLS0goICz6G6dOly2223BQYGiqKo0Wjatm1rNBpNJpO8H9uBAweysrL69evXoUMH+b2Sx3Tt2rW8vPz06dPcPwwNB2ez0ci4XK6AgIAnnnjipZde+s9//nP+/Pndu3cvXrz4H//4R2BgoDzGarXm5uaazeajR4/+7ne/815PXlxcnJeXFx4efvHixZycHLPZfOTIkRuOiYiIyM7Oli9bMhqN3r8AFkXRYDA0b97cZDLl5ORERETk5ubq9fq4uDj5k0+mUqnCw8NbtmyZlZWVlZVVlb1DqkXe9uydd95Rq9VPPfXUqFGjvG/RWV5eXsms5Iu7cnJyPI8HBgaGh4d7/lWj0ej1evkmahaLJTc3t6ysbO/evY8//rj3e1VYWJifn19cXJybm8teaACAJsJut7dv3/6vf/3r4MGD161b969//Wv58uWtW7cePny458RscXFxfn6+3W7/5JNPtm/f7h2umZmZ8leIy5cvFxQU2O32FStWfP311zccYzKZPBuYtWrVyvvDWqVSxcbGBgcH5+TkZGRkFBcXR0ZGRkdHe+YgCIJarU5ISDAYDDk5OaWlpYq/FRaLZcmSJdu2bWvbtu2kSZO6devmvV1Zfn5+SUlJZGRkVFSUHMaeWbVq1SokJCQrK8tsNnsej4iI8P7SotfrNRqNJElut7uoqKigoMDhcCxdunTTpk3e79XFixfNZnNWVlZZWRl7oaGBILPRyAQFBQ0dOvQvf/lLZGSk0Wh87rnnXnzxxa1bt7Zr127SpEnyGKfTabVaRVFUq9UVbo7l5+d3++23y1cBWa1WlUp1szHt27f3fB5otVr5FK6HWq3W6XQul8tms8lPJ3dphdlqNBp54zHv67ErcLvdNXgf3G734cOH33333ZycnNGjR0+cONHzWwaZw+GofFbyTcg9D6pUKu/PRW/yC1SpVCqVqsJ75e/v37FjxwpbgAIA8NvWrFmzF154YcSIEcHBwU8++eSZM2fWrl0rLy5LTk6Wx9hsNofDodFo3G53hbtPR0ZGhoeHR0dHOxwOu91eyZhmzZp5/3bb39/fO1YFQdDpdPI3GbPZ7HQ65S6tMFs/Pz+NRuNwOLyvx66gxt9GVq5cuXHjRp1O9/zzz/fp08e78AVBsFqtN5uV/GCFO5BrNBrv1yu3tDw3q9V6s/czOjo6IiLiN3AfNfyW8M0YjYy/v798SY98/XC/fv2eeeaZBQsWrFmzpkOHDvIl0BqNxt/fXxTFnj17Llmy5PqFTzqdTqfTXbx4URCEpKSkxYsX33BMSEjIr7/+KgiCw+EoLy/3/qndbjeZTDqdLjg4WKPRBAQEyOurKxzEZrPJw4KCguQF52632/vjxOl03vIu2Td07ty5ZcuWHTx4sF+/ftOnT4+MjLx+/pXPys/Pr0KZ34z8WwZRFPv06bNgwYIbvlehoaE1eBUAADRGYWFh8fHxwcHBgiCEh4dPnDjxwoULu3fvXr16dXR0tLwCTk5iURT/9Kc/Pfroo9cfJDAw0OFwyGMmTZo0YsSIG46Rn0VWXl7ucDi8B8gLqoOCgoxGo1arNZvN13+v8IzR6XTyh7h8ftgz4Ja3yL6Zr7/++v/+7/9yc3P/8pe/DBky5PrvFQEBATebVWlpqd1uDwoKqvCLg5uR30+VSvXCCy8MGjTo+gFBQUGeHWcAn+NXPmhk5HPUntKLjo4eMWLEAw88cOTIkffff//y5cuCIOj1+mbNmgUFBcl/rbfwUlZWtnLlyu+//97lckVHRwcFBZlMpgpjzGbzypUrd+zYYbFY5GcpLCyUe1vmdrsLCgp+/fXX8PDw1q1bBwcHt2jRwuFwXLx4saioyHu2BQUF586dCw0NjY+Pl2fucDg8hxUEwWQyZWVlVfdNyM7OXrdu3RdffNG5c+cXX3yxTZs216evPCu73S6vIvP+UX5+/vnz5+UNTqrydP7+/tHR0QEBASaTyeVyeb9XRUVFK1eu3Llzp/eLAgDgt01e4SX/syiKd9xxx5gxYxITE9etW7dlyxb5Yzc0NDQ6OlqtVhcXF/v7+3t/esp3zDp58mRAQEDlY06dOuXd1RcuXPC+klmSpPT09MLCwtatW3fs2DEiIqKgoODy5cveH8put/v8+fP5+flxcXEGg0HegcVisXgfNjs7uwbrydPS0t5///20tLSxY8eOHj36+o3WBUGIiYkJDw/Pz8+/fPmy1Wr1ntW5c+cKCgri4+Or+Jt6o9EYFRUlimJhYWFQUJD3e7Vv375Vq1adPXu2ksWDQD0js9G4qVSqO+64Y8KECc2bN//xxx+XLFkiLxePi4tLTk4+derUZ5995vlrXb5B9KJFi3bv3h0cHBwfHy+PWb16tWeMXLCLFy/evXu355eymZmZX3/9teeD7eLFi6mpqfLZcnnPsFatWnXv3j0tLW3jxo2ek9X/+c9/UlNTTSbTbbfdlpiY6O/vHxYWlpOTc+zYMflXyHa7/fjx4z/88IPn5XhSvMLJc28mk2nbtm3Lli1LSEiYNm1aUlLSDbf4ljdQufPOOw8fPrxp0ybPrH799dctW7aUlZV16NDh+h3ab0gUxVatWvXs2fPo0aPr16/3rNS6cuXKmjVrFi9evG/fPu8rqQAAaFK0Wu0jjzzy8MMPq9XqDz/8cOfOnU6nU6VSJSUltWzZ8osvvti3b5+nAI8dO/bRRx99+OGH2dnZ/v7+SUlJ8fHxmzZt2r9/v/eY5cuXf/jhh1lZWd7LsHfv3n3w4MGysjL5X3/88cd9+/YlJCR06NAhNDQ0KSkpJibm888/T0tL85ys3rlz588//+zv79+5c+ewsDCj0ejv73/8+PGsrCx5TFlZ2fbt2yvsJnvDGveWnZ393nvv/fTTT8OGDRs7duz1t1aV6XS6e+65Jzo6esOGDSdOnPDM6ocfftizZ09gYKA8q6q8ySqV6t57742NjV23bt3hw4c979WhQ4eWLVu2bNmy/Pz8Kp4YB+oBi8bR6Ol0ut69e//pT3/629/+lpqa2r59+/Hjx7dr1+7pp58+efLk8uXL09PT77//flEUd+3atX379vj4+BEjRmi12nbt2o0ZM+bkyZPLli07f/68PGbnzp3ffPONZ4z8FFar9euvvzabzUOGDHE6nd9+++2uXbt69er15JNPyh8qHTt2fPrpp2fPnr1w4cJTp07dfffdJSUl33zzze7du7t37/7HP/5Rq9U2b968e/fun3/++YoVK3Jzc9u0aXP27Nn9+/d7ryHX6/UGg6G0tPTzzz8vLi5+8MEHH3nkkQqvNyMj49tvv83Pz3c4HAsXLlyyZMn174lKpZJvdzFmzJjXXnttwYIFJ0+eTEpKKioqkmeVlJQ0duzYqn8a3XHHHU8++eTs2bOXLl165syZPn36SJL073//+/vvv2/Xrt3DDz/MBxsAoCkLDg5+5plnzp8/v3379mXLlsXGxvbo0WPIkCEHDhxYt27dyy+/vHPnzs6dO+fn52/duvXgwYOPPfZYly5d1Gr1ww8/fODAgfXr18+cOfPHH3+Ux2zZsuXQoUOjR4/u2rWr9y/TS0pK/vnPf54+ffquu+66fPnyl19+eeHChZdffrlbt26iKD766KOHDh1KTU194YUXhg4dmpiYeP78+dTU1PT09MmTJ999991qtbpbt24tW7b85ptv/va3vz3wwAOBgYF79uzJyMiocG12aGioXq+/evXq3//+9x9++GHs2LG3336794Cff/754MGD5eXlBw8e/POf/3zDrwFqtfpvf/vbqFGjDh48+NVXX02bNm3YsGEJCQnnzp1LSUn59ddfp06d2qNHj6pfUD1ixIh9+/Zt3rx5+vTpQ4YM6dixY05OTkpKytGjR8eMGdOxY0fuLYqGg8zGb4HBYBgyZMjx48fXrVu3atWq22+/PSkpafDgwWq1evHixVu3bv3uu+/kS6OTkpImT5583333iaKo1+sfeughjUazePHibdu2yWNUKtXdd989efLkPn36eNY+tW7dOjk5OS0t7ZVXXnG73Xq9fuTIkVOmTPHcSTIwMHDEiBF+fn5Lly5dtWrVhg0bJEkKCAgYPXr0s88+e8cddwiCEBQUNGTIkMuXL69atWrFihV+fn4Gg+ECCuwNAAAgAElEQVTRRx8NDw9/55135OPodLpu3bo9+OCD33///caNG/38/K7PbPlctyRJxcXFR48eveEbIopifHx8UFDQyJEj/fz8Pvjgg5UrV65bt06SpMDAwCeffHLixIkVPi8r5+/v/8gjj+h0uvfffz8lJWX79u1ut1uj0fTp0+dPf/pTcnIyt6kEADRxrVq1Gj9+/OXLl3fu3Llu3bqoqKj4+PiZM2dGR0d/9tlnH3/8sU6nczqdQUFBEyZM+OMf/yhfwm00Gl9++eVmzZpVGPPMM8+MHz8+MTHR+yn69+/v7++/ZcuWNWvWOByOmJiY2bNnjx492mg0CoIQFRU1a9asmJiYDRs2vPXWW1qtVr4sbs6cOaNGjYqOjhYEITo6etq0aQ6HY8+ePSdOnJDXvk2ZMmX9+vXe9+YMDAwcPnz4mTNnDh48eOHChT59+lT42lBeXm632yVJunTp0s1u6qlSqQoKCnr37j1nzpzY2NiNGzcuXLhQo9HY7fa4uLg33nhj5MiRUVFRVX+Hw8LCZs+e3bx587Vr13744YfyexUcHDx58uRx48bFx8dX/VBAXRNrtq+gTxQWFn700Udz584dPnz4unXrfD0d1Den01lYWGgymQwGg/fdLGQOh6OoqKi4uFiv18t3g3C73VarNT8//+rVq1evXtVqtbGxsbGxsUaj0bP59i3HnDx5cvbs2ZmZmbNnz+7QoYN8l+z4+Pi4uDh5ubhnAm63W77x1ZUrV3JycgICAuLj42NiYgwGg2d3TZfLVVJScvny5YyMDEEQWrZsGR8fr1arr127ZjAY5EVTdrs9Ly8vOzvb4XDExcVdf/m0zWYrKCjwLBi7mZCQkGbNmrnd7vLy8ry8vMuXL+fm5t5wVvIBXS6X9100JEkqKSkpLCz0vNvyC8zPz79y5Up2drZOp2vRokXz5s2NRqP3jcTQdFit1rfffnvWrFmPP/74vHnzPL91An7zZsyY8dZbb82cOfPll1+u4npX/GZYLJaCggJJkiIjI6+/YEr+qcViCQ0NDQsL02q1bre7tLQ0Ly8vMzOzsLAwNDS0RYsWzZo1Cw0N9XwQS5JUWlqan5+fkZFRVFR0wzEbNmx44403unfv/txzz2k0mitXrgQEBLRs2bJ58+aBgYGeE8Lyx3dubm5GRobJZAoPD4+Li2vWrJn3GJvNVlhYeOHChZycnJCQkISEhNjY2JKSEofD4f2izGZzdnZ2Xl6en59f27ZtK1xBXVpaWlhYeMttXGNiYoKDg+VZyXcdM5vNERERcXFx0dHR3rMymUzXrl2Tr7DznBt3Op25ubl2u13eI8bzXuXl5clbz8gbzURHR4eEhHDTkybrpZde+uSTT55++ukZM2YofgPdGuN/RzQaGo0mKirqZr/11Gq1FX4qiqK/v398fHxsbKzD4RBFUaPRVFhNVJUx8rDAwMB27dolJibKZ3FvOCYgICAhISEuLs7pdIqiKO+H6T1GrVaHhYUZDIbbbrtNfkXycbw/unQ6XWxsbExMjNvtvuHaJz8/v6r/DSLP3DMr+a5dFWZ1wwOqVCqj0Sj/dtz7BcrvlfwCb/g+AADwGybf8aTqPxVFMTQ0VK5Zl8t1ww9ilUplMBhCQ0MrGeMZGR4enpiY2KlTJ/mbRoXVZPLHt8FgSExMlCRJrVZrNJoKY/z8/GJiYiIjI+UvBvJBrt8kPCgoqE2bNq1atZLX+lX4aUhISEhIyM3fp4rTlmfVunXrm80qODjYe091mUajqfAVxfu9kiTJM/8qzgSoN2Q2fvvUavUta7AqY1QqVYW7QV5Pjs/Kf5+qUqkqP/0rb4RW+RNVS1VmVf+HAgCgiZCTuPJ9TKoyRnbLLy2iKN7yG0tVPs3lD/1bzqeKqjKr+j8UUEfYaRwAAAAAAMVwSgqoTFRU1O9+97vi4uI2bdr4ei4AAKCJuuOOOyZPnhwbG3v99jQAGiAyG6hMeHj4kCFD5N3FfT0XAADQRLVr107eNpUvJECjQGYDlVGr1ddvCgIAAFCfqnjZNoAGgmuzAQAAAABQDJkNAAAAAIBiyGwAAAAAABRDZgMAAAAAoBgyGwAAAAAAxZDZAAAAAAAohswGAAAAAEAxZDYAAAAAAIohswEAAAAAUAyZDQAAAACAYshsAAAAAAAUQ2YDAAAAAKAYMhsAAAAAAMWQ2QAAAAAAKIbMBgAAAABAMWQ2AAAAAACKIbMBAAAAAFAMmQ0AAAAAgGLIbAAAAAAAFENmAwAAAACgGDIbAAAAAADFkNkAAAAAACiGzAYAAAAAQDFkNgAAAAAAiiGzAQAAAABQDJkNAAAAAIBiyGwAAAAAABRDZgMAAAAAoBgyGwAAAAAAxZDZAAAAAAAohswGAAAAAEAxZDYAAAAAAIohswEAAAAAUAyZDQAAAACAYshsAAAAAAAUQ2YDAAAAAKAYMhsAAAAAAMWQ2QAAAAAAKIbMBgAAAABAMWQ2AAAAAACKIbMBAAAAAFAMmQ0AAAAAgGLIbAAAAAAAFENmAwAAAACgjPLycjIbAAAAAAAFlJeX5+bmktkAAAAAANSW3NgWi4XMBgAAAACgVjyN7Xa7yWwAAAAAAGrOu7EFtkADAAAAAKDGKjS2QGYDAAAAAFAz1ze2QGYDAAAAAFADN2xsgcwGAAAAAKC6btbYApkNAAAAAEC1VNLYApkNAAAAAEDVVd7YApkNAAAAAEAV3bKxBTIbAAAAAICqqEpjC2Q2AAAAAAC3VMXGFshsAAAAAAAqV/XGFshsAAAAAAAqUa3GFshsAAAAAABuprqNLZDZAAAAAAAIgnB9SNegsQVB0Cg6KwAAAAAAGh9JkgoKCtRqdWhoqEajEWra2AKZDQAAAABo4iRJys/PLykpkSTJ5XKFhYU5nc68vLwaNLZAZgMAAAAAmjK5sYuLi51OpyAIhYWFgiAYDIawsDC1Wl1WVuZyuap1QDIbAAAAANBEuVyugoICT2PLj8ilbTQaAwICbDabyWQymUwOh6OKZ7bJbAAAAABAU+RyueS14p7G9jwul3ZYWFhAQIBerzcajWazuaSkxGq13jK2yWwAAAAAQJNzs8b2/NRT2hqNRq1Wa7XakJCQ8vLy0tJSs9ksSdLNjkxmAwAAAACalsob2zPGu7RVKpVKpQoODg4MDKx8JTmZDQAAAABoQtxu97Vr1ypvbFmF0hYEQY5ttVqt1+sNBkNZWdn1K8nJbAAAAABAE1JYWOi951nlri9tQRBEUVSr1Wq1WqfThYSEWCyWkpISz0pyMhsAAAAA0FQUFxcXFRVVsbFlNyxtmXxyW6PRePYkLy0tJbMBAAAAAE2CyWQqLCy02+1VvDWXRyWlLQiCKIryNmnySnIyGwAAAADw22exWAoKCqpyR64bqry0Ba+V5KrazhQAAAAAgIbNbrfn5+dbLJaaNbZMLu3CwsLK15w3vrPZdrv94MGDzzzzjK8nAgBNmsvlOnHihK9nAfjMN998k52d7efn5+uJAECTtn///vLy8kpuYS1zOp15eXllZWW1aWzZLc9pC40xsyVJys/P//nnn309EQBo0txut/wZAzRNV69etVgsarXa1xMBgCYtLy/P6XRKklRJP8u37yorK7tljVfRLUu78WW2Tqfr3bv3O++84+uJAECTZrPZPv3003fffdfXEwF849FHH33mmWdCQ0N9PREAaNLmz5+/adMmtVotiuLNxpSUlJSWllZra/Fbqry0G19mq1Sq4ODgdu3a+XoiANCkWa3W8PBwX88C8Bmj0di6deuwsDBfTwQAmjSj0Vh5Y1sslqKiIofDofhTV3aXL8WfDAAAAAAAn3M6nbXZWvyWbrYjGpkNAAAAAPitUfyS7Bu6YWk3vkXjtWEymX755Zf9+/fX0S8zAKBxEUWxXbt2999/f3R0tK/nAgAAoCT5kmyXy1XXT3T96vGmldmZmZlvvvkmd6ABAI+2bduqVKrRo0f7eiIAAACKqbtLsm+oQmk3rcy22WxZWVmSJN1zzz0xMTG+ng4A+NK1a9eOHTuWl5dXUlLi67kAAAAoRpKkwsLCursk+4b+p7Tr7VkbCLfbHRkZOX78+F69evl6LgDgSydOnHjnnXfOnTvn64kAAAAoqaSkpK4vyb4hT2k3ucwWBEGj0YSFhTVr1szXEwEAX8rKyvLz8/P1LAAAAJRks9mKi4uVvUt21cmlzU7jAAAAAIDfArfbXVhYaLPZfLjptcvl+i2fzbZarZmZmUVFRZ5Hzp49a7FYnE7nmTNnAgICfDg3APC5c+fOFRUVWa3WCxcu7Nu3z/N4SEhIixYtQkJCfDg3AACAGigtLS0rK6uH3cUrIYribzaz7Xb7zp07p06d6r25nM1my8vLE0Xx73//u7+/vw+nBwA+Jy+pstvtK1as2Lhxo+fxgICA8ePHT58+XRRFH04PAACgWhwOh/zdxodzEEUxIiLit5zZV65cSU9P9/Pzi4iIkB90Op2SJKlUKofD0dR2WQeACuS/EiVJcjgc8m8k3W63yWTKyMjIyMhwOp1ardbXcwQAAKiqoqIii8Xiw+XiKpUqIiLCYDD8ZlPT7Xa7XC6VStWzZ8/ly5fLD546dWr69OlarXb27Nl33323b2cIAL51+vTppUuXnj179tlnn5Xvm11WVvbpp58uWbLE5XL58CMKAACgusrLy1UqlQ+Xi6tUqsjISIPB8Nu/b7YoioGBge3bt5f/1Ww263Q6rVYbFxfneRAAmqaysrKgoCCdTtesWTP5r0STyRQeHu7reQEAAFSP2+0uLi4OCgry1QTkteJyYwuCwE7jAAAAAIBGzG63W63W+r9RtkwURc95bPkRMhsAAAAA0IhZLBZfLRf3nMf23tSGzAYAAAAANGK+2lZGFMWwsLAKjS2Q2QAAAAAA1IDBYDAajdffnIXMBgAAAAA0Sg6Hw1eXZAcHB4eFhel0OlEUK/yIzAYAAAAAND6SJDmdTp8sF/f394+IiPDz87u+sQUyGwAAAADQGJnNZqfTWf/Pq9PpIiMj/f39b9jYApkNAAAAAGh03G63yWSq/8xWq9WRkZGBgYE3a2yBzAYAAAAANDoWi6X+75UtimJ4eHhQUJBKVVlKk9kAAAAAgEbGZDI5HI56ftLQ0NCQkBCNRlP5MDIbAAAAANCY2O328vJyl8tVn08aEBAgby1+y5FkNgAAAACgMTGbzfV8Kluj0YSHh99sa/EKyGwAAAAAQKMhSVI97zEuX5IdGBhY+SXZHmQ2AAAAAKDRKCsrs9vt9Xm77JCQkODgYLVaXcXxZDYAAAAAoNEoKyurz1PZOp3OaDRW5ZJsDzIbAAAAANA4OJ1Oq9Vab5ufiaIYERHh7+9flUuyPchsAAAAAEDjUF5eXp+bn4WGhlb9kmwPMhsAAAAA0DjU5328dDqdwWDQarXV/YNkNgAAAACgEajPFeOiKBqNRr1eX63l4jIyGwAAAADQCNTnivGgoKBq7S7ujcwGAAAAADQC9bZiXKVSGQyGau0u/j9/XNnZAAAAAACgOEmS6m3FeGhoaHV3F/dGZgMAAAAAGjqr1Vo/t8vWarWhoaEajabGRyCzAQAAAAANnc1mkySpHp4oNDTUz8+vxqeyBTIbAAAAANDw1c+KcT8/vxrvfOZBZgMAAAAAGjRJkurnbLbBYKjlqWyBzAYAAAAANHA2m61+TmUHBgbW8lS2QGYDAAAAABq4+lkxHhoaWuObeHkjswEAAAAADZrVaq3rFeNKncoWyGwAAAAAQEPmdrvtdntdZ3ZISIgip7IFMhsAAAAA0JC5XC6Xy+V2u+vuKTQajVKnsgUyGwAAAADQkDkcjjptbEEQgoKCdDpdLTcY9yCzAQAAAAANV12vGBdFMTg4WKPRKHVAMhsAAAAA0HA5nc46zezAwMDa3yvbG5kNAAAAAGi46nrReHBwsFarVfCAZDYAAAAAoOGq00XjWq1Wr9erVEqmMZkNAAAAAGig6nqb8cDAQGVPZQtkNgAAAACgwXI6nXXX2KIoBgUFKXUfLw8yGwAAAADQQNXpqWw/Pz8/Pz9lV4wLZDYAAAAAoMGSJKnuMjsgIEDxU9kCmQ0AAAAAaLDq9Gw2mQ0AAAAAaFrq7my2TqfT6XSKrxgXyGwAAAAAQINVd5nt7++v0Wjq4shkNgAAAACggaq7O2bX0YpxgcwGAAAAADRYdXQ2W6VS1cUe4/89eF0cFAAAAACA2qujLdD8/PzqaMW4QGYDAAAAAJoavV5fR6eyBTIbAAAAANDU6PX6OrowWyCzAQAAAABNSp1emC2Q2QAAAACAKrLb7XW39fcNiaKo+DG1Wm3dncoWBKGurvkGAAAAAPyWWCyW/Px8jUYTERGh0+l8PZ2a0+l0dXcqWyCzAQAAAAC3ZLFY8vLyysrKRFF0u92RkZH1VtqKn9AmswEAAAAAvuRpbLfb7Xa7S0tLBUGoz9JWVp1emC1wbTYAAAAAoBLejS0/IklSaWlpfn6+3W6v62dX/FS2KIparbYuLvn2ILMBAAAAADd2fWPL6q20Fe9htVqtVqvJbAAAAABAfbtZY8vqp7QVT2KNRlOnjS2Q2QAAAACA61Xe2LJ6KG3FM1ur1dbphdkCmQ0AAAAAqKAqjS2r69LmbDYAAAAAoHGremPL6rS0yWwAAAAAQCNW3caW1V1pK57Zdb3/mUBmAwAAAABkNWtsWR2VtkqlIrMBAAAAAI1PbRpbVhelzdlsAAAAAEDjU/vGlile2mq1WsGNwUVRVPz0+PXIbAAAAABo0pRqbJnipa3gLbhEUazrxhbIbAAAAABoypRtbJmypU1mAwAAAAAah7pobJmCpa3T6RTMbEWOUzkyGwAAAACaorprbJlSpa3VapXKYzIbAAAAAFAn6rqxZYqUtrKLxhU5TuXIbAAAAABoWuqnsWW1L22NRqNWq5WaTz2UtqaunwAAAABAU+Z2u9PS0lJTUw8ePFhWVhYVFZWUlDRs2LBWrVop2E6ouvpsbJlc2oIgREZG6nS66v5xURQ1Go1KpZIkqZYzcbvd9fCqyWwAAAAAdcVisaxcuXLVqlXnz583mUwul0un0+3atWvTpk3jxo0bMWJERESEr+fYtNR/Y8tqWdryLmi1z+z6QWYDAAAAqBMmk2np0qWffPKJ2WweMWJEv379/Pz8Lly4kJKScvz48blz52ZkZDz77LPx8fG+nmlT4avGltWmtP38/BS5PLt+XjiZDQAAAEB5JpPpvffeW7Fihb+//9y5cx988MHw8HCVSmWxWIYMGfLJJ5+sWbNm2bJloig+99xzLVq08PV8mwSLxWKz2XzS2LIal7a/v78ilxiQ2QAAAAAaJZPJ9K9//WvFihUhISEvv/zyww8/HBISIm89pdfrDQbDjBkzgoKCPv744+XLl8fFxf3ud78LCQnx9ax/+0JCQux2e3Fxscvl8tUcalbaGo1Go9GIoljLTq6fa7PZaRwAAACAkrwb+5VXXhk6dGhoaKj39s6iKEZHR0+aNOmxxx6TJOmTTz45deqUDyfcdGg0mvDwcIPB4NvN52qw97goinq9vvbrxiVJIrMBAAAANDKrVq367LPPcnJynnzyyUGDBt3sNHVUVNSzzz7bvXv3kydP7tmzp7CwsJ7n2TRptdpGWtp6vV6ROddDaZPZAAAAAJSUnJzcpk0bQRBSUlKOHDnicDhuNrJNmzYDBgwICwvbv39/Tk5OPc6xSWukpd2IMptrswEAAAAoqWPHjrNnz3a5XL/88svcuXNFUbzvvvu0Wu31IzUaTbdu3aKjoy9dulRSUlL/U22y5NIWBKERXaet1WoVuTy7Hl4vZ7MBAAAAKEmn0911111z5sxJTk5OS0ubM2fOrl27bnZOOyAg4IYFXi1FRUXZ2dlWq7WWx2lSGt05bVEUFbmtl8vlYtE4AAAAgEam6qV94sSJvLy81q1bG43Gmj3X1atXX3vttVGjRm3atEk+NYoqanSlrchtvZxOpyRJtTxI5chsAAAAAMrzlPY999wjl/ZPP/1UobTPnj27devWwsLC+++/Py4urgbPkpWVNW/evK1bt6anp8+bNy81NZXSrpbGVdoBAQEaTW0vfHY6nZzNBgAAANBwuVyum50brLy0L1++/Pbbb+/evXvo0KG9e/cOCAio7lNnZ2fPmzdv27ZtTz31lHz/7fnz52/evJnSrpZGVNoajab2t/VyOBxkNgAAAIAGymQyzZ8//w9/+MNHH3105cqV63tbp9N17959zpw5d99997Fjx+bMmbN7926Hw3HlypV58+Zt3rw5KSlpwoQJiYmJ3jfWrors7Ow333wzNTX18ccfHzdu3IMPPjhnzpy4uLiFCxdS2tXViEq79ie0WTQOAAAAoOFas2bNypUrN2/ePGfOnMcee2z27NmHDx+usBWZXNpz586VS/u1115bu3bt66+/vnHjxm7dus2YMaNnz5633GW6Avk89pYtW5544okJEyYkJCTo9fo777zTU9opKSmUdrU0ltKufWZXsv5CKWQ2AAAAgBoKDQ1Vq9U9e/bs0aPH5cuXly1b9vvf//7ZZ5/dvHlzYWGhZ1iFc9qzZs3asGFD165dZ86cee+99+r1+mo9qdzY8nnsZ555plWrVnIZarVaT2kvWLCA0q6uRlHaGo2mlvuNS5LkcDjqtLTJbAAAAAA11Ldv33bt2l26dGn48OErV64cM2aM1WrdvHnz9OnTn3jiiXfeeefXX3+Vb1Os0+l69Oghl3ZeXl6PHj1mzpzZq1cvf3//aj3jzRpbRmnXUsMvbVEUa39C2263k9kAAAAAGqLo6Oi+fftKknTo0KG4uLhXXnll/fr1L730UlBQ0C+//LJgwYLHH3/8xRdf/Omnn8rKyjylPWvWrL/+9a+1aezRo0df39gyubRfe+01SrtmGn5pBwYG1nJudru9TndBq+1m6AAAAACaLJVKNXjw4G3btm3btm3w4MEPPfRQREREmzZthg4d+sYbb2zfvj0/P//ChQtfffVV165dhw4dOmjQoO7du992222BgYE1WyuekpLy+OOPT5w48YaNLdNqtXfddddrr702d+7cBQsWCILwyCOPhISEKPCCmwa5tAVBKC4ulhcj+IRc2oIgREZGel+9L+83brPZanxGmkXjAAAAABquxMTE5ORku92+c+fOrKwstVptMBiOHTt29uzZtm3bTps2rW/fvgUFBV999dWrr7762GOPbd261c/Pr7qNnZeX99Zbb8lrxStvbJmntDmnXTMN+Zy2KIqBgYG1WTdus9nq9NcHZDYAAACAW3M6nfn5+def3tRqtYMHD27VqtXXX3+dnp7ucrk+++yzRYsW6fX6V155ZcaMGf/6179Wr149ZswYSZICAgJatGhR3bXieXl58+fP//LLL0ePHl2VxvZMjNKujYZc2kFBQTqdrro3gfNwuVx1enk2i8YBAAAAVMbpdO7YseOzzz47e/as2+3u0qXLhAkTunfv7ufnJw/o2rVr9+7d165du2vXrkOHDq1du1YUxRkzZgwZMkReqh0TE9OtW7dx48YZDIaWLVtWK9vy8vIWLFjw5ZdfPvbYY1VvbBmrx2upwa4eV6vVgYGBFW4dVy3ymvPa7FheCTIbAAAAwE2VlZUtW7Zs1apV6enpVqvV7Xanp6efOHFi9uzZgwYNktd++/v7P/DAA7t37/7oo48kSYqJiZkxY8bDDz8cHBwsH8TPz6958+bR0dEqlapaZyDz8/MXLFjwxRdfPPbYYzfb86xylHYtNdjSDgoKKikpqfEBrVZr3Z3NZtE4AAAAgBszm82LFi16//33y8rK/vrXv/74449r1qzp3r372bNnly5devLkSc/I3r17d+rUqbCw0Gg0vvjii0OGDPE0todara5BY3/55ZejRo2qWWPLvPceX7hw4ZYtW0wmUw2O02TJpS3fI92H06iwely+wr/Gp6Pr9PJsMhsAAADADZhMpkWLFn300Ud6vf7VV1999tln77333uHDh7/++utdu3bds2fPsWPHLBaLPDgkJGTAgAHx8fEBAQEtW7as/eliz3nskSNHymvFa7PllU6nk0u7RYsW8+fPT01NpbSrRavVRkRENKjSFkUxODi4xv9XOJ3Ours8m8wGAAAAUJGnsQMCAmbOnDlixIjw8HC1Wh0QEJCUlNS1a1eVSpWZmenZVEwUxYEDB3bo0CE9Pf3UqVNms7k2z65sY8s8pR0bG0tp10ADLO3a7DfudrstFksdZTbXZgMAAAD4H3Jjf/zxx4GBgTNnzhw+fHhoaKjnpxqNxuVyuVwuvV6v1Wo9j0dHR993331Hjhz56quv7r777i5dutTs2euisWWe0p47d+78+fMFQRg+fPj1i9ubrIyMjMWLF6enp1cyZuzYsV26dLl48eKaNWtycnKefPLJbt26ed/UWrZ27drDhw8/+uij3lvlKcX7Ou3qXongzWKxuFwupf7v8kZmAwAAAPgfa9asWbVqVXZ29uzZswcPHuzd2IIg/PLLLydOnAgLC+vYsaP3j1Qq1eDBg7dt2/bTTz8dPXq0Xbt21b1xl+DV2I8++qh8PbayFaTT6Tw7olHaFZhMpr179x4+fLiSMQMGDOjdu7fb7T5+/Pi5c+dsNlt4eHibNm0qDEtPT9+3b19ycnIdXf/sKW3vu3xVl9VqdTqdtbkx2M2Q2QAAAAD+R1JSUps2bTIzM7dt29azZ8++fft6zlqfOXNmyZIlJ06cmDBhwl133VVh/XDr1q2Tk5NPnDhx+vTpwsLC2NjYaj1vfn7+woUL5caeOHFiYmJiXZxppLRvRpIkh8MREhLy5ptv3mwxQnx8vNFoDAoKEgTBbrcfOnTo22+/NRqN8m7kHnV9Y2rh/5W23W53u901PoLFYtHr9YovgyezAQAAAPyPjh07zpo1y+Vy7dmzZ+7cuaIo3nfffVqt9uzZs/Pmzfvmm28eeuih37aCGgYAACAASURBVP/+9zExMRX+oFarHTx4sCAI/fv3j4yMrNaTyo29adOmOm1sGaVdCa1We9ttt/Xo0aOSMfJSbX9/f7vd/uWXX95+++333nvv9UvH65okSTVubJnZbA4ODlY8s9kCDQAAAIAgCILZbD5//nxRUZGnQpOTk9PS0ubOnbtr166TJ0/Omzdvy5Yt/fr1e/755zt27HjDDO7WrduUKVOSkpKqFV312dgyz2tkR7QakFdZt23btlevXg6HY/369ZcuXfL1pGrCYrHU5nz4zZDZAAAAjY/Vai0sLDSbzXW6JhNNitlsXrx48fjx41NSUkpLS+UKnTNnTnJy8rFjx2bNmjVhwoTU1NT777//xRdfvPPOO29W0f7+/lFRUdW6KtvT2CNGjKifxpZR2rXk7+8/adKkLl26pKWlffvtt9euXfP1jKpNkqTy8nLFLyBn0TgAAEDj4HK5Tp8+vX379r1792ZlZdntdrVa3bx58169eg0bNqxdu3Yq1f9/BiUjI2PVqlVHjx4dPXr0sGHDAgMDKxzt888/T0lJGTRo0COPPBISEnLp0qWVK1cePHjQM0ClUul0OoPB0L59+759+3bs2FGv19fTS0W9M5lMixcv/vjjj4OCgiIj/z/27juuqXt/4P/JyR4kgQBhBAh7Coqo4Kx7j9YBKkucXdeOq9ZbW221ora1t99760KtdaEiLqxIVYYDURQnKiB7yQoQkpCQcX5/nN/NLz9EDCFAsO/nH/dxC8mHE0QfvPL5nM/HCo9kbWlv2rTp1q1bCoVi4sSJq1evNu7e0XV1dT/99BPe2CtXruy1xsbB6vHXaTSa2tra8vLy1z9Fo9G4XK7u9vKurq4fffTR119/3YdLx7tJIpFwOBzj/tRBZgMAAAAA9AMikejIkSPx8fHFxcUoivL5fDMzs+bm5qysrDt37ly6dOkf//jHtGnTtCUskUhycnIuX75cW1trZWU1YcKEdgMWFRWlpqY6Ozvj+/S2tLTk5OSkpKRoH0AgEAgEAplMZjAYR44cWbhwYUREhJ2dXa+9ZNBrtI3NYDD++c9/jho1SttRuhWanp5eXl4ulUp139DpJryxExIS+qSxcVDa7YhEorVr1zIYjNc/NWzYsHXr1unuK04kEqdMmXLnzp1Dhw7Fx8c7ODi8vuu4iVMoFAqFgkKhGPEHGzIbAAAAAMDUSaXSgwcP7tq1S61Wh4eHz5gxw8bGhkQiqVSq8vLyo0ePpqSk/N///Z+5ufnYsWPxp2g0GpVKpVAo7t+/n5CQ4OTk5O7urjumSqVqa2vTLpXEMEylUnG53NWrV0+cOBH/iEKhqK6uTk5OTklJ+fXXXwkEwpIlS7q6rxUwcdrGxo/InjVrVrvjuygUSlBQ0MaNGxEEyczMjI2NpVKpo0eP1p3SNEx9fX2fNzZOW9qbNm2C0iYQCDQa7fUlMAiC0On011uUxWKtXLny0aNHWVlZHe46buIwDJNIJAwGAzIbAAAAAOBv5Nq1awkJCRqNZvXq1QsXLrSystLWiKurq4uLC4qi58+fT01N9fPz081gGo2m0WjOnTs3YMAAW1tb/AyeTpDJZBcXF+0OwxqNRqFQDB8+3NXVNS4u7siRIz4+PtOnTzf6GbOgr3Te2LW1tUwmk8lkakv7u+++y8zM/O677zZu3NjN0q6vr//xxx/xxu7N+7HfRHeF/N+8tLlc7tdffz148ODXP8VgMDp8o83Z2XnVqlWlpaXapeM9f5nGJJVKVSpV99850oIt0AAAAAAATJpMJrt+/Xpubu6MGTPmzZuHz2NrP0uhUFxcXKZPn+7n59fU1NTc3Kz7XIFAMGrUKDqdfuzYsaysrK5+aRRF6XS6QCBYsmTJuHHjiouLMzMza2trjfCqgAnovLGzsrI+++yzX3/9tbKyEvnfnPa3334bEhLy4MGD77777vr160ql0rAvrW3sOXPmrFixwtXVtW8bG4eX9rfffmtjY7Njx46kpCSJRNLXF9UHiESig4ODR0cEAkGHt+UTicRJkybNmjVLrVb3x13HlUqlcTdCg8wGAAAAADBpz58/z83NtbCwCA4Otre3f30mGUXRCRMmxMXF/fOf/xQIBLqfolKpc+fOHT9+/PPnzxMSEgoKCgy7Bltb25CQED6f/+TJkw43RgL9Dt7YcXFxb2ps/Hzs1tZW7ZHCFAplyJAhGzduxEv70qVL1dXVhn31a9euJScn+/r6LliwwEQaG4e/xpiYGLVafezYsaKior6+on4DXzo+aNCgx48fp6amikSivr6irpFIJCqVylijmcoPNAAAAAAA6FBhYWFlZaWbm5uTk5M2eNoxNzc3Nzfv8FN2dnaLFy8uKCjQf+n461AUdXZ2tra2rqioqK+v7+rTgQk6derU0aNHq6qqvvrqq0mTJr3e2BkZGWFhYaGhobr32WpL+9q1a6NGjbK2tjbsqwcFBfn4+Ny9e/f27dtubm6WlpbdfT3GU1lZefnyZbFYPGbMGNjzr0u0S8cTEhIQBDH6KVk9SiaT4RuhGeWmGJjNBgAAAAAwaQ0NDc3NzZaWllwuV/fjra2tIpGoQUdjY6NCoWj3dBRFg4OD33//fTqdfvTo0du3bxt2GRwOh8lkisVimUxm4CsBpiQ4ONjLy4tIJF64cOHOnTtyuRz/uG5jf/zxx56enu1uWMVL+6OPPgoJCTH4jDcnJ6evv/566NCh+/btO3r0qOm8d1NSUrJ169aMjIylS5eGhYVZWFj09RX1J/jS8dmzZyuVytraWoPvKegTGo1GLBYba0IbZrMBAAAAAExaW1ubSqUiEontdsE9evTokSNHdO8d5XK5X3zxxYwZM9qNwGAw5s+fn5ube/r06YSEBKFQ2G7Xcf2p1WqNRmPYc4FJ8fDw+Prrr9VqdVpa2vfff48gyKRJkx4+fIg3dmho6OuNXVlZmZycHBQU5O/v3835ZxKJ5OPjs2HDhi1btuzduxdBkPDw8D6f0y4pKfnhhx+uXbu2bNmyyMhIe3t7I2493Y80NjauX7/+TW8xDBkyJDo6+k3PxZeOP3z4MD09Xa1WU6nUfvQ91B6g3f0JbchsAAAAAACTxmQyaTSaTCbTzjfi8CO78FOvlUplTU0NmUxuaGjocBB86Xh+fv758+fxpeNdvYzW1ta2tjYajUahUAx7IcCkkMlkf3//b7/9FkEQvLRzcnKys7MzMzNDQ0M/+eST1xt7x44dFy5ciIiI4PP5BvwItUMkEr29vbWlTSAQFi9e3Ieljc9jX7t2LSYmJioq6m/b2AiCKBSKO3fuvOnloyg6b968Tp4uFArxpeP5+fkcDofNZqvV6n6xgFytVovFYhqN1v0txyGzAQAAAABMmrW1tbm5eVlZWU1Nje7H586dO2bMGHxuubq6+ueff87Ozn7TICiKDhs27IMPPvj111+PHTvm5eXV1cuoqqoSiUR8Pr/d2nXQf+Gl/c0332AYlp6e/ttvvymVyrCwsA4be/v27SdOnPDz8xszZoyxllLrlvaePXsQBOmr0sYb++rVq3/zxnZ3dz906JBUKu3kMVwu18HBQSAQHDt2DEVRoVDY7gH40nEPDw+ZTCYUCtlsdmNjY3Nzc78o7ZaWFqNMaENmAwAAAACYND8/PxcXl0uXLj1//vy9995jMBj4xy0tLbVBwmKx2Gx25+MwGIx58+Y9ffoUXzqOT4PrSalU5ubmlpeXBwcHw6ZQ7xIymRwQEIDPaV+5coVOpw8aNMjJyanDxh4wYMCaNWtCQkI6PNLJMNrS3rx5c1+VNsxjazEYDF9fXz0f7Ofn96ZPsVgs3c/if6D9orTxCW0qldrNCe2/6Q8QAAAAAEB/4eDgMGTIEDMzs9OnT9+8ebPDW6Px+7ffOhS+dDwgIOD8+fNpaWntVqF3IjMz89atW0QicfDgwQ4ODl17AcC0aUt74sSJSqUyLi5O92ejoqJCt7HHjBmjfaPHWPDS/uabb/z9/ffs2XPs2LHe3BGtuLgYvx8bGrvnkMlkS0tLDofzprMSTIpYLFYoFBiGdWcQ+BkCAAAAADBpZDJ57ty5EydOfPbs2ffff3/06FHdA2kVCsWtW7e2bdt248YNEonU+W+x2l3HGQxGZWWlPpnd1NR04cKFHTt2ZGdnT5o0aeTIkUacyQQmQlvaY8eOzcvL27x585UrV+RyeUVFxY4dO/DGXrt27ZgxY+h0uv7D1tfXv3jxorm5+a2P7KvSLi4u3rp1a2pqakxMjP57npWVlRUWFsKW+13Sj0pbrVa3tLR0c8txWDQOAAAAAGDqnJycVq9ejWHY5cuXN2zY8Pvvv7u5ufF4PJlM9vLly6Kiourqah6PFxMTM2bMmM6HotPp8+fPf/r06bFjx17P7IaGhp9++ik+Ph5BEAzD5HJ5U1NTfX19XV3dyJEjV6xY4eHh0VMvEvQp3dXj+I5oVVVV9+/fx49bX7t27ejRo7vU2FVVVT/99NP169cXLVoUHh7+1hO2taXda6vHDWvs3Nzc2NjYly9frl69esaMGWZmZj13he8YvLSR/rB6XCwWs9ns7tyhDZkNAAAAAGDqiESiv7//d999N2LEiLNnzz548ODevXtkMhnfbNzBwSEmJmbGjBkBAQHm5uZvHc3W1hbfdfzGjRvtPqVQKB49evT06VPt1+VyuV5eXqtWrZo8ebKHhwdMZb/DdEs7PT198+bNEolk8ODBBjR2dXX1jz/+eP78ebVavXfvXo1GExkZaVKljTf2tWvXli5d2qXG3rJly71796RSaWxsLIIgUNpd0l9KW6VSNTc3UygUg+/QhswGAAAAAOgHyGSys7PzokWLJk6cWFtbW1NT09jYSCKRbG1t+Xy+lZWVhYWF7lFbbm5uO3fuVCgUr99KjS8d379/f1NTk62tLb5zuKur688///zNN9+0eySZTGYymTwej81m46s9S0tLDx8+fO/ePd2HUSgULpfr6en53nvv+fj40Gi0HvxegB7Tbke04cOHG9bYO3bsOH/+/IIFC8aNG3fo0KG4uDi1Wh0dHc3n8zt/bu+UtraxuzSP/eLFi61bt2ZnZ3/00Ueenp6//vprbGysRqOZNWsWlLb++ktpi8ViJpNpZmZm2L36kNkAAAAAAP0DgUBgs9lsNtvZ2VmpVCqVSgKBQKVSSaQOfqNjMBidLPCm0+ntPvv6R95EIpHcv38/JSVF94MoipJIJCaTeeTIkcWLFy9atAg2JO+n8NL+5ptvQkJChgwZMmLECAPmsc+dOzd37tylS5c6OTkJBIItW7YcOHAAQRD9S7vnTvnSbWz99zx78eLFli1b7t69+9FHHy1atIjL5Zqbm2/atGn79u0EAmHmzJnvdmk3Nzc/fPjw/v37+fn5lZWVYrEYQRAajcbn811cXAICAoKDg62trfW877pflLZarRaJRFQq1bA3DSGzAQAAAAD6GRRFqVRqX63f1mg0SqWSw+GsXr16/PjxCIJgGKZQKKqrqy9fvpySkvLLL79gGBYdHW1lZdXuuWq1WqFQ4LPfsJ+zySKTyQMHDnRxcWEymV1qjFevXv34449nz56dO3fuihUrnJ2dSSSSp6cn3sxdKm0fHx9taRMIhEWLFhmltHXvx+5SY//www9ZWVkffvjhokWLrK2tURQNCgratGnTpk2btm3bhiDIu1ra5eXlCQkJycnJZWVlcrnc3Nzc2tra3NycSCS2trbm5+ffvHmTQCBYWlqOGDEiIiLC19dXd1nNm/SL0m5tbW1paSGRSB2+ldk5yGwAAAAAANBlFArFzc1t2LBh+H9qNBqFQjFixAhnZ+cDBw4cOXLEx8dn2rRp7TYQunfv3p49e/CbyYVCYR9cN9APmUzm8Xhdekq7xnZxccHjhEgk4qW9efNmw0p79+7dCIJ0v7QN2/MMb+zbt29/+OGHixcvxhsbQRAKhfJul3ZDQ0NiYuLJkycLCws9PDyWLFkSFBRkbW1No9HwvcHwd82am5tzc3NTU1OTkpJSU1NnzJgRFRXl4uLy1plt0y9tDMMaGxvpdDqTyezqXmiQ2QAAAAAAoLtQFKXT6Q4ODsuWLSsqKkpMTMzMzAwKCmpXU2Kx+MWLFyqVqrW1ta8uFfQEvLHPnDnTrrFx2tI2bE578+bN3S9tbWMvWbIkKirKzs5On8bOy8vbunUrPo+t29i4d7i0X7x48eOPP6alpQmFQvwOAhsbG3zz7XaP1Gg0AwYMmDRp0vPnz0+cOHHq1Knbt2+vW7du9OjRb10KYfqlrVQqm5qaKBSKPlP0umCtDgAAAAAAMBpbW9uQkBBra+snT55UVFT09eWA3qBt7A8++OD1xsYRiUQvL68NGzYMHjz4wIEDhw4dqqmpeevIeGl/8803AwYM2L179/Hjxw07T9vgxsbnsVetWqVdK97uMdrStrGx2bZtW1JSUktLiwFXaFLS09PXrFmTkZGxZMmSnTt3LliwwNvb28LCosO10yiKmpmZOTk5jRs3bvPmzRs2bBCLxevWrUtISNDnyHTTP0+7paVFKpVqNJouPQsyGwAAAADg3adWq5VKZVd/UzQAiqIuLi58Pr+iosKwIgL9i7ax33///Tc1Nq6vSrtdY+u5VrxdY/P5/Dc96x0r7aysrG3btpWUlKxZs2b58uX+/v5mZmb6LJmmUCgODg4ffPDBjz/+yOfzY2NjL168qM+3wsRLW6PRNDY2KhSKLj0LFo0DAAAAALyDxGLx48eP79y58/z587KyMrFYrNFoiESihYWFs7Ozn59fSEiIh4dHlzaR1hOHw2EwGLW1tTKZDEGQ1NTUa9eu4fNaFRUVJSUljY2NW7ZswY/4trW1nTNnjq+vr9EvA/SCurq6X3755ezZs++///7KlStdXV073yxKW9oGrB7HT/nq6urx7jR2ZmbmWxsb986sHi8qKtq5c2dlZeW6detmzJjB4XC6ek8yi8UaPnz4Dz/8sG7dup07d/L5/NGjR791xbWJrx6Xy+VisZhMJuu/FxpkNgAAAADAO6W6ujopKenChQsvX75UKBT4zsBCoZBCobS2tjY1NWVkZPz5559MJtPPzy80NHTs2LH40dnGQiAQ8O2R8Mnz3NzchIQEfN5SrVbL5fKGhobKykq8W7y9vYcMGQKZ3R/V1dX9/PPPp0+fxuex39rYuN4s7Xb7indprTje2IsXL35rY+PegdKWSqU7d+68f//+l19+OX36dIP/WaBQKAEBAV999dX69evxmW0/P7+35roplzaGYU1NTXQ6ncVi6XlEAmQ2AAAAAMA7orm5OTk5+fjx47m5uQ4ODuHh4cOGDbOxsaHT6WQyGUVRtVrd1tYmk8lKS0tv3ryZmpq6bt264ODg6OjokJAQY81sy2QyhUJBo9HwKayZM2cOGDCgra0NQZCcnJzDhw/b2dmFhYU5OjoiCMJkMj09PY3ydUFvwhs7ISFhzpw5+jc2rndKuzcbG9ffSzs5OTktLW3+/PkzZ87s5ltvJBJp5MiRy5Yt+/e//3327Fk+n29tbf3WZ5lyaatUqvr6ejKZTKPR9Jnhh8wGAAAAAHgXlJaW7t2798yZM1wu96OPPpowYYJAIGCz2WQy+fUHe3t7BwcHL1iw4MqVK+fPn//iiy9iYmIWLlz4+knXBqiqqhKJRHw+H/9N3dHRUSAQ4J/SaDTnz5/n8/nBwcFeXl74B03zhkzQCW1jz549u6uNjevp0jassfPz8w1ubFz/LW2RSHTy5Ek2mz19+nQ7O7uurhV/HY1Gmz9/fkZGxtmzZydMmGBpaanPN9OUSxtfiWNtba3PruOwBRoAAAAAQL/34MGDTZs2JSQkTJ48+d///ndMTMyAAQN4PF6HjY0gCJVK5fP5gwcPXrlyZWxsrJub23//+99///vfJSUl3bwSpVKZm5tbUVHh7u5ua2uLIAiKoqT/wYsaRVEikaj9YPd/oQe9Sbex9bkf+03a7Yj2xx9/GGtHtIKCgs2bN/d+Y+Pa7Yim5zZgfe7y5ctPnjz54IMPfH19jfXOl4WFxfz589va2tLS0kQikZ7PMtkd0TAMa2lpaW5uVqlUb30wZDYAAAAAQP+Wm5v766+/ZmdnR0dHf/7550FBQebm5voUAoqiPB5v5MiRmzZtmjBhQmJi4oEDByorK7tzMZmZmbdu3SISiUFBQQ4ODt0ZCpigurq6nTt3dr+xcbqlvX//fqOUdkFBwdatW9PT0w1o7Fu3bnWzsXG6pa3/htt9SK1W//XXX2w2OyQkxLg7NYwbN87Z2Tk9Pf3Vq1f6P8tkS1uj0YhEIn3O94LMBgAAAADox6qqqg4cOHDnzp3FixcvXbrU0dGxq9lDoVC8vb3XrFkzfvz4xMTEhISExsZGA66kqanpwoULO3bsuH///qRJk0aMGEGlUts9xsnJKSwsbMqUKRYWFgZ8CdC38H3FjdXYOG1pBwYGGjCn7efnt3v37vj4eLy0CwoKYmNjMzIyYmJiIiMj9W/srVu33rp1a8WKFd1vbBxe2hs3buTz+aY/p11cXPzy5cvAwECBQND9166LzWYPGzaspKSkurq6SwcKmmxpq1SqhoYGuVyOYVgnD4N7swEAAAAA+qu2trb4+PhLly7Nnj07PDycz+cbtgCbSCQ6OTl99NFHDQ0Nf/zxh4ODw+zZszsvqPr6+p9++ik+Ph5BEAzDWltbm5ub6+rqamtrR4wYsWLFCg8Pj9efJRQKw8PDiUQii8Uy4DpBH8Ib+9SpUzNnzjRWY+Pw0sbvuMbv046KiurSfdq7du1CECQoKCguLk47j63n2V14Y1+/fn358uXGamwchUIZMmSI7n3aM2bMMM37tJ89e9bQ0DBw4EAej2fckQkEQmBgYHx8fH5+/rBhw9hstv7PNdn7tPGbtPl8fic3aUNmAwAAAAD0V3fv3k1OTg4MDFy0aJG9vX13bnJGUdTT03P58uU//PBDYmKih4fHgAEDOnm8QqF48ODB48eP8f8kEolcLtfLy2vFihWTJ0/29PR8fSobQRAKhWL03+NBL8Ab++TJk0ZvbJzBpe3r67thw4bvvvtu165dFApFKpUuX748IiKiS/PY169fX7ZsWUREhK2trXHncvtLaZeUlLS1tTk5OTGZTKMP7u7uzmKxSkpKJBJJlzIbMdXSxjBMIpFQqVQLC4s3/UWAzAYAAAAA6JekUmlycnJ9fX1kZKS3t3f384BEIoWEhEycODE+Pj4rK8vDw6PDVHZ1df3555+/+eYb3Q+iKEomk1ksFo/HM8F1nqA76uvrtY29atUqNzc34zY2rjul/e23337//ff379//8MMP9a9l/C5uvLH1X2HeVf2itOvq6phMpv6HQncJfqZgbW2tQqEw4OmmWdoajaaxsZFKpZqZmXX4TYPMBgAAAADol+7du5eZmRkcHDxq1Ch9DpjRB4PBmDJlyo0bNzIyMkaMGOHj49PhY7RncYF3Xn19/c6dO3u6sXGGlTaJRPLz84uNjW1qanJ2dtbz4KjeaWyc6Ze2TCajUqlvOpigm5hMJolEkkql+mzQ3SHTLG2VSlVXV4eiKIvFen0lEWyBBgAAAADQL925c6exsTEkJMS4G3r7+PgMGjTo+fPneXl5RhwW9Ee92dg4bWkPGjRI/x3RSCSSh4fHkCFDrKys9G/sjIyMXmhsnLa0ra2tTXBHNBRFMQzrfE8vg+Ejd/M7bJo7oikUitraWplM9vq3DjIbAAAAAKD/qa+vz8/Pt7Oz8/T0NG75UKnUgQMHEgiEly9fymQyI44M+hfdxl65cmUvNDbOsNImEAgoiuqzPUHvNzbu9dKWSCS98HX1wWQy5XK5UqnsicFbWlpUKhWLxermbLnJlnZNTU1ra2u70obMBgAAAADof0pLSysqKlxdXXvibGovLy8+n19UVFRbW2v0wUG/gN+Prd1X3N3dvXcaG9eutA8fPqxPaeujuLh4+/btGRkZS5cu7c3GxplsafP5fPywgJ5Ykl1VVSWTyWxsbGg0WjeHMsHSxjBMLpfX1dUpFArd0obMBgAAAADof6qrq0Uikb29PX7LonEJBAJLS8uqqqqGhgajDw5Mn3bPsxkzZvR+Y+N0S3v//v1GKe3i4uKtW7empaUtXbo0Kiqqlxsbp1vasbGxJlLarq6udDr95cuXPbGU/fnz52Kx2NXV1Si3o5tmaUul0tra2ra2Nu0HIbMBAAAAAPqfpqYmtVrN5XKNtfmZLjabzWazxWKxVCo1+uDAxDU0NPR5Y+OMW9p4Y6empi5ZsqSvGhunLW0rKysTKe0BAwbweLycnJz6+nqjD37v3j0ikYiXvFEGNNnSrqur05Y27DQOAAAAAND/KBQKFEWpVGp3zsp+EyKRSKfT1Wq17uSMPjQaTVVV1cuXL8vLyxsbG1UqFZVK5fF4QqHQ3d3dwsKiJ64WGJG2sadPn963jY3DS3vDhg1btmzZv38/giCRkZFv3Xv8dcXFxbGxsabQ2DjdvcdjY2MRBJkxYwaLxeqr67G2tg4ICEhLS6uoqHBxcTHiN+fVq1f37t3z9vY27pnkunuPG2vMbtJoNC0tLSiKWllZkclkyGwAAAAAgP6HQCBgGKbRaHpofHxk/au4pKTk6tWrqampBQUFYrEY304J316YTCbT6XQul+vv7z958uTRo0f3xEJ30H0NDQ34nmfTp09ftWpVnzc2jkgkent7b9iwAT/li0wmL1682MrKSv8RioqKtm7dmp6e3if3Y78JhUIZOnToxo0bN27cGBsbi6Lo9OnTmUxmn1wMkUicOnVqenr6pUuXPDw87OzsjDXypUuXiouLv/zyS1tbW2ONidOWtunMaWs0GrFYTCQSeTxe3//NAQAAAAAAXcVgMDQajVwuxzDM6FPESqVSJpNRKBQqlfrWB1dXV587dy4xMbGoqMjS0nLQoEG+vr5CodDCwoJMJuObAxUVFT169OjWrVvXrl0Lwe2powAAIABJREFUCAhYvHjxuHHjuFyucS8bdFN2dvbVq1ft7OzmzJljIo2Nw0s7MjJyw4YNCQkJISEhXcrsa9eupaenBwUFzZw500QaG0ehUIYNGzZv3ryff/75/PnzAwcO9PDw6KuLGTVq1LBhw5KTkydOnGhtbW2UP/3y8vLExEQHB4ehQ4f2xFw9Xto0Gs10lsmo1erGxkYEFo0DAAAAAPRHFhYWdDq9oaFBKpUa/ffXhoaGpqYmCwsLNpvdycPUavVff/21f//+hw8furu7r1+/fsiQIZaWliwWi06nUygUAoGg0Wja2tpkMplYLH716lVaWtq5c+fWr18/duzYVatW+fv7m07zgIEDBw4bNuzSpUspKSmurq6Ojo59fUX/n8rKyvPnzzc0NMyZM8fJyalLzx0zZsyVK1dycnLS0tLs7Ox4PF4PXaQBnj17lpKSgqLo+PHjbWxs+vBKWCxWeHj4/fv3f//9d/wuj24OqFAo9u3b9/Tp0/Xr13t4ePTQ33QymdxD984YDC9tyGwAAAAAgP4H3wy8rKyspqbG6JldXFxcU1MzcODATuYMZTLZiRMn9u3bRyAQPvnkkwkTJgiFQhaL1e73XRRFaTQajUazsLBwdHR0d3cfN25cYmJicnJyWVnZ559/PmbMmJ7YxQ0YgM/nf/755yqV6ty5cyiKrlq1ykRKu7S0dNu2bVeuXImMjIyMjOzSVDaCIC4uLhs2bPj+++/37NmDoujChQtNpLQfPnz4ww8/5OXlffbZZzNnzjTKRtzdMXTo0Hnz5h0+fPjQoUMff/xxd5aOYxh29OjR06dPT548ecKECT360ggEAoFAIJPJpvOenVqthswGAAAAAOh/nJycHBwcnjx5Ulpa6urqatzBnz17Vl9f7+rq+qabqCUSSVxc3P79+11dXVesWDFixAgOh/PW33FRFOXxeFwu18nJycPD48CBA99888369eunTp0KpW0KCASCUChcs2YNgiBnzpwhEAgrV67s89LGG/uvv/6KioqKjo52cHDo6r24JBLJx8fn22+//f7773ft2oUgiCmU9sOHD7ds2fL06dN//OMf8+fPt7S07PMpWTqdHhMTU1ZWlpiYyOVyo6Oju/qOBk6j0SQmJu7evdvd3T0mJsbJyakXXhqTyWSxWEQisSeO/jaAqRQ/AAAAAADQH4PB8Pf3b25uzs3NVSgURhy5paXlwYMHbDbb3d2dTCa//gCVSnXq1KlDhw4FBgZ+9dVX48ePNzc3138eiUgk2tjYzJ8/f/369XQ6/ddff83MzOy5vdxAl2hLG190sHfv3rKysj68ntLS0u3bt//1118RERFLliwxoLFx2tL28fHZtWtXfHx8354Jj89jm1Rj42xsbL788suBAwfGxcVt3769pKQEw7AujdDa2rp79+4ffviBwWB8+umnAwcO7PCfEaPDNx4znVO+ILMBAAAAAPofAoEwYsQIoVB47dq1p0+fGnHk27dv5+TkDB482Nvbu8MHpKSk4HdvLlu2LCgoyLCzcDkczoQJE1asWCGTyfbs2fP48ePuXTUwGm1pjx07tm9LG2/slJQUvLEFAkF3Csp0Shtv7CdPnphaY+NcXV2///77SZMmJSUlrVmz5vr163K5XM/n5uXlff3117/88ourq+umTZtGjBhBo9F69Gp1mdR52rBoHAAAAACgX3Jzcxs7duyBAwcyMjI8PT2Ncod2Q0PDn3/+qVAoRo4c2eGGTGVlZadPn8YwLDIycujQod1Z7M1gMKZPn15ZWXn48OGLFy/a29sbtkIVGB1e2mvXrkUQJDExEUGQ3l893m4eu5uNjTOF1eO6a8UXLFjA4/FMqrERBEFRFN/RUCgUHjly5JNPPhk7duzcuXODgoLedN6YRqN58eLF+fPnL126VF5ePnv27KioKF9fX32OKjAu3fO0+3b1OGQ2AAAAAEC/RKVSp0+fnpmZmZiY6OvrO3HixG7uAKRSqc6cOXP16tVp06YNHz68wxN9UlJS7t27FxoaOnbsWMPmsXWx2eyFCxfm5uYmJSUFBQVNmTKlmwMCY+nb0tbueRYREREdHW2Uxsb1bWm3ux/bBBsbRyAQ7O3tY2JiBg8efOLEiZSUlCtXrri4uAwaNMjHx0cgEOD3iUil0urq6vz8/Pv37+fn5zc0NAQEBHz88ccjRoywtbXtqwPhTKS0IbMBAAAAAPoroVAYGhr6888/792718LCYsiQId0Z7fLly3/88Yerq+ucOXP4fP7rD8jPz79y5Yqjo+PYsWPNzc2787W0bG1tZ8yY8ezZs+vXrw8cOLBvzzQCuvqqtA1r7OLi4qamJmdn57eex26s0sYwTKPRqNVqlUqlVqsxDMM/oj3KnkAgoChKIBCIRCKRSHzy5ElsbOyzZ89Mc6346ywsLEaOHOnu7h4aGpqRkXH79u34+HiNRkOlUvHbrdVqtUKhUKlUNjY2w4cPHzt2rJ+fn4ODA51O79uXZgqlDZkNAAAAANBfkUikCRMmVFRUHDx4cPfu3XQ63c/Pz4BxMAxLT0//7bffUBSNjo4ODAzsMGwyMzMLCgoWL14cEBBgrF+jURQdM2ZMUlLSnTt3CgoKILNNSu+XtmGN/fz58+3btz98+HDJkiWLFi16690HBpS2RqNRKpVKpbKtra2trU2pVKpUKkwHgiAd7haGHzeVm5u7b9++vLy8yMjI0aNHoygqkUgoFIpJHUP1OjKZLBAIbGxsBgwYsGjRIpFIVFFRUVVVJRaLEQSh0Wh8Pl8gEFhZWVlYWPB4PNM5wrrPSxsyGwAAAACgH2Oz2WFhYY2NjadOndq4ceNnn302fPjwLq2wbWtrO3fu3K5du6RS6ccffzxhwoQOV4PL5fIHDx4wmUx/f/833aJpGB6PFxQUlJOT8/Lly65ePOhpvVna2rO7IiMju9TYW7duvXPnjkaj2bNnD4ZhixcvNkppYxjW1tYml8tbW1vlcrlardZoNPh8Nf6/er6up0+f7tu3r6ioKDw8fPz48UQisb6+HkVRFEWJRCKFQqHT6TQajUKhmOYPP4lEsrKysrKywjBMoVDg3woMw/CLp9FopnnZfVvakNkAAAAAAP2blZXVypUrzc3NDx8+vH79+piYmFmzZr3pyOt2SktLjx49evLkST6fv3bt2okTJ7LZ7A4fWV5eXlpa6ubmZvRTcAkEwoABA7hcbkFBQUNDg7W1tREHB933emmvWrXKwcHBuF/FsMbOy8vbtm1bVlbW8uXLhwwZsmfPnj179qhUqsjIyLf+IHVY2hYWFkqlUpvW+IJwbV0b8Lp0G3vy5MkcDgcfTfuA1tZWiUSCJzedTmcwGAwGo69ubO4cgUCg0Wi9uXl4N/VhaZvinx8AAAAAANAfgUCwsbGJiIiws7Pbv39/bGzspUuXZs+ePX78eFtb2w6TWK1WFxUVXbp06c8//ywsLBwxYkRMTExQUFAn25WXl5fX1dUNHDiww9u2u8nFxcXa2rqsrAwy2zS1K20CgbBy5UojlnZJSQm+r3iXGjs/Pz82NjYzM3P58uXh4eH4jOvmzZvj4uIQBOlqaf/2228ymWzq1KkMBqObaa3VrrG5XO7rfx91q1uhULS0tBCJRCqVymQymUxm7xw6/Q7rq9KGzAYAAAAAeBeYm5tPnTrVw8Pj4sWL58+f37Rp0549e3x9ff38/JycnCwtLSkUSmtra21tbVFR0aNHj/Cdgd3c3L766qtx48YJBILOT9+pra2VyWR8Pv9N093dYW1tzeVyy8vLm5ubjT44MArd0j59+jSCIMYqbbyxr1y5YkBj37p1C29sGxsbFEW9vb2/+eabLpU2giACgWDFihU///xzXFxcS0vL1KlTORxO91+XtrEjIiImTZrUYWO3o1ar8RRUKBRSqZRMJjMYDBaLRafTTfkWbhPXJ6UNmQ0AAAAA8I5gMpl+fn729vZTpkzJzs6+fv16VlZWSkoKiUSiUCgoiqrV6ra2No1GY21tHRgY+N577wUEBAgEAjMzs7cGgEwmIxAIPfTrPoVCYbFY+G2fRh8cGEtPlLa2sfHzse3t7fVv7Js3b+o2NoIgRCJRz9LWaDRyuVwikchkMqVSaWdnt2rVqt27dx8/fhzDsKlTp751x/LOGdDY7S4P33QNn9+mUChmZmZmZmamuZjc9PV+acOfEwAAAADAuwNFUR6PZ25u7ubmNnny5MbGxrq6uqqqqsbGRrVaTaFQeDyenZ2dpaWlubm5hYWF/kfvqNVq/ICinrhs/NAjfGepnhgfGAte2mvWrMEwrPulXVJSsmPHjitXroSHh0dHR+vf2Nu2bbt169ayZct0GxuHl/aGDRs2b968f/9+AoEQERGhW9pqtbqlpaWlpQU/jEp7BJerqyte2vHx8QiCdKe0nz59GhcXh68VN6CxdeHz2/hObM3NzSwWi81mUygUw0b7O8NLG8MwsVjcC6UNmQ0AAAAA8K5BUZTNZrPZbKFQqFKpFAqFUqnEMAxFUTKZTKVSDdgZmEKhaDQalUrVExeMIIhCoUBRFCbrTJ+x5rTxxv7rr7/Cw8OXLFmi/1rxbdu23bx5c+nSpREREe0aG0ckEn18fHTntPHSVqlULS0tYrEYD+x2910TiUQ3N7cPP/ywm6WNN3ZhYWEn92N3FYZh+BFiCoVCLBazWCwOh0OhUEzk9Kz+gkwm41vQ90Jpwz9kAAAAAADvMhKJZJR25XA4RCKxubm5ra3N6JNpYrG4paXFzMzMuEeFgR6Comg3S1u7VtyAxr5x40YnjY1rV9pqtXr27Nk0Gq3DwNZ9VjdLG2/skpKSyMjIiRMnGqWxtTAMU6lUKpWqra1NIpHgb6XBzHaX9Fppw530AAAAAADg7fDNz6qrqxsbG40+eGVlZUNDg42NTTdviAW9Rlva77333unTp/fu3VteXq7nc3u6sXF4aX/11VdeXl5xcXGHDh0qLy/Hl3V0/iy8tF1cXOLj45OTk5uamvR8XdrG7v5a8c6p1erW1taGhobKykqRSNRza0zeSXhps9nsHj3uGzIbAAAAAAC8nYuLi42NTUFBQVVVldEHz8/Pf/Xqlaura0+cFgZ6iGGl3W7PMz0bu6CgQLexbW1t37pNgEqlam5u5nA4MTExLi4uJ06cOH/+vEgkeuvXMqy08T3P8MaeOHEih8Pp6RXdKpWqtbW1rq6usrJSLBbDvgb664XShswGAAAAAABvZ2lp6eHhUVJSUlhYaNyRNRrNgwcP1Gq1q6srLBrvX7pa2u0a28HBQc/Gjo2N1b+xMQxraWmprq6ur69XKBRCofDDDz/08PA4ffr0hQsXeqK08cYuKyvrtcbG4cvIpVJpTU1NTU2NXC7v5kHffx89XdqQ2QAAAAAA4O2IROLQoUMZDEZmZmZFRYURR37x4sWDBw88PDw8PDxgS6d+p11p79u3702l/fo8tj4b13e1seVy+atXr2pqaiQSCb5EnEgkuri4dL+033So+5MnT/DGXrx4cW82thaGYW1tbc3NzfiZArCGXE89WtqQ2QAAAAAAQC8hISGDBw9OT0+/d++esVaoqtXqlJSUgoKCkSNHurm5GWVM0Mt0SzshIaHD0i4sLNy6dWtXG/vly5f6rxVXqVQNDQ3V1dXNzc0KhUL3R7RdaSclJRmrtJ88eRIXF9eHja2F37BdV1f36tUrmUwG09r66LnShswGAAAAAAB64XK506dPZ7FYf/75p7GWjmdlZSUnJ/v4+IwYMYJOpxtlTND7Oi/twsLCbdu2Xbt2rauNHRsbe/369ZiYmM4bW6PRiMXiqqqq+vr61tbWDneQ1i3thIQEA0r7+PHj7Upb29i9vFa8E/ihZa9evWpqauqF06HfAT1U2pDZAAAAAABALwQCYfjw4e+9996tW7cSExPr6+u7OWBRUdHvv/9eU1Mza9Ysb2/vPk8U0B1vKm28sVNTUyMjI7va2Onp6ZGRkZ03tkKhqK2tra2tlUgknRzWhRi7tE1nHrsdjUaDT2vD3dp66onShnOzAQAAAACAvszMzCIjI8vKyo4dO2Ztbb1gwQIWi2XYUA0NDQcOHLh582ZERMSUKVNgKvsdoHuedkJCAoIg48aNO378eGpqqgHz2Onp6VFRUVFRUXZ2dh0+C9/qrLGx8U0z2K/DS3vVqlV79uzBr3DmzJkWFhZvfZb2PO3jx48jCCIQCE6dOqVtbDabbSKNraVUKvHF8xYWFmZmZvp82//OjH6eNmQ2AAAAAADoAmdn548//njz5s2//PKLXC5fsGCBpaVlVwcpKSnZvXv36dOnZ86cGRYWZsAIwDRpSxvDsISEhDNnzigUiiVLlkRGRnbpfuy0tLTo6Ojo6Og3PUupVDY2NorF4ra2ti5N2BKJRFdXV8NKe+XKlbt27Tp27BiGYSQSCV8rboKNjcOntWtra9va2szNzUkkSL/OGLe04V0NAAAAAADQBUQiMSAgYO3atR4eHv/5z39++eWXoqIi/Z+OYVh2dvamTZvOnj07a9aslStXOjk5wVTbu0Rb2mPGjFEqldHR0VFRUfo39vbt2ztvbAzDJBJJdXW1SCRSKBQGLIrWlra7u3uXVo+7u7t/+OGHQqHQ9Bsbh29CLhKJampqFApFX1+OqSOTyZaWlkZZPQ5vaQAAAAAAgK6hUChDhgzZuHHjrl27EhMTHz58GBoaOnXqVHwuqBNFRUWJiYnnzp0Ti8VLlixZuHChQCCASbZ3D4qizs7O//rXv1asWCEQCKysrPRv7NTU1KioqDc1tkqlampqwpdDd+euY7y08XXg+s9pk0gkDw+PL7/8Ui6X29vbs1gsU25sLZVKJRaLVSoVj8djMpn94pr7CoVCwRfXdHNOG/5RAwAAAAAAXUalUn19fdevXx8QEHD8+PHNmzfHx8ePGjVqxIgRvr6+FhYW2kBSq9XV1dUPHz68fv16VlZWRUWFv7//F198MXr0aB6PB/PY7yoURZ2cnBwdHfWMOn0au7W1VSQSSSQStVrd/Z29DC5toVCIYVj/ilWNRiOVSlUqlYWFRQ+dFP3OMEppQ2YDAAAAAABDEIlER0fHhQsXBgcHp6WlJScnHzx48MiRI2w2m8fjmZubUyiU1tbWhoaGxsbG5uZmFEX9/f1jYmKCg4MdHR0ZDEZfvwLQ4/Rs0cLCQryxIyMjO2xsDMPEYjG+25mxzmxHDC1tRO/XZVIwDJPL5XV1dSqVCm7V7lz3Sxu+uQAAAAAAwEAEAoHL5QYEBAiFwmnTppWUlDx9+vT58+dVVVUVFRUajYZIJHI4HA8PD19fX19fX4FAwOfzYdkq0FVSUvLjjz92cuKXWq3G36np5kLxDhlc2v2UUqkUiURqtdrCwoJCofT15ZiubpY2ZDYAAAAAQP+Tn5+fnJycnZ0tk8ns7OzGjRs3evRo7X7dly9fPnv2rL29fWhoqKenZ4cjXLly5ezZsy4uLvPmzRMKhXl5ecnJyffu3cMHHD9+PL6oW5+LQVHU3Nzc3Nzc1dV12LBhLS0tcrlcqVRiGIaiKIVCodPpZmZmTCazF5aqVlVVHTp0KCcnp93HiUQik8l0cHAYO3ZsUFAQfg6ZRqM5ceJESkqKQCBYvHixj49Pu2c9e/bs2LFjr169WrJkyfDhw2GJu9GVlJRs37796tWrb2rstra2hoaGlpaWzs/E7o6/W2nj97erVCpLS0sajdbXl2O6ulPakNkAAAAAAP3MrVu3/vOf/2RmZjKZTDab/eTJk5SUlA8++GD58uVubm4IgtBotJcvX6ampvr4+HSY2XK5/OrVqydPnvzHP/7B4XBu3Ljx3//+9/bt2ywWy8zM7PHjxykpKXPnzl2+fLmrq6v+F0Ymk/HeNtpL7TqJRJKdnZ2SksJms3UTQi6Xy+VyMpl8+vTpZcuWLV682NramkAgeHh4HDly5NKlS3Q63dLS0traWvuUhoaG33///dixY/PmzbOzs4MZeKPDG/vKlSvh4eEdNrZUKhWJRFKp1ChHGXfi71baarW6paVFrVZbWVnR6XT42X4Tg0sbMhsAAAAAoD8pKys7cuRIenr63Llzw8LCuFxuWVnZf//738OHDwsEgpiYGCaTGRAQ4O7ufvv27cePH48dO/b1Sennz58/fvyYx+P5+vo2NzcfOXIkIyNj3rx5oaGhXC63tLQUH9DBwSE6OprJZPbJKzUMhmFKpZLBYHz++efjx4/Xflyj0dTW1p49e/bixYu7du1ydnaeNWsWiqJ+fn7z5s0rLi7+448/PDw85syZg6+kVSqVx48fP3PmjJ+f39y5cx0cHCBFjKu0tHTHjh1vamwMw5qbmxsbG+VyuRFvxu7E36208U3RNBqNtbU1g8GAH+83May0IbMBAAAAAPqT+/fv37lzZ9CgQfjeY/gJQ5WVlYWFhXfu3JkwYYK3tzeXyw0KCrp69eq9e/cKCwtfz+w7d+68ePEC3xX8/v37d+/eDQwMxAckEokeHh4VFRX4gOPHj/fy8uqTV9odZDLZ1dU1KChI94NKpdLb21sqlZ4/f/7u3bvBwcE2NjY0Gm3OnDnPnj07cuTIwYMHnZychg0bhiDI5cuXjx8/TqFQoqKihgwZQiaT++ilvJt014pHR0fb29vrNjZ+M3ZTU1NbW1sPLRTvkPY87T179pw+fZpMJk+bNo3L5fbaBfQyDMNaW1tramqsra1hx4ROGFDacHsJAAAAAEB/4urqunjx4mXLlvn5+eF7BVOpVD6fb2Zm1tTUJJFIEAQhEAjBwcHe3t45OTl5eXntQkUkEj148EAsFg8bNszZ2dnNzS08PHzZsmW+vr74vdPaARsbG/EB3w1kMtnZ2dnLy4vBYFRXV4vFYvzjPB4vJiYmJCQkKysrISGhtLT0yZMnf/zxR1FRUXh4+KRJk2BTdKPLzs6+efOmi4vL5MmTBQKB7k37SqWyvr5eJBL1cmPjiESim5vb2LFjMQy7efNmbW1tL19AL8O3H6+trZVIJL3/3e5H8NLW/yw0mM0GAAAAAOhPPD097ezsKBQKvokXgiBtbW35+fnV1dVBQUHaXdDc3d0DAgJu3br18OHDCRMm2Nraakd49OjRs2fPvL29/fz8aDSal5eXvb09lUrVLg7XDjhs2DDtgEYkFotfvHjx+PHjwsLC+vp6qVRKJBLZbLaNjY2np+fAgQOdnJyoVKrRvy7yv82f5HI5g8HQ3WbZ09NzyZIlFRUVJ06ccHBwePnyZUZGxuzZs+fOnavnPnCgS0JCQkaNGnX16tWkpCR7e3uBQIB/XKFQaDc866trKywsTEtLwzBszJgxNjY2fXUZvUZb2hiGsVgs2OfvTbo0pw2ZDQAAAADQn1CpVG2CVlVV5eXlpaenJyYm2tnZTZ482d7eXvuwYcOGpaSk3L9/v6CgQJvZGIbdvXs3Ly8vKioK31hbd8DKysr8/Py0tLTExESBQDB58mQ7OzsjXnx+fn5SUlJqamppaalUKqVSqVwul0KhYBgmk8mampoQBOFwOD4+PrNnzx43bpxxE1ckEp0+ffratWsUCsXf35/P52s/RSKRxo8fn5ubu2fPnp07d8pkMn9//8WLF7u6ukJ19AQ7O7svv/xSrVYnJiaiKLpixQqBQICfsi6RSHp6w7NO5Ofn79u3r6CgYOHChRMmTDAzM+urK+lNuqVtZmYGP/Nvon9pQ2YDAAAAAPRLUql03759J06cEIlEFAplxYoVwcHBujO0Q4cO9fX1TUpKev78+fDhw/EV5mVlZY8ePTIzMwsMDGw3Uy2RSPbu3Xvq1KmGhgYajRYWFjZs2DBjnaxbUVFx5syZc+fOlZeXC4XCefPmDRo0yNbWlkajEYlEDMNUKpVUKi0qKrpz505WVlZ2dnZgYGB4ePjo0aMNSJ2mpqadO3fiG1kh/7sHVSQSlZeXS6XSiIiI8ePHtzvKyMzMLDw8/OnTp2fOnOFwOKGhoUOHDoVbsnsIiqLOzs5r165FEAT/Y1q0aBGdTpfJZL2z4VmH8vLy4uLi8vLyFi5cOGXKFAsLi7/V7coKhaKurg5BECjtTuhZ2pDZAAAAAAD9kkaj8fX1DQsLq6yszMzMjI+PZzKZ4eHh2klaS0vLwMDAtLS0hw8fVlRUCIVCBEFycnKeP38eGBiovRNbC8MwPz8/FEUrKytv3bp1/PhxFou1aNEi3Vlfw9y6dWv37t1ZWVkeHh7/+te/hg4dam1tzeFw2jU8hmGDBg0aN25cVVVVRkbG2bNn161b9/777y9ZssTFxaVLX1GhUDx+/PjFixf4xuNqtVqtVjs5OY0ZM2bSpEmjR4+2t7d/vaCkUqlYLFapVGKxuLq6WiaT9a9d1vsXbWljGJaQkNDc3DxnzhzdA9V6WX5+/v79+/Py8kJDQ/+GjY2D0taHPqUNmQ0AAAAA0C8xGIxJkya99957crk8PT39//7v//bt2+fo6Dh37lz892MikRgSEuLp6Xnv3r38/HyhUNjW1padnV1ZWRkeHo6fsN1uwMmTJ48dO1Yul6empv7nP//Zu3evo6Pj+++/b/Av3G1tbRcuXNi9e3dzc/PKlSunTp0qFArftKcxgUBgMBgMBsPW1tbV1XX48OEHDx5MSEioqqr69NNP/f399b8Mc3PzL774Yty4cQiCSCSStLS0EydOSCQST0/PcePGdXgIdlNT0+HDh+/evevu7t7c3Hz8+HFfX99Zs2YZaz4fvA5FUaFQuGLFipaWlqSkJKVSOW/evO6/rWOA/Pz8uLi4Fy9ehIWFdbWx8UdqH49hWL/eSwxKWx9vLW3IbAAAAACAfolIJHI4HPz/z549+969ewcPHnz8+PH48eO1h/36+vr6+/sfPnz4+fPno0ePLigoePr0qVAoHDBgAJ1O72TA999/Pzs7+9ChQ/jJ24adHqzRaBITE3/99Vcqlfr5559PmTLF3Nxcn1/cURS1sLAYOnSonZ2h+G94AAAgAElEQVTd0aNHExMTt2/fvmbNmsDAQD2/NIVC8fT0DAkJQRBErVb7+/tbWFjs27fv2LFjTk5OH3zwQbtparVaffLkyTNnzgiFwk8//TQzM/PUqVP79+93cHDAz/cCPUGj0TQ3N3M4nKioKJVKdfnyZQRBer+08fux8XnsqVOnmpubd9jYKIqS//9IJJLuzzP+LI1Go1arlUql6n8UCoVKpepH7Q2lrY/OSxsyGwAAAACg38AwrLy8vKioSCgU4ovAcWw229bWlkql4jtIaauYwWAMHTr0r7/+ysnJKS0tzc7Ofv78+dSpU318fPAk0A7o7Ozs5OSkO6CdnR2NRhOJRFKp1LDMvnbt2v79+83NzT/88MOxY8d29RZrEonk5OS0cuVKKpV69OjRQ4cOcTgcV1fXrl4GkUjk8/kRERGlpaXHjx/ftWuXnZ3duHHjdFMqNTX1+PHjEonk448/njlzpq+vb3FxMR7bNjY2ut8ZYCwajaaxsbGxsVGpVAoEgqVLlyII0vul3XljEwgECoVCp9PpdDqVSiUSiSiKEggE/H9xr4+JYZhGo8GntTUajUajaWtrk8vlra2tcrm8Dzd40x+Utj46KW34lgEAAAAA9BsEAuHMmTOrV68+c+ZMc3Oz9uMqlaqxsVEmk5mZmbWbpg4ODvbx8Xn48OGjR48ePXqkUqkCAwO1xxQRCISEhITVq1efPXu2wwFZLNbr8976ePr06e+//y6TyaKiosaPH2/Yjs0EAsHKyioqKmrq1KnXrl1LTEysr683YBwEQaytraOjowcPHvzo0aOTJ0++fPlS+6mCgoJDhw49fPhw7ty5M2fO5HK5AwYMiIiIcHR0jI+PT0lJeZcODzcRarVaJBJpD8cmEAh4aQ8ePPjy5cunT5+uqanphcvIy8vDGzssLGzatGnateIoirJYLGtrawcHB4FAYG1tzeVymUwmjUajUChkMlnb2x0OSyAQiEQiiUQik8lUKpVOp7PZbB6PZ2tr6+joaGdnp//xy30IL+2WlpY+3JTO9L3pPG3IbAAAAACA/oTNZkul0nPnzuXk5Gg/mJGRcfv2bQ6H4+npaW5urvt4Ozu7wMBAsViclJT06NGjAQMG+Pn54buO4zgcjkQiOXv27MOHD7UfTE9Pz8rK4nK5Xl5eXC63qxepVCovXLjw5MmTBQsWTJkypZsbiVlZWa1YsSIwMDAhISErK8uwX/oJBMKAAQPmz58vEAjOnz9/7do1PJ7FYvEff/xx5cqVkJCQ0NBQR0dHfAJzxowZs2bNUqvV+/fvN/iLgg7hjY3PY2uXUvd+aT979mzv3r14Y+Pz2CiKUqlUHo8nEAhsbGwsLCxYLBaNRiOTyd2c0SUQCCQSiUqlMhgMDofD5/MFAgGPx6NSqaa80RqUtj46LG1YNA4AAAAA0J9MmDAhMzPz3LlzP/zww5MnTwQCQUFBwZ9//pmbmxsaGvree+/pJjSCICQSKTg4+NKlS8nJyQQC4fPPP/f09NR9wMSJEzMzMy9cuLBly5ZHjx4JBIL8/Pw///zz2bNnCxcuHDVqVLsB9XH37t3U1NSBAwdOmjTJgEpvh0AgCIXCsLCwrVu3pqSk+Pn56S6Y1x+FQpk9e3ZOTs6xY8eOHTvm4+MzcuTI06dPJyYmcrnciIiIwMBA7YvlcrnR0dEFBQWXL18+fPiwnZ0dfsw46Ca1Wt3Q0NDU1KRUKtt9SlvaSM+vHs/Nzd2/f//Lly/xxra0tGQymfjaDXyyuufqF0VRfEqcRqNxOByZTNbS0tLa2mqaKQurx/Xx+upxyGwAAAAAgP7E3t5+9erVTCYzKSlp+/btdDpdKpWy2eyVK1eGh4c7Ojq+/pSBAwf6+fllZWV5eXn5+/uzWCzdzwoEgs8++4zFYl28eHHHjh00Gg0fcNWqVW8asHNKpTIlJaW+vj4qKur1/cwNg6LoqFGjhgwZcuPGjUmTJhmW2QiCWFlZhYeHP3v2LDs7++zZs0VFRceOHXv16tXnn38+ceJEBoOh+2BXV9eYmJjS0tKLFy96e3tbWVlZWVkZ4cX8jalUqoaGhubm5tcbG9c7pa3b2NOnT3d0dORwODQard2WZj0Kn98mkUgUCoXFYrW2tjY1NZlmbENp66NdaUNmAwAAAAD0J0Qi0dvbe+3atXPnzi0pKWlpabGwsBAKhS4uLjwer8OZZzMzs3/+85+LFi1isVhOTk7tpumIRKKPj8+6devmzZtXXFyM76DW+YCde/HiRU5OzoABA4KCgqhUquEv9f+PzWaPGTMmMzPzwYMHI0aMeNOubI6Ojjt27JBIJB0etU0gEAYPHrx7926RSGRtbU2n0wMCAhQKhVAoxH9F1kUkEkePHn3w4MGmpiZ7e3vtNuzAMHhjNzU1qVSqTh7WrrRVKtWCBQtsbW2NdRnPnj3DG3vRokXz588XCoX4DHZfLd4mEolEIpFMJtPpdIlE0tjYiN+v3icX8yZQ2vrQLW3IbAAAAACAfoZEItnb29vY2AwePFilUlEoFCqV2snvvvii605mgHUHVKvV+L5NBv8y/eTJk6qqqokTJzo7Oxs2wpsMHTrUycnp8ePHFRUVb8psOp3e+epuGo2m+wAHB4dOHsxkMv38/Ay7WqALvx+7ubm588bG6Zb2lStXEAQxVmk/e/YsLi6usLBw+fLlYWFhdnZ2FArFFO6Oxm8LJ5FIDAajqalJLBbr843qTVDa+tCWNmQ2AAAAAEC/RCQSu7m1WA8NmJ+fTyKRhEIhjUbr/mi6+Hy+q6vr9evXq6qq/P39jTs46DkajUYkEnV4P/ab9ERp441dVFT0ySefhIaG8vl8U9vum0gk0ul0EonEZDJFIpFMJjOpaW0obX3gpQ2ZDQAAAAAAjEYul1dXV3O53J64jZlEIjk6OspkMpFIZPTBQQ8xoLFxxi1tvLGLi4s//fTTsLAwa2trU5jE7hC+BxuFQmlqatJz/r/XQGnrg0KhQGYDAAAAAACjwde78ng8NpvdE+NbWVkRCAS8PQy4bxz0MgzDmpqaDGhsnLFKG78fu6SkBG9s/KfIgOvpNSiK0mg0S0tLGo3W0NCgUChMZ1obSlsf8G9Tb1Cr1Y2NjYWFhdXV1Z6eng4ODu12+AQAAAAAeDe0tra2tbVxuVwjbn6mi8lkksnk1tZWpVIJmW3iMAxrbGwUiUTd2dMLL+2YmBjkf6UdGhpqY2Oj/wh5eXkHDx4sKytbvXr1/PnzTb+xtUgkEpvNJpPJDQ0NUqnUdDYhh9J+K/i3qWc1NTWlpqZevHjxxYsXLS0tcrmcxWJZWVkNHTp01qxZQ4YM6S9/yQEAAADQTymVysbGxubmZnxvM3Nzcw6HY2q3pHZVN2f2Wltb8W7BMIxOp/N4PCaTCb+VGReGYc3Nze32zVar1U1NTVKpFF+MwOFwWCzWW38aCQSCg4ODAaVNIBAKCwsPHjxYWlr66aefzp8/39LSsn/9QaMoymAwSCSSSCQyqX3RoLQ7B5ndU1QqVW5u7i+//HLz5s2amprW1lb8DVcMwzQazYMHD65cuTJnzpxVq1aZm5v39cUCAAAA4J2i0WiKiooyMzPv3r1bUFCAL9nFMAxFUQqFYmVl5eXlFRwcHBISYmNjY9zqoFKp+GxzW1ubEYfVwkfGT2Dq0hMVCsXTp09v3ryZk5NTVlYmkUjUajWGYfimU/b29n5+fqNGjRo0aFAPLXf/W8EwTCwWi0QihUKh0WgqKioePHjw5MmTsrIyvBUxDCMQCPj7Ps7Ozv7+/oMGDeLxeG8KNgNKm0wmFxcX79+/H9/zrD82No5AIFCpVEtLSzKZLBKJDFt+3xOgtDsBmd0jVCrVvXv3NmzYcPfuXSaTGRYWNn78ePy4CIVCkZube/HixRs3blRVVdXW1v7rX//qiT1CAAAAAPA3pNFonj59euLEiYyMjJqaGiaT6eDgMGjQIAsLCzKZLJfL6+vry8vLk5KSzp075+joOG3atLlz5zo6OhorP8zNzc3MzMrLy1taWowyYDv19fUIgrDZbP0n5BUKxY0bN+Lj4+/fvy+RSHg8noODg5+fH5fLJRAIUqm0pqampKTk/v37x48f9/HxWbBgwYQJE950YBjQR0tLi0gkksvl+fn5ycnJ2dnZdXV1DAbDxsbGy8uLw+GQyeS2tjaRSFRTU5ORkZGWlmZtbT1mzJjJkye/6a2fLpU2g8EoLi7es2dPYWFhv25sLfwtCSKRiN+q3deX8/+C0n4TyOweUVBQsG3btqysLG9v7zVr1gQHB1tZWdHpdARBNBrN4MGDR48eff78+d9+++3kyZNmZmZff/11D92/BAAAAIC/j7KyspMnT164cKGurm7QoEErV6708vLicrl0Op1CoaAoqlar29rapFJpQ0PDw4cPL168uHfv3itXrixatGjatGk8Hq/710Cj0WxsbB4/foz/8m10paWlVCrVwsJCz2S6f//+4cOH09LSiETimDFjxo0b5+TkZGZmRqPR8PlwtVotl8slEkl1dXVmZmZycvK3336blJS0ZMmSkJAQ/Pc30CVSqbSxsbGsrOzixYupqan19fW+vr7z588XCoVsNhv/zhMIBI3m/2HvvuOiOtM+4M+Z3vsMbei9VxFUsMWCRo09MYk1GjdrNpvdzSbZ53k+ye7n2U022eymG2tibzE27IBBEFSUqoIUqdJhhun1nPeP8z68vhYE5gwzwPX9K9HxnpthGM7v3Nd93ajFYjEYDGq1urKy8tdffz127Ni1a9fmz58/derUp9Z7DiZpk8lkoVBYW1v77bff1tTUvPXWW2MgY+MoFAp+g6m7u9toNLpIUzRI2k8FMZt4PT09Z8+ezcnJCQwM/Pjjj6dPn85ms/v/lkwmCwSCqKgoiURCp9M/+eSTM2fOpKamZmRkOHHOAAAAABjtiouLv//++7y8vOjo6C1btiQlJbm7u7PZ7KemCxRFo6OjZ8yYcfXq1WPHjn366afV1dXr16/39/e3cxoIggQFBWVmZjY1NZlMJmIXEtrb2+vr6z09PQfTa9pqtWZmZv7www/Nzc0zZsxYtGhReHi4VCp91pTCw8Pj4+PnzZt39uzZM2fOvPfee+vXr1++fLlcLifwSxjzTCZTb29vSUnJvn37bt++HRISsmrVqoiICJlMxmQyn/puxDAsKCgoJSXl1q1b58+f37VrV1VV1SuvvPLUIouBkzaNRhOLxdXV1V999VV1dfVYytg4CoXC5XLJZHJXV5fBYICk7bIgZhOvubn56NGjHA5nxYoVj2XsfhQKxdPTc9GiReXl5adPnz527Njs2bNHezMSAAAAADgFhmFZWVnffPNNQ0PDa6+9tnTpUj8/v6degfTD7/vz+XwvL6+kpKRdu3YdP368ra3t7bffjo2NtXM+sbGx7u7u+Bbo4OBgO0d71O3bt+vq6jIyMnx9fQd+pMFg2L9///bt2zkczp///OeZM2fK5XI6nT7AP6FSqTKZTCwW+/n5TZo0afv27d99951KpVq7dq2XlxeBX8UYZrFYent7c3Jy9u7dW19fv2jRohkzZigUCiaTOcC/QhCEy+XifYKjo6NPnTp17do1pVK5YcOG4ODgwSdtJpMpkUju37//73//u6qq6re//e3y5cslEsmYydg4MpmMd+zr6urS6/WQtF0TvAQEM5lMNTU1FRUV3t7ey5YtG+A3HJlM9vf3f+mll1AUraysrKmpGcl5AgAAAGDMKCgo+Pbbb7u6urZs2bJp06awsLCBM3Y/BEEEAkF8fPz777+/YsWKmzdvbtu27f79+3bOJzQ0NDY29tatW8XFxTabzc7R+hkMhtzcXKvVGhMTIxAIBnikzWY7duzYDz/8oFAoPvjggyVLligUioEzdj8KhSKXy6dNm/bRRx+lpKQcPHjw+PHjvb29BH0RYxl+hG1BQcGePXs6OjpWr169dOnSgICAgTP2o7hcbmho6Lp16xYuXFhdXX3gwIHGxsanPrI/aScmJl6+fPnIkSNardbNze3+/fuff/55VVUVvo499jI2DkEQNpstl8ufVa7iFHjS1mg0rnPwmBNBzCaYVqutq6sjkUiBgYEBAQEDP5jJZPr7+wcFBalUKojZAAAAABiGmpqa3bt3Nzc3r127dsWKFW5ubkNdSqJQKL6+vps3b160aBHeKqytrc2eKbFYrIyMDLFYfPHixdraWnuGelReXl5+fn5ycnJ8fPzANYBZWVm7d+/28PB46623pk6dyuPxhvpcDAYjMjLyT3/6U3R09O7duy9cuKDX6+2Y+9iHYZhKpaqsrDxw4EBzc/OyZcvmzJkjFouH+m5EEEQuly9duvSFF14oLS09e/ZsZ2fnsx7p7e29YcMGPGkfP3784sWL/Rl7xYoVYzVj4xAEYbFYePsn1/kyIWn3g5hNMJPJ1N3dzWAw5HL5YM6ZYLPZHh4eRqPxWZ8gAAAAAADPotVqDx48eOPGjRUrVixZskQoFA5vHARB3N3d33jjjcmTJx8/fvzSpUtGo9GeiSUlJaWnp9+6dSsnJ0er1dozFA7flGexWGbNmoWf3vIs1dXVe/futVgsa9eunTx58rB7mFEolNDQ0N/97ndubm47duy4deuWi1Tnuia1Wt3V1XXkyJGSkpKFCxfOnDmTz+cPO/6JRKJly5bFx8dfunTp+vXrBoPhqQ9DEMTPz+/999+fNm3aqVOnPvjgA7xWfMxnbFz/mrYLJm2tVjvOkzbEbIIhCILfXh3kGwvDMKvViiAIfqo2AAAAAMDg5efnX7p0adKkScuWLZNKpXaOhq8Nent7//zzz+Xl5fYMxeFwli1bFhQU9NNPP+Xk5Nh50m9fX9/u3bvz8vIWLFiQlpY2wEoGiqJnz54tLS1dvHjxCy+8MMji+WehUCiJiYmvv/66RqPJzMx8+PChPaONYXhr8cLCwoKCgqSkpBkzZjy1T/iQyOXyVatWyWSyzMzM+vr6pz6GRqPJZLLY2Ni//OUv06dPF4vFb7/99hiuFX8SnrQHaOznFCaTqbOzc5wnbYh2BGMymVKp1GAwtLa2Wq3W54ZnvV7f3NzMZDLh6GwAAAAADElPT8+FCxesVuucOXP8/PzszxVkMjkmJmbevHk7duwoKCiIjIzkcDjDHi00NHTTpk3//Oc/v/nmGx6Pl5aWNrxFBZ1Ot3fv3qNHj86YMWPlypUD300oLy/Pzs4ODw+fMWPGwPu3B4nBYMybN+/atWs5OTnTpk3z8vIiNr/dunXr6NGjz4qR/TZs2DBt2rRjx45lZ2d7e3u/9tproaGhjz3m7t27Bw4c6O7uXr9+fXJy8oi1oTIajb29vb29vVlZWSaTKT09nZBXCUGQgICAmTNn4ivk3t7ejxX/0+l0qVTK4/GoVGpgYOBf/vIXtVqtUCgEAsE4ydg4BEE4HI5MJuvs7HSp87TxWl28L7qzp+MEELMJxuVyw8LCqFRqY2NjeXl5QkLCAA/W6XRVVVVNTU2JiYlRUVEjNkkAAAAAjAFFRUVFRUVTpkyZNGkSUWVxDAZj9uzZ2dnZeXl506ZNi4uLG/ZQdDo9LS2tq6vru++++/jjj999993Zs2cPdXm5o6Nj586d+/bti4uLW7t2bUBAwMCX7Dk5OU1NTVu2bAkPDycqa4nF4jlz5ty+ffv69etJSUnEnu/V3t6em5tbVlY28MNmzJgxderUkJCQvXv3njt3jsvlrl+//tFFmp6enp07dx45cgTvuT1iORNvLa7T6UpLS+/cuZOcnBwRETGYjZODQaVSp0+fnpeXV1hYmJSU9OidBRaLJZFIuFwuXkZKJpN9fHwIedLRiEwmc7lcq9Xa3d1tZ+UIgcZ50oaYTTAajebn55ecnFxeXn7o0KGoqKhntbXEMKy+vv7gwYNMJjMxMdHT03OEpwoAAACA0QtF0aKiIqPROGHCBGKDn7+/f0JCwi+//HL//n17YjaJROJwOAsWLGAymd9///3f/va3+vr6lStXDvKaB8OwkpKS7du35+TkpKenb9q0KSYmZuD81t7eXlxc7OPjExcXN+wt2U81efLkoKCgoqKihoYGYl/t1NTUrVu39m9fb2xs/Oabbx48ePDHP/5x8uTJ/Q8LCgpiMBixsbFLly5taGjYvXt3SEjI/Pnz8etMi8Wyb9++kydPxsTELFmyhPAl92dBUVSlUmm1WpvNdvv2baPRGB8fb//mhUfJ5fKYmJjz588/fPgwODgYT2scDkcikXA4nHEY3p4FP6LPbDarVCoC2/vbaTwnbYjZxPP19X3llVeKiopOnz4dFBS0YcOGp95gbmpq2rZt27Vr10JCQlatWgV7swEAAAAweO3t7TU1Nd7e3sHBwQO33R4qGo0WGxubmZlZW1urVqv5fL49owmFwoyMDIlEsnXr1h9++OHq1auLFy+ePXu2m5vbs6KgzWarqqo6efLk+fPne3t7V6xY8eqrrwYGBj73RK779+83NDRMnTrV39/fnjk/SSKRREVFHT16tLm5OTk5mdiRJRJJ//9WVlYKhUI6nR4ZGZmenv7Yg5lM5tKlS+/du3fo0KFdu3b5+PgkJiaSSKRz584dOnSIxWKtXbs2MTGRqMXk59JqtWq12mKx6HS6Bw8euLu7e3l5EXtNSyaTo6Ojc3JyHjx4kJiYKBAIuFyuRCJhs9njLbY9F4VCEYvFFovFpTZFj9ukDdGOeDweb9asWWvWrNm1a9eXX37Z2dm5Zs2aR+tYjEZjcXHx1q1bz58/L5FI3njjDTtvFQMAAABgvGlqampra4uJiVEoFIQPHhIS4u7uXl9f39XVZWfMJpFIXC538uTJnp6emZmZJ06c+Pvf/75nz574+PiEhITg4GA3Nzcej2ez2VQq1cOHD+/du3fz5s27d+8qlcrY2Nh33nknLS1NJpMN5lZCXV2dTqcLDAwUi8V2zvkxZDI5LCyMQqG0tLTo9Xo7O6vZQyaTvfHGG3V1ddeuXTt27Jibm1tvb++ePXsaGhreffdd+7u+DZ7BYFCpVPhm4IcPH/b09ISHhxP+ypNIpODgYKFQWF9fr1KpFAoFnrHH1e7rwaPT6RKJxGq1utT5c+MzaUPMJh6CIAqFYvPmzWaz+eDBg99++212dnZ8fLynp6fBYKDRaFVVVSUlJY2NjWKx+J133lm5ciWTyXT2rAEAAAAwmrS3t6tUKg8PD0cEGy8vL4lE0t7e3tvbGxgYaP+ADAYjNDRULpdPnz69oKDgypUr586dO3nyJJvNZjAYVCoVwzCLxWIwGIxGo0gkwrtVx8fHKxSKwefGtrY2Go0mlUqJXd7HKRQKPp/f1tamVqudGLNJJFJ4ePi6detaWloOHjzo7e197969vLy8JUuWLFmyxBFvhqeyWq0qlUqv1+OHnHV0dGi1Wg8Pj2EcUf5cEolEKBR2d3dTKBSpVOpSh1e5IBaLJRQKrVar2Wx29lz+P+MwaUPMdggajRYWFvbee+/hnSry8/PLysqYTCaKogiCaLVaMpmclpa2YcOGqVOnjtgHIgAAAADGDLVajaIoj8dzRIUwh8Ph8XgPHjzQ6XREjYkgiFgsFgqFgYGBc+fO7ezsbGxsbGho6OzsNBgMZDKZx+N5eHgEBgZ6eXnJZDKZTMZkMocUqPr6+hgMhoMysEgkYrPZfX19zzrDecTQaLTZs2ffuXNnx44d//rXv7RabVxc3KpVq/z9/UcswPT19Wk0mv49wBqNxmQyCQQCRywdUSgUPp/f09PDZDIhYz8XgiB8Pt9gMFitVtcpHSeNv6QNMdtRaDRaYGDghg0b0tPTS0tLb9y4ce/evfb29tDQ0Li4uOTk5Ojo6CHdoAUAAAAA6Gc2m8lk8nO3Kw8PmUxmMBgoilqtVsJHFgqFQqEwKCgoISFBr9ebTCY8rdFoNCaTyWazh/1FmUwmCoXioJ3JLBaLRqMZjUZX6OTM5/PXrFlTUVGRmZkpFApffvnlpKSkEduSrdFo+vr6Hn1vmM1mFEXpdLoj6gjwo6H7/5vw8cceCoUiEolMJpNLlY6TxlnShpjtQHgfggkTJkRERMydO1ej0RiNRh6PJxAIhEIhFIoDAAAAYNgoFAqGYY5rKWyz2RAEcdylMIIgLBaL2H7gePG5g1bw8LVBKpXqiCQ5DDqdTqvVWq3Wvr6+jo4Oo9FozyHng4f3sjYajXi5OI5CoSAIYrPZUBQl9j2Dr83SaDQqlTrmgxmBmEwmn8+3WCyucFfoUeMnaUPMdji8CMoRO1UAAAAAMG5xOBwMwwwGA+HBhkQiGY1GnU7HYDBG16oAh8Mxm80OKupWq9UGg4HL5TIYDEeMPyRKpXLPnj23b98OCQnp7e3dt29fZGRkRkaGg6ob+qEoqlQqdTrdoxmbRCJxOBwajabVai0WC7GvD4/HE4vFBoOBwWC4wis/WuC3J/AbMY99s5xunCTtMfuFAQAAAACMYVKplMPhdHV1aTQawgfv6upSKpVSqVQgEBA+uOPIZDKDwdDX1+eIwdvb29VqtVwud/raic1mO3z48MmTJwMCAv7rv/7rxRdf7Ojo2LFjx507dxz91H19fWq1+skaCrz7d3d3N4Gb+UkkEpfLFYvFJpNJqVTiB2UTOPiYR6PReDyea54ZjCdtlzp4jHAQswEAAAAARh8fHx+5XF5fX9/W1kb44PX19e3t7b6+vnK5nPDBHcfPz49Opzc3Nzvi1kNtba3RaFQoFFwul/DBhyQrK+vgwYM6nW7NmjUvvvjim2++GR8fn5eXhx/r7bjnNRgM+CnZT/6VQqEQCASNjY0qlYqop+NwOBKJhMVi1dXVdXd3O+KctjGPx+MxGAzX3NA+5pM2xGwAAAAAgNFHoVD4+vrW1dU1NDQQPvidO3dUKlVgYKBIJCJ8cMcJDw93d3cvLy9vaWkhdmSj0Xjnzh0ej+fl5eXcvdnV1dU//vhjWVnZihUr5s+fLxAIYjH2uB8AACAASURBVGNjV69e7enpuX///qysLK1W64jnRVEU77L+1ApkoVDo7e3d2NiIFwPbj81m4yvkZDL51q1bSqUyIiICYvZQ0Wg0DofjIt0EnjS2kzbEbAAAAACA0YfJZMbGxhqNxrKyMmIXb7u6uoqLi6VSaXBwsGtWnD6Lj49PRETE3bt3q6qqiL1wLysrq6ysjImJ8ff3J3DYoerr69u9e3d2dvaUKVNWrFihUCgQBGEwGAsWLHjxxRdNJtP27dtv3brliNCi0Wh0Ot2zWu5RKJTo6Gir1VpZWalWq+18LhaLhZeIk8lkjUZTWFgolUoDAgIcvfN8TMK3zTt7Fs80hpP2aProBAAAAAAA/aZMmXL+/PmsrKzJkydPmTKFqGHz8/NLS0tnz54dERFB1JhNTU0HDx4sKSnp/xMymUyj0YRCYXBwcHp6elhYmP0Nruh0+vTp0/Pz87Ozs+Pi4oiKxFar9eLFi11dXevWrfPy8iJkzGFAUfTo0aMnTpwQi8WrV6+Oi4vrvwkiFovXr19fXV2dk5Ozd+9eDw+P0NBQAp/abDar1WqTyTTAY5KTk7OysnJzcxMSEmJjY4f9XHQ6XSwW9zfHys3NLS8vnzdvXkBAgGsWP7s4JpNJp9Mf6wzvUsZqRzSI2QAAAAAAo5KPj88LL7zw3XffXblyhaiS2ubm5rNnzzIYjMmTJxNYo6tWqwsLCy9duvToH+JJm8vl7t+/f9WqVStXrnR3d7fziVJTU1NSUrKystLT0729vQlZjS8oKMjJyYmLi0tMTHTiguqvv/564MCBrq6uP/zhDzNmzOg/ShoXHBy8YcOG5ubmU6dORURESCQSqVRK1FP39fXp9fqBc5pEIpk2bdrevXsLCwu9vb2H9+bBT8Pl8Xh43Orq6vr555+pVGp6erpMJhvm7Mc3/NRxvV7vaid7PWpMJm2I2QAAAAAAoxKVSp0zZ05+fv6JEyfCwsIWLVpkZwjU6XSHDx/Oz89/5ZVXJk6cSOCWTgzDLBYLj8fbsmXL1KlT8T8xmUzt7e2XLl3Kzs7+97//jWHY66+/LpFI7HkiPp//0ksvFRcX79u3z9/ff8KECXbOvLGxce/evSqVavPmzYGBgXaO9ly+vr7/+te/dDpdSEjIY38VHR39r3/9y2QyBQYGPhmhqVTq9OnTfX19VSqVt7c3n88nakr4Ad3PPaGdTCanpaVdv3798uXLgYGB6enpQy1PIJPJIpGIz+fjbzyTyfTTTz/l5+evWbMmPj5+dO1fcCkMBoNCobhyzCaNxaQN71cAAAAAgNHKw8Nj9erVn3zyydatW8Vi8fTp04d9hWqz2X755ZeDBw8mJSUtXrzYEe2mGAxGeHg4HrPxZzSZTOnp6f7+/j/99NOePXvCwsLmzJljZ21wQkLC8uXLd+zYsXv3boFA8GReHby+vr4ff/wxPz9/1apV06dPH4FTxNlsdkxMzFP/SiaTDbyiy+Px7KnWfiqbzdbX1zfIkmORSLR8+fJvvvlm//79QqEwISFh8Hdq8HOehUIhHqcxDDt27NiBAwdSUlIWLlxo582XcY5Op4+K4DrGkvao/wIAAAAAAMYtCoUyceLENWvW6PX6L7/8Mj8/32q1DmMck8l0/Pjx77//3svLa/369WFhYSNwmUuhUNhstr+//8aNG6dOnVpbW1tQUNDd3W3nsGw2e9myZfPnz8/Ly9u6dWttbe3wxunu7t66deuRI0dmzZr18ssvj8+iZbVardPpBtmeCkGQyMjIlStXGo3G3bt3l5WVDf7dyOFwRCIRnU5HEMRqtR4/fvy7775zd3dft25dWFiYy/bKHhWoVCqFQhkVO9vHUkc0iNkAAAAAAKMYm82eP3/+2rVr29vbP/roozNnzuj1+iGNoFQqt2/f/sknn3C53E2bNqWkpIzwDmRvb+9JkyZJpVKizuKSyWQbNmyYPXv2pUuX/vrXvxYVFT235vkxdXV1n3766e7du1NTU9evXx8QEDAGlteGymg0Puug7GdhMBhpaWkrVqzo6en58ssvc3NzDQbDc/8Vk8kUi8VMJhNBEI1G88MPP/zjH/9gMplvvfVWSkqK/b3xxjkEQahU6qiI2aQxlLShaBwAAAAAYHQTCoUrVqwQiUTbtm37+OOPy8vLX3nllaCgoOcmQ5vNdvv27T179mRlZcXHx2/cuHHixImP9dYaAWQyOTAwUC6XNzc327+ajfPx8fn9738vl8uPHDny3nvvrV69+sUXX5TL5c/9hzqd7vLly3v37r179+6iRYvWrFkTEhIyDjcGYxg2wEHZA+BwOLNmzeLz+QcOHPjuu+8qKysXLFjg7e39rHcjlUoViUT4u+7WrVs//fTTxYsXExISNm7cmJKSwuFwCPhixj0ymTxaYjZprFSPj7uPDAAAAACAsUcsFs+fP9/NzW337t2HDh26cuXKjBkz5s2bFxER8dTYrFKpbt++fe7cuby8PL1ev2jRoldeeSU8PHwEth8/lVAo5HA4TU1NQ12KfxYymezj47NhwwYfH58ff/zxs88+O3PmzJw5c1544QVfX98nTxLGMKy1tTU/P//s2bNFRUVCoXDLli0LFy708vIahxmbRCIZDAa9Xj/UKgAcn8+fMmWKWCw+fvz4hQsXioqKUlJSpkyZEhQUxGKxHn0kgiACgQDDsKtXr2ZmZubn56vV6pdeeumVV16JiIhw1rtx7BlFGRs3BpL2ePzUAAAAAAAYe7hcbmpqqo+Pz9WrV0+cOLF///7jx4/7+PgEBQX5+vqKxWIqlWoymbq7ux88eFBbW/vw4UMMw1JSUhYtWpScnCyXy52YJxEEwTflDi/XPYtMJluwYEFERMTFixfPnDnzxRdf7Nq1KyAgIDg4WKFQ4FfwOp2uvb29pqbmwYMHHR0deK/yjIyM6OhogUDgCpf4KIoajUaLxUKlUplM5ghsVMYwTKPRDHxQ9sBYLFZMTIybm9vt27ezs7MzMzMvX77s5ubm5+fn6ekpEAjw3tdarbarq6uxsbG1tdVqtaakpLz00kvJyclubm7j8+6Gg4y6mE0a/Ukb3r4AAAAAAGMEg8EICAiQyWSpqalVVVU3btwoLS3NysrSarUkEglBEBRFyWSyUCj08/N7/fXXk5KSgoOD3d3dnb5saDAYTCYTk8mk0+nt7e1nz56tqqrq/1svL6958+YNr2c4j8eLiYnx9vaeO3duWVnZ9evX7927V1paajKZ8Gt3m81Gp9OlUmlISMhrr70WGxvr7+8vkUieXPEeSVqttqys7MaNG1VVVc3NzfhWVQRBOByOp6dneHj4hAkT4uPjhUKhI55dr9cPeym7H41GUygUYrE4Nja2oaGhrKysqqrq+vXrOp0Ov6uCoiheMe7v779q1ark5OSgoCAPDw+nvxvHnlG6z3lUJ22I2QAAAAAAYwqPxwsNDfXz80tJSent7dX8H6vVymAweDwej8fj8/lisVggELjImmFra6tSqXRzcxMIBL29vRcvXszKyur/2+jo6NjY2GEfzUUmkyUSiUQiCQoKmj59ukql0mq1+GuCYRibzcZfE4FAIJFInH5B393dffbs2dOnT1dXVxsMBpFI5O7u7ufnx2QyzWazUqmsrKzMz8/fs2ePv7//ggULFi5c6O7uTuBypf1L2Y9is9l+fn5eXl7R0dF9fX16vV6r1eIZ3s3Nzd3dvf/d2H+aFyCczWaDpD3C4K0MAAAAADAGMRgMNzc3Nzc3EomEoqjVasUwjEwmu2DPYYvFcvfu3YcPH6ampnp4eIhEotdffz09Pb3/AVKpNDAw0P4n4nA4HA7H29ubRCLZbDb8uCkKheIixx3p9fpLly4dOnSopKTE3d19yZIlEyZM8PT05HA4dDqdQqGgKGoymQwGQ0dHR1FR0eXLl//zn/+cP39+1apVs2bNEolERE3D/qXsx9BoNPxOB4lEQlEURVE+ny+Tydhs9ujKTqMRhmE2m22orexcxyhN2hCzAQAAAADGODKZPMJndA1JYWFhQUEBmUxOTExUKBQ0Gm3GjBmPHrlMoVAILyTG0zWxY9qjq6trx44dR48epVKpq1evnj17tp+fn0gkemrtutVqTUxMXLBgQW5u7s8///y3v/2toqJiw4YNfn5+dk6D2KXspyKTySwWSyqVcjgcV7i7MeYR3vJg5I3GpA0xGwAAAAAAOIdKpcrPz9++ffvt27fnzp07efJkPE6Pt2Ocampqvvvuu3Pnzk2dOvXll1+OiYkRi8UD3AWgUqlSqVQikfj4+KSkpOzYseP48ePt7e2/+93voqKi7MmuOp1Or9c7tMAY7y7OYrEgY48Mk8k02mM2aRQmbYjZAAAAAABgJPT09Hz55ZfHjx8nkUgYhhmNRpVK1dHR0drampKSsmnTpmHvvh7VWlpavvnmm8uXLy9dunT16tWBgYGDLD1AEEQkEiUmJspksp9++unEiRNff/31H//4x7CwsOHNBEVRRy9lk0gkDofD5XJhG/aIMRqNYyBmk0Zb0ob3NwAAAAAAGAlGo7GoqKi4uBj/XwqFIhAI8P7ec+fOHZ/nJKvV6p07d164cGH58uVvvPGGj4/PUEvZKRSKn5/fb37zGwRBfvnll/3792/evFmhUAxjMnq93mAwOHQpm0qlCgQCBoPhuKcAj8IwzGQyjdL+Z08aRUkbYjYAAAAAAHCsgICATz/99M9//vOjf4jvGOfxeG5ubuO2y/SxY8d++eWXWbNmrV692tfXd3jJAUEQd3f3jRs3dnZ2njx50s/Pb+XKlTweb6jj6HQ6s9k8jAkMhsVi0el0eHN7Fw9IY4nJZDKbzWMmZpNGT9Iejx9nAAAAAABgJHE4nJiYGGfPwuVUVVVlZmZ6e3uvXLkyICDAzszg6en51ltvNTY2Hjx4MDIyMjU1dUj/3Gg02lNdfOTIkeLi4nnz5k2cOPHRqgSz2Xzr1q38/Py6ujqdTocflB0TE7Nw4cLExMSnbsKvrKw8f/58WVmZxWLx9vaePXv2xIkTuVzu8CY2zul0OovFYucg+DnnGIa5SLvyUZG0IWYDAAAAAAAw0lAUPXPmzP3797ds2ZKQkPDUjuJDgiBIWFjY0qVLv/76619//TUkJAQ/QGuQ9Hq9PbuyKysrr1y5EhUVlZiY2P+HHR0dhw8fzs3N7ejoYLFYnp6eNputvLy8pKTk8uXLr7322muvvebh4fHoOOfPn9+6dWtxcTF+knlxcfH58+dfffXV119/3dPTc9jTG59QFNXr9Y827R8eNpstEAjwY89dMGk7ey5PBzEbAAAAAACAkXb//v2rV69GRkZOmjSJqM7qVCo1IyPj4sWLV65cmTFjxuBjts1mszOPWa1Ws9n86GJ4b2/vTz/9dO7cOaFQuGbNmsmTJ/v7+9PpdKVSmZOTc+DAga+++spgMGzYsMHLywv/J3fu3NmxY0d+fv6KFSuWLVsmlUrb2tp++OGHnTt3SqXS5cuX8/n8Yc9wHNLpdCaTyf5gjJ/BxmAwOjs7XTBpu2ZJPMRsAAAAAAAARlphYWFjY+Obb74ZHBxM4NFWbm5ukyZN2rFjR1VVVXx8/CCbluNL2cTGp3PnzmVnZ7u7u69Zs2bSpElBQUFSqZRCoaAoGhER4ePj88UXX+zatSs0NHThwoUsFotEIl28ePHmzZuTJ09eu3ZtYmIijUaLjIyk0+kffPDBgQMH4uLiHl0qBwPDj0C3v2KcRCJZLBYMw1gsllwud8GkbTQaXWQ+j3LRWnYAAAAAAADGKhRFy8rKOBxOaGgom80mcGQymZycnCwSie7evdvd3T2Yf4JhGOHNz5qbmwsLC9Vq9YIFC9LS0jw8PLhcLt5EnUwmy+XyZcuWZWRk6PX6c+fONTU1kUgkFEXLy8s7OztnzpwZERGBV9HTaLTU1NSAgIDi4uIHDx7YX/88fhDYN95ms2EYhiAInrTZbLbrnHluMpkgZgMAAAAAAABIHR0dzc3Nfn5+Hh4ehCeWiIgId3f36urqrq6uwTweb35GbOXtvXv3WlpaAgMDIyMjeTwej8d77LQ2oVA4a9Ysb2/vq1ev4jHbbDar1WoSieTl5fXohls2my0Wiy0WS3Nzs06nI3CSYxiKomq1mvC+8a6ZtPHebFar1aXCNsRsAAAAAAAARlRra6tSqfT29haJRIQPzufzPTw8ent7VSrVYB6v1+sJz2P19fUqlSogIEAikbBYLDab/eR54AkJCe7u7i0tLW1tbWazmUql0mi0J7t2oSiq0WjMZnNPT4/BYCB2nmOVTqfT6/VE3TqhUCj9odo1kzaJRNLpdI4+9X1IxvjebPzGhkajwf8Xf7fhP739fwgAAOMTfh2DoqjRaMQ/ErVareNOTAUAANBPpVIZDAaJREJU87NHIQgikUiMRqNer3/ug61WKyHNqB+jUqmMRqNIJGIymVwul8FgPPkYqVTK5/NRFO3t7TUajXw+PyAgQCAQ5ObmTp48OSgoCH/YzZs38XJxo9EIReODYbPZ+vr6CPyFTqFQHj03qz9pu9Q+bavV2tXV5ebm5iKnfI3xmI2i6K1btzIyMvD/1el0ra2tZDL5ww8/FAgEzp0bAAA4l06nwwvwvv766yNHjpBIJJvN1tra6ux5AQDA2GcwGCwWC4vFGmSLsqFis9lWq3Uw7a+MRiPe4IrYCVgsFpvNxmAwWCwWi8V6cimbRCJRKBQajUYmk00mE96ifN68eVeuXDlz5gyTyVy+fLmXl1dNTc3OnTsbGhoc9EKNSWq1mth1XSqV+tjCtWsmbZc6T3vMxmw6nS6TyVgsllKpvHbt2mN/e+fOHafMCgAAXFBtbW1tbW3///L5fJlMRqWO2V8QAADgdHgVLl5l6YjxbTYbgiCDqenFAz/hE2Cz2TQazWQyMRgMBoPx1JngC9Q2m43P5+PL3YmJiW+++eYXX3xx9OjRq1evslgsrVbr7+8/adKkgoICBoMBv5uey2QyqdVqYr+nDAbjydTqskkbb0ng9KQ9Zt+pdDo9PT391KlTj27hqK2t/fzzz6lU6qZNm2JjY504PQAAcLq6urrDhw83NDQsW7Zszpw5/X/OZDKDg4OdfhsYAADGMDabTafTtVqtyWRyRN24VqulUqlPLdV+lM1mw4Mu4ROQy+UcDqe9vR1F0Wdl45aWlr6+PgaDIZFI8KlyOJzFixf7+vrm5ORUV1dTqdS4uLhp06ZlZmYWFBQIhcLnfkXjHIqiSqXSYDAQGHoRBGEwGE+tR3DNpG00Gl0haY/ZmI0giFQqnTFjxqP3CIuLi7///nsqlZqcnDxjxgwnTg8AAJyupKTkypUrHR0dUVFR/ZtrSCQSgiCQsQEAwKFkMhmXy+3o6NBoNGKxmNjBURTt6Ohgs9nPDfD4UrYj0lFERIRMJquoqOjo6HjWonphYWFzc3NsbKxCoehPcSKRKD09PSoqSqPRIAgiEol4PN6PP/6o1Wo9PT0f7UAOnqTRaLRaLbH3TRgMBo1Ge9Y3EZL2s4zZmI0jk8mPvrL4DzCCIFQqFWpOAADjHF6yiCAIhUKBj0QAABhJCoVCKpU2NDR0d3f7+voSO/jDhw/b29sVCoVEIhn4kQ6qGCeRSGFhYWFhYRcvXjx16lRoaGhgYOBjD2hsbDx16lRzc/OSJUv8/f3xP8zNzb18+fKUKVPS0tLc3NzwP6yurq6trVUoFF5eXvhh2uCpzGYzsZ3PcCwWa+CLBEjaTwXrFQAAAAAAAIwoLpcbFBTU0tLy8OFDwmNJRUVFa2trREREf1J9KhRF+3uPEQ4v/w4ODj5x4sSXX3557969R5/ozp07f//737Ozs5OTk+fOnSuTyfA/V6lUly9fPnDgAH6SNolEMhqNx44du3fvXkZGRnBwsCOmOjbgDdsJT7lkMpnD4Ty1YvxRrnnKF560tVqtU075Go/LF52dndu2bTt37pyzJwIAAM7U2dl59+5dZ88CAADGIzKZnJSUdOHCheLi4tTU1P6caT8URa9du2a1WsPDw/l8/gCPNJvNVqvVcWuPCQkJ77333ldffXXs2LGSkpLExEQ/Pz8SifTgwYOSkpK7d+9GRka+8847CQkJ/YuliYmJ/v7+OTk5dDp91qxZDAYjPz//1KlTISEhCxYsGPiuwTjX19en0WgIv2nCYrGe2v/sSbCm/ZjxFbMpFAqTyVSpVOfPn4cKSQDAOGez2QwGg5+fH5ySAgAAIy81NTUsLOzSpUtTp06dNm0aUWuA5eXlRUVF0dHRISEhAy9COvoYaoFAMGfOHC8vr8OHD58/f/7AgQN4AzO9Xu/p6blu3bqXXnopISHh0Q3kHh4eb7/9tsViuXz5cm5uLn7WV3Jy8saNGydMmAAV489iMBj6+vocUf/P4/EG/7JD0n7U+IqaPj4+H3744e3bt509EQAAcAkIggQGBqalpTl7IgAAMO5IJJL58+d//vnnly9fDg0N9fT0tH9Mk8n0yy+/NDc3r1q1qn/D8wAPJjBmr1+/ftGiRQqFgsVikUgkBEGYTKZAIJg4caKvr++rr77a1NTU3d2Nn7nr6emJ705/7D4vhUJJSkr65JNP7t+///DhQxqN5uXlFRAQ4O3tjQ8LnmS1WgnvLo7Djz1/bsX4oyBp9xtfMVsoFC5YsGDatGnOnggAALgKFos1cFUhAAAARyCTyS+88EJ2dva5c+cSEhIWLFhg/2lVZ86cyczMnDRp0qRJkwbOpSiKWiwWAmuMAwICAgIC+v+XTqfj7alpNJq3t7dCoYiPjzebzWQyGT/++lmr9wwGIyQkxM/Pz2Qy4VkdSlAHgGGYUqnUaDSO2H7M5/OHUe8GSRs3vt61ZDKZx+PxeDxnTwQAAAAAAIx3YrH4tddeq6mp2bZtm5ub2+TJk+0JAPn5+Tt37hQKhStXrsR3QQ8A35g97Od6rsfiMR6YmUzmIP85nU6HDU2DoVar1Wq1I/rYMZlMLpc7pKXsfpC0SdBpHAAAAAAAAKdAEGTChAnr1q1TqVSff/55QUHBsKPvrVu3vvrqq87OzrVr16ampj43o45wzAaOYDAYVCqVyWQiPMciCCIQCBgMxrBbBkDvcYjZAAAAAAAAOAeLxVq4cOGGDRtaW1v/53/+59y5c3q9fkgjoCh67ty5jz76qLKycu3atfPmzRtM5abZbHbQUV4kEgmvFXfKYcXjh9VqdcQJXjgWizWYc7wGNs6TNtxkAgAAAAAAwGmEQuGKFStEItH333//17/+9d69e6+88oqPj89gkklra+vRo0cPHTpEpVLffffdBQsWSCSSwTypQ2M2lUqlUCiuk6zGHvyUbAdlRTKZLBQK7e8UQHokaXd0dDiiSdvwjEz1OMRsAAAAAAAAnEksFs+fP18mk23fvn3Pnj1XrlzJyMjIyMgICAh46nFKKIo+ePDg8uXLFy5cuHv3blxc3Lp166ZMmcLn8wcTbq1Wq0NPzKbRaHYuhIKB4VuyHVT2z+Px2Gw2UfkTT9pubm7jLWlDzAYAAAAAAMDJuFzu5MmTFQpFVlbWiRMntm7deujQoeDg4IiICD8/P5lMRqfTLRZLT09PY2Pj3bt3a2trOzo6vL2933777ZkzZwYGBg7+yCur1erQilmoGHconU6nVCrNZrMjBqfRaAKBgNj+c+MzaUPMBgAAAAAAwPnws6zkcnlaWlp5eXl+fn5FRcWNGzcwDGMwGGQyGUVRs9mMYZhUKo2Kitq4cWNsbKyfn59AIBhSTrBarY6rGCfBarYjmc3m3t5eo9HoiLCKIIhQKGSxWIQX/I/DpA0xGwAAAAAAAFchFAqFQmFgYGBaWlpPT49KpWpvb8cbStNoNLFYLJPJxGIx/h/Day5lsVhgNXs0stlsPT09Op3OQd8+DofD4/Ec1CJ+vCVtiNkAAAAAAAC4Fjab7ePj4+Pjg2GYyWQym80oipLJZPxAaTvzgKOLxikUCsRswmEYplQqNRqNgyoRqFQqUZ3PnmVcJW2I2U+BYZharS4vLy8tLcX3vahUKiqVymAwpFJpYGBgREREUlKSu7u7s2cKABi/lEplWVlZaWnpgwcPOjo69Hq91Wpls9nu7u5+fn6xsbExMTFubm7Q6BWA0au3t/fu3bulpaV1dXVtbW0ajYZMJjOZTJlM5ufnFx0dnZCQAD/mYx6CIEwmk8lkEjimzWZzXMwmk8mQsR1BrVb39fU5qO0ZgiAikYjD4Qz1e6dSqYqLi8vLy+vr61tbW00mk8lk4vF4bm5ufn5+cXFxcXFxEomkf9jxk7QhZv//WK3W+vr606dPZ2dnt7S04HeMjEajxWJBEIRCoTAYDC6Xy+fzPT09J0yY8NJLLyUnJ8PmEwDAiLHZbNXV1adOncrLy2tqalIqlVqt1mg04j1jqVQqk8nkcDhCodDT0zMlJWXhwoVxcXHE9jIBADiUzWa7f//+2bNnc3Nz+3/MDQbDo1cj/T/mycnJixcvjo2NdegaFBhjbDab4+INZGxHwNuemUwmB33j8HLxwYcaDMMqKytPnjyZl5fX3NysUqnwqxH8Dk7/1YhIJHJzc0tLS1u0aFFkZCT+MTVOkjbE7P8XhmGdnZ1Hjhw5evRofX19d3c3n8+Pi4uLjIz09PQUCAR4xU5ra2tNTU1paWleXl5ZWVlOTs60adNWr14dHR3t7K8AADD2NTY2Hj169MyZMzU1Nb29vSKRKC4uLiwsTKFQcLlcEomk1+vb2tqqq6vLysrwj6lLly7Nnj371VdfDQ8Pd/b0AQDP19LScvTo0dOnT1dXV+M/5tHR0eHh4V5eXjwej0wmGwyG/quR/Pz8srKyrKysmTNnvvbaaxEREZBwwHPhQchx2QZBEKiwIJbZbFYqlY5LpDQaTSQSMRiMQX7jmpub9+/ff/78+erq6p6eHqlUGhcXFxoa6u3tjZ8EptVqOzo6qqqqSkpKamtr79y5k5mZOX/+/LVr1/r5+ZHJ1RNB7AAAIABJREFU5PGQtCFmk0gkksViKSkp+fe//33t2rWenp7w8PDNmzenpaXJ5XKBQMBisfATC202m8Fg0Gg0XV1dFRUVp0+fzs3NffDgQVlZ2fr165csWQLrRQAABzGbzQUFBdu3b//111/7+vqioqJ+97vfTZw40cPDg8/n939MWa1Wo9GoVqu7urpKSkpOnTpVVFTU0NBQUlKyfv36F198Eda7AHBZKIpevXp1586dv/76q1KpjIqK2rJlS/+POZvNplKpCII8ejVSWlp66tSpGzdu1NfXl5WVbdy4cfbs2fhNNwCeBUVRh27MxkOU48Yfb2w2W29vr1arddB3DS8XH+RB2RiG5eTkbNu2LT8/v7e3NyEh4Q9/+ENSUtKjH1OkR65Genp6ioqK8KuRlpaWGzduvPvuu+np6XjrvrGdtEdfzEZRVKlUFhcXEzWgyWSqqKjYt29faWmpRCL505/+tGjRIh8fn0d3EfQTCoUeHh5BQUExMTFTpkwpKCj48ccfr1692tHR0dra+pvf/GbwJxYCAMAgGQyGCxcu/Oc//yktLfX09Pztb387d+5cPz8/oVD41PouDw+P4ODg6OjoqVOn5ubm7t2799dff21tba2srJw2bRqbzSZkVniBDyFDATAaVVVVnThxgsPhEDIaiqJVVVVZWVkVFRUeHh4bN27MyMgICAgQiURP/pjjVyPBwcFRUVHTpk3Lzc3ds2dPXl7ew4cPu7u7ly9fLhKJCJkVGJMcupRNgtVsQuFtz9RqteMOYOPxeIPsLo6i6KFDh3744Yfi4mKFQvH73/9+xowZAQEBAoHgWVcjGIZFRES88MILWVlZu3btys/Pb29vX7Vq1aRJk/APTwzDDAaDUqk0Go3D/hJ6enoIfH2IStqjLGYjCGKxWG7evLlhwwaixkRRtK+vr7OzMzo6+i9/+UtKSopcLh/404FMJvN4vMjISF9f37CwsD179hw+fHjr1q0Wi+Wdd94htkcFAGCcMxgMmZmZn3322f3791NTU996661JkyZJpdLnfkwJBILo6Ghvb++IiIidO3eePn3622+/PXr0KFHtJPC9NiQSCS6nwPh09erViooKooq0MQzTaDR9fX1paWmbN29OT0+XSCQD/7QiCCIQCAQCgUKhiIyM3LZt24ULF7744gur1fryyy+LxWJCJgbGHkfHbNi5QCCHtj0jkUhMJhMvF3/uIzEM27dv3zfffHPnzp1Zs2a9+eabqampIpFo4G83fhA33kgiPj7+s88+y83N/frrr/fv3/9osLdYLPbk5M7OTqPRSODVCJ60EQQZRk+4fqMpZrNYrODgYA8PD7VaXVdXR9SwKIrabLbw8PC//e1vU6dOHXxIRhCEx+OlpqZKJBI+n79z5849e/ZIpdL169fDRScAgBAoil67du2bb765f//+zJkz//SnPyUkJAy+agavBJsyZQqbzbZarWfOnNFoNAR2bbRarUwm083NTSaTETUmAK6Px+NxOJy+vr6+vj5iR46NjX3jjTcyMjKGtEguEAjwu288Hu/nn3/+7rvvRCLR4sWL4b4/eCpHx2wXqf4dA/R6vUPbnlEoFJFIxGKxBpNcLl26tH379rt37y5ZsmTLli0JCQlD+oQRiUSTJk363//933fffff69et9fX1Pxlfs/wztyyCRSCSSQCAICAggql6PRCIZjcbOzk65XD7spI2Mop8EvGri/v37FouF2GExDOPz+REREcP7hWS1Wmtqar799ttdu3YlJSX9/e9/nzp1KoEzBACMWxUVFZ999tnJkyenTJny3//93xMmTBheDwij0djU1NTa2kpsLR++T0yhUAQGBsLtRTB+NDQ0NDY2OqKGUygUBgQECIXCYfxb/BiCTz/99OTJk4mJiR999BFcjYCn0mq1nZ2dBoPBQeMzGAwPDw+i9lOMW2azubOzU6PROG4jvVgslkgkg7muqK6ufv/99y9evDh79uz3338/ISFheK1ebDbbvXv3enp6nno1YrFYenp6jEbjMPIphULx8fF57ur6UDGZzGEn7dG0mo0giFgsTk1NdfZEHkelUoOCgtasWVNfX5+Xl/fjjz/Gx8fz+XxnzwsAMLqp1eqsrKxz586FhoZu3LgxKSlp2H0WmUxmSEhISEgIsTMEYHzy8/Pz8/Nz9iweR6FQQkJCNm/e3N7eXlBQcObMmcDAQIVC4ex5AZcz7AVDFxl/PHB02zMSicThcAQCAd4/9bmT2bdv37Vr10JCQt588834+Phht1OlUCgDHM+EYZhOp+vo6HDcAv5Q2bOmDXsniEGj0aKjo9evX8/hcAoKCs6ePevsGQEARr3S0tKTJ09SKJR58+a98MIL0CQcADAwCoUSHx+/dOlSDw+P06dPX79+3aENpcEo5egA4+ii9DEPwzCVSuXQtmf4CV5MJnMwlWiFhYWXLl3S6XTr1q1LSUlx3G4UBEHYbLZcLnepCx48aet0uqF+nELMJgyLxUpOTl6yZElzc/OpU6f0er2zZwQAGMW0Wu3Nmzdv376dmJi4ePFiKJABAAwGk8mcN2/epEmTHj58mJ+fD8cBgCc5eo8P3Nyxk0ajUalUjmt7hvdtGeTyLIZhp06dqq2tnTZt2vTp0wUCgYNmhSOTyRwORyqVutQxycNL2hCzieTh4TF//nwul1tZWVlUVOTs6QAARrG6urrr168zmcyUlJSIiAhnTwcAMGp4enpOmTLF09OzsLCwqqrK2dMB4w4UjdsDP93KoVXTfD6fz+cP5gQvEolUX19fVFSk1WoXLVrk7+8/Am3k8ROdxGLxYAraR8wwkjbEbCLRaLSgoKCUlJSOjo68vDxnTwcAMIrV1dWVlJQEBQVNnDjRpaqnAAAujkwmp6SkhIeH37t3r6amxnFrYgA8FYZhNpsNkvYwWCyW3t5evV7vuFePyWQKhcLBrxXfvHnz4cOHISEhMTExXC7XQbN6DH4oqVAoHOS9gJEx1KQNMZtgEokkOTlZpVKVl5dDzQwAYHjMZnNzc3NLS4uvr29kZKSzpwMAGGWCgoICAgLMZvODBw96enqcPR3gWkbgYAg7j0Een0ag7dmQTvDClZeXK5XKxMREuVw+kkeKUKlUsVjM4/Fc6hj2ISVtF5r32IAfDGa1Wtva2jo7O509HQDAqNTb29vc3Ewmk728vNzd3Z09HQDAKMNkMn19fSUSSVNTE1yNgMcQe7LjU1ksFlhtGpL+tmcO3ZItFAp5PB6FQhn8rGpqatRqdWRk5PAOGrQHnrTZbLZLnRg6+KQNMZtgNBpNKpVyOByDwdDd3e3s6QAARiWNRtPb28vlcmUymUvtTQIAjBYymUwgEPT29mo0GmfPBbgWMpk8AjEbVrOHRKPR9PX1WSwWxz0Fl8sVCARDKsPGN4pbLBYvLy82m+24uT0Lg8GQSCSutnVukEkbYjbBkP+j1Wrr6+udPR0AwKjU1dXV1NSEoihcpgAAhsdms6Eo2tTU1NHR4ey5ANcyAjHbbDbD76/Bw9Os0Wh03JZsOp0++BO8+nV1dRkMBhKJJBAInNL6Gz/iy9XaoZEGl7QhZjsE3vsBzvQCAAyP2Ww2GAzQrBUAMGz4B4jBYDCbzc6eC3AtIxCzrVYrxOxBGoG2ZxQKRSKRDKP62mQy4TGSSqU6q3KbTCbjrdEHX+s+Mp6btCFmE49MJtPpdBaL5enp6ey5AABGJaFQ6ObmRqfTmUyms+cCABiVWCwWg8Fwd3cXi8XOngtwLSMQszEMg7rxwUBR1NFtz4axJbufQCDAl5GNRqMTv5t457ahLsWPgIGTNsRsgqEoajAYNBoNm8328vJy9nQAAKOSUCiUy+UGg0Gr1Tp7LgCAUUmj0RgMBrlcPvKNi4CLI5PJFArF0YnFZDLBYXIDG4G2ZyQSicPhDHVLdj+RSMTlcslkcmdnp9FoJHxug0en012wdJw0YNKGmE0wvV7f0NBgtVr5fD70BwYADI9IJPLw8NDpdG1tbdC+CAAwVBiGtbS0dHV1wWo2eBKCICMQsw0GA8TsgWm1WpVK5dC2Z/iWbAaDMbxvN51O9/LyYrFYdXV1zr0aQRCEy+W6YOk46dlJG2I2wZRKZXFxMYfDCQ4OZrFYzp4OAGBU4nK5CoWCx+M1NzfX1dU5ezoAgFGmo6Ojvr5er9f7+/u7ubk5ezrA5VAoFEcfR2w2m81mM3QYeRaj0ejotmdkMlksFnM4HHu+1+Hh4UKhsKSkpLe3l8C5DQOZTB7qod8j5qlJG2I2wTo6Oq5evSqRSCZOnOiCbwIAwKhAoVD8/f3DwsJqa2uLi4udPR0AwChTXl5eU1Pj5eUVFBTE4XCcPR3gcqhUqqNjNoZhRqMRFrSfymq1OrrtGYlEGvaW7EdNnDhRKpXeunWrqanJ6d9NOp0uFApdsHSc9LSkDTGbSCqVqqCg4MGDB15eXunp6c6eDgBgFAsJCUlOTm5ubi4sLOzs7HT2dAAAo4bRaMzPz6+srExISAgNDYWb/uBJIxCzSSSSwWBwaEX0KIWiqFKp1Gg0Dm0qhm/Jtj+RxsbGBgcH6/X6y5cvu8LpgFwu1871ecd5LGm74hRHKQzDHjx4cPDgQR6PN336dIVC4ewZAQBGMTc3t4kTJ3p4eFy7du3y5cvOng4AYNS4fv361atXSSTSlClTgoODnT0d4IpoNNoI7HE1mUxQN/6kvr6+vr4+h64MD++U7KficrkZGRkeHh6//PJLRUWF0++b4F3HGQyGc6fxLEajsaOjQ61WoygKMZsw7e3tR48eraioCAkJWbly5fAa+gEAAI5Go6WkpMyePbu+vv7UqVN379519owAAKNAe3v7iRMnSkpKpkyZkpaWBhXj4KlGJmbj5+84vdLYpeh0OpVK5dDT7PEt2XiHcEIGnD9/fnx8fFdX108//VRfX0/ImPZgMpk8Hs9lo5bJZOrq6lIqlZSPP/7Y2ZMZC9Rq9enTp7/88ksOh7N58+bZs2e7YB88AMDogv+OvHfvXmlpKZlMjo2NhStmAMAA9Hr93r179+zZw2QyN23aNHPmTNfcxAicjkwm6/V6k8nk6KVmm83GYrHodLpDn2W0MJlM3d3dI7AlWyQSEfizz+FwOBzOrVu3SktLORxOWFgYl8slavBhQBCETqfr9XqXvYNjs9lMJhPEbAKoVKqff/75n//8Z19f30svvbRlyxY+n+/sSQEARj0KhSKXy1EUvX79ekVFhc1mi46OZrPZzp4XAMAVGQyGrVu3fv311729vWvWrHn11VclEomzJwVcl8lkMhqNTx72SywURel0OoPBcM3NtCPJZrP19PRoNBqHvuYcDkcikQz7BK+nQhDE09PTYDCUlJQUFxd3d3dHREQIhUKixh8GCoWCougIvIGHDYrGidHZ2ZmZmVlfXx8TE/Puu+/K5XJnzwgAMEYIhcKlS5cuX768o6MjLy/v/v37zp4RAMBF1dXV5ebmNjY2LliwYPXq1R4eHs6eEXBpdDp9BEovMQzTarVO39DrdBiGKZVKtVrt0LZnNBqNqC3Zj+FyuevWrYuOju7s7Dxx4sTDhw+JHX8Y+Hw+sXcTCAcxmwBkMpnBYPB4vMTExJCQEGdPBwAwdiAIolAoYmNj+Xw+hUKBujsAwLMYjUa8Bjg2NjY0NBQ2r4GBMRiMkdndajQaDQaDy646jgyNRuPotmeEnJI9AA8PDz8/PyaTabVaXaGtHZVK5fP5LrtDm0Qiue7MRhEKhcJisWg0mlAodHpJjNForKqqys7Obm9v9/Lysn9AnU6n0+lSU1MnTZrk6PIzDMO6u7uzs7OLi4sFAoH921DNZrNarZZKpXPmzAkLC3P0HS+9Xl9RUXHlyhWVSuXu7m7naBiGaTQaq9WalpaWnJwsEAgImeQAT9fR0ZGdnV1eXi4QCOyvTDaZTBqNxsvLa9asWUFBQYRMcgA6na6srCw3N1ej0dhfUYJhWF9fH4lESktLS0pKcvSLPzAymcxkMul0Oo1Gg5gNAHgWBEHwX3MMBmMw2zLb2tpKS0uVSiWbzbb/UtVsNhuNRoVCER0dLRKJ7BztubRabXV1dXV1NX4NZv+AfX19PB4vMjLS29t7BD5pW1tbS0pK1Go1i8Ui5MU3GAy+vr5RUVECgWCQVzv4rxUEQYYamQwGQ1NTU0tLC5VKHeRrxWKxuFzus279KJVKoVAYFRXl5eXl6BcfRdGWlpbi4mKj0chms+2/bjcajWazOSAgICoq6lk7lg0Gg1KpJGQnvF6vb2pqevjwIY1Ge+zHnMlkcrncob6dlEqlWCyOiory9PR87ucGg8GgUCj422bIU3cAHo+nVqtdJPY/CWI2Afrfak5/z/X09Pz8888//vhjS0uLxWIRi8V2DohhmMlk0mq1p06dmjRp0m9+85uEhARCpvokq9V6+/btL7/88tatWyqVisvlMplM+8fU6XQUCiUzM/Pll19evXq14z6+W1tbDx48ePjw4dbWVgzD7N+ygmGYwWAwGo2nTp2aPn36m2++GR4eTshUn2SxWK5fv/7tt9/evn1brVZzuVz7T0qwWCw6nY5Op2dmZr7++uvLli1z3B3H5ubmAwcOHDt2rLW1FUEQ+1MxhmF4b5iTJ0/OmjXrjTfeCA0NJWSqw9N/9QwAAPazWCw3b97Mzc1tamqy2Wz4pbOdY1qtVpPJxGQyi4qK5syZEx4e7rjl9KampqysrDt37vT19dHpdEJ+s+v1ejKZXFhYOHny5MmTJzvuToHFYikoKMjLy2tpaSHqxbdYLGazmcViFRUVzZ07NyQkZDBj4n2kKBTKkJZY29vbb9++3dDQoNPpaDTaIH+zIwjyrJO68V+4FAqloKBg6tSpqampjru1bTKZrly5cv36dfxqgU6n2x+z8Rf/xo0bQUFBL774oq+v72NjWiyW3t5eQtqetbW1FRUVNTc3P/niD/AKD0yr1dJotGvXrk2fPj0lJYXH4w3mX7nINQmVSuVyuUaj0TV7oUHMHjuMRuO1a9d++OEHb2/v3//+93K5nJDfcCiK6nS6GzdunDx5kkQi/eMf/5DJZPYP+6S6urqtW7dWVlZu2LAhPj6ekM8+DMMsFktTU9Pp06d37doll8sXLlxIyGwfo9Vqs7Ky9u3bFxER8cEHH4jFYqJefLVaffXq1YsXL1Kp1P/5n/9x0O+e+/fvb9u27cGDB5s2bYqNjSVkrwv+4tfU1Jw8eXLnzp0ymWzmzJmEzPYxGo3mwoULhw8fjo6O/vDDDwl88fv6+nJyci5cuMBgMN577z3nrmkDAABR7t27l52dTaVSly5d6ubmRlQexn/hXr9+/fLlyxwOx9/fn5BhH6PRaHJzcysrK+Pj48PDw4nahophmFqtLiwszM3N5fF4qampDrovX1FRkZ2dzWazly9fLpPJCHzxGxoaCgsL8Rffx8dnMP8KD/mDjyh6vb64uLipqSk0NBRf9h/8i89gMMRi8VNv4uMVZAUFBdnZ2Xw+PykpyUEv/q1bt3799Ve5XD59+nSxWExUCSp+tXP9+vWsrKyFCxe6ubn1/xWKoiqVSqvV2l8zr9fri4qKHj58GBER4eXl9eiSMo1Gk0gkw1udwjBMpVLl5+dfvHhRJBLFxsaOruMJ+Hy+RqOx2WwuuKANMXvsaGtrO3PmDJVK/fDDD+Pj4+1fCu6H9zdGEOSXX34pLCx0RFJFUbS2tvbmzZuLFy/euHGjSCQi6rMPv0sqFAo/+eSTixcvLliwwBF34Jqams6ePSuRSD744IPw8HACfz1YrdawsDCLxXLt2rXi4uLp06cTNXI/FEUrKyvLysqWLVv2xhtvELj3AcOwiRMnslisr776Kicnx0Exu66u7vz5815eXu+9915YWBiBL77FYgkJCTGZTPn5+XPmzElLSyNqZAAAcBYURe/du6fX6zMyMpKTkwnsloRhWFBQEL5a29TU5Ofn54hfuDU1Nffu3YuMjJw9e7ZUKiVwzdxisUil0sOHD1dUVAQFBRGy8+4xKIpWVFRYrdb09PSEhAQCGzhhGBYYGGgwGG7evNnW1ubt7T2YkZlMJo1GM5lMg3yWpqampqam4ODgpKQkPp8/pKsFCoUik8mEQuFTv2X4i79v376ysrKAgAD7d949yWq1lpaW0un0adOmRUVFEXi1gGGYv7+/Wq2+e/duSkrKozGbwC3ZDQ0Nzc3NkZGR8fHxPB6v/8Unk8lSqVQkEg27ZhB/8Xfv3l1SUuLn5yeVSu2f7Yih0WgcDsdkMrnggja0QBs78EbE0v+HvTOPa+rK+39ucrPvISQEAoR9k002EQUUxbWutdharXvtMu3YzT4z007beabrVOdVx2qtu9Jq3eqKigsqO8gqFhGQfSf7ntzk98f5PTw8KBhNAle97z98+SKHcz+c3OSe7/lufH5MTIwDbWwcDkcgEMRi8fjx47u7u4uLix048wAymayqqspkMvn7+7u4uDgwxR2CIDqdLhaLYRhua2tTq9WOmnkw7e3tpaWlAoEgLCzMsUewMAz7+vqOHz++paWlpKTEgTMPIJVKa2pqEATx8/Nz4OEuDoeDIIjFYnl5eUEQ1NLSotVqHTXzYO7fv19WVubh4REaGurYxScSiQEBAWFhYffv36+srHTgzBgYGBhjRX9/f2dnJ4VCEQgEVCrVsV1/GAwGn89HEKSnp0en0zlq5sE0NTX19fW5u7uP4Aq2Wq1NTU0nTpz46quv3nvvvbfffvuDDz74/vvvL1y40NvbO5zXi0gk+vj48Hi8xsbG3t5eZ4jv7+/v6uqiUCiurq6OLQcNQRCTyeTxeEajsb+/32g02vJboOSH7c/9trY2lUolFArZbPbj7hYQBFEqlcOZ9EQi0dfXl8Ph1NfXS6XSx5rZRnp7e3t7e2k0Gp/Pd+xuAWSrubi4aLXawYuv1WplMpmN78UjaWlpUavVIpFoyAEHm822sxIYkUj09/dnMBh1dXWgMM3TBZPJRGchNDRqwngy8Hg8eLw5I9KGQCCQyWQKheKkuFmLxWI2mxkMho1hTo8LjUYD/YedlEwCwzCbzeZwOM74nBOJRBqNRqFQnNQwGUEQk8nEZrPFYrEz5mez2W5ubiaTyUlVRvF4PJvN5vP5zlh8UNybSqWyWCyHT46BgYEx+iAIYrFYOBzOcOWa7AQU0bRarU6K4SSRSHQ6nUKhDGfmtbW1HT16NCsrq6WlRaFQgM66oFIah8Px9fVdvHjxnDlzHpoBRyQSwW7HSbt2BEEQBAHloJ0xP5PJfCwPOQRB4I+10RTE4/E0Gu2JnfA6nU6lUpFIpIcu78DiOymrH9yTXC7X/uozD8XFxYVEIg1sdUwmk0wm0+l0jvoggMUfEqhPo9E4HI79O38YhgkEAp1OR6e9OjLgtjEajWirZv/0LSXGcBAIBPDd57xLEIlEJz2VIQgCpQudZEnCMEyhUPR6vZNKwYOVGTmbxWKx6HQ6k8nEZDIf+gjR6XRSqZRCoTxY0R0U6nBIMdUHGVj8Eea3WCxarRZBkOEqhQLxVCr1wcJ7RCLRGS0cB4Bh2Kl3vtVqJZPJTrozMTAwMEYZUFIRVJl2xvxEIpFAIDivcOPIDtiGhoatW7eeOHFCLpf7+/vHx8eD5HOdTtfW1lZRUXHt2rU7d+60trauXLnS09PzwRkGCoM5Q/zA4ttuzBgMhsbGxpaWFhwO5+npKZFIRngegcXH4/G2Lz7olWOjmQ3DsI1VpvV6vVwu12q1ZrMZbFBBP2elUkmj0RgMxkMngSDIITXhHgq4LcESOWN+cNuAv8tischkMoekZA/w4OITiUQej+eoLRY4c3kaGwGCOBqtVuuowAFHgZnZzxRYOeKxZbjFNxqNlZWVmZmZt2/ftlgsYrF49uzZs2bNGhIaUFZW9uWXX8bGxn7++eejotcmjEZjWVnZL7/8cufOHYvF4uXlNWfOnBkzZgzx7hYVFX377beJiYmffPLJ6IvEbnsMDAyM54QRtjoajSYzM/PIkSMcDuftt99OTU3l8/nACEEQRKPR9PT0ZGdn//LLLzt37hSLxRkZGQ81WcfkmVJUVJSbmzt+/PiEhIQBVcXFxQcPHiwtLVWpVDgcjkajRURErFixAiTVO+S6ZDKZRCI9Vl/rEdZHJpOVlJQUFRW1tbVpNBrQaQkUwabRaJ6enomJiaDN57Pdn1KpVIJGUw6cc8iy4/F4Lpfr2C7ZT+9uik6nE4lEk8mEqkJomJmNgeFcEAQpKir64osvSktLdTodDMOFhYWlpaXl5eUbNmwYXIhVJpMVFxejKjgZQZDc3Nx//vOfoMMkgUAoKioqKSkpLy9//fXXvb29B0ZKpdKSkhInVaHHwMDAwMB4JFVVVdevX6dSqW+//fbSpUt5PN4QsyEgICAwMJBCoezcufPSpUvx8fFhYWFjpXYINTU1v/zyi9VqjYqKAmZ2fn7+5s2bL1++DMOwp6cnDMPt7e319fW1tbWbNm2aPn26QyxtCIKoVKpGo7HfE1hdXf3bb7+Vl5f39fXhcDgWi0WlUgkEAgiIUygUVVVVRUVF+fn577zzTnx8/NNV0dp2dDqdXC53tmfV/pTsZwkYhqlUql6vRxBkrLX8L9h7g4HhXFpbW48ePVpTUzNv3rwlS5bAMHzr1q3ffvtt3759arX6gw8+cFLLE4fQ1NR07Nixu3fvLly4cNGiRQQCobS09OjRo3v27NFoNBs3bpRIJGOtcSSkUmlra6vt37l8Pt9J1QEwMDAwMJxNTU1Nc3PzlClTZsyY8WD6FQ6Hw+PxQqFwwYIFN2/erKysbGlpQY+ZrdfrpVKpRqMBXmWVSnXkyJErV65Mnjz51Vdf9ff3x+Pxcrn83LlzJ06c2L17t1gsjo6OdsilaTSa7XHjw9Ha2vrrr7/m5eVFRUW99tprYrGYSqXCMAxBkNVqNZvNer2+paXl2rVr169fJxKJbDY7LCzbr8KhAAAgAElEQVTs6XWfDofZbJZKpXq93qluVUelZD9L0Ol00NlrrIX8L5iZjYHhXFpbWwsKCqKjoz/++OOAgAAIgmJjY8PDw3fs2HH06FESifThhx+6u7uPtcyH09zcXFxcHBsb+9FHHwUEBOBwuNjY2HHjxu3YsePIkSMkEum9994TiURjLXNYCgoKvvzyS71eb+P4hQsX/u1vf3OqJAwMDAwMJ9Hd3a1QKIKDg0d+MIFmXcXFxXK5fNS0PS53796tqqry9/dfu3Zteno6KJ5isVgCAwNNJtPZs2dramrGjRvnEIcwKP5ipyewqKiosrIyPT194cKFEonkwSL2Vqs1PDw8Ojp6z549169fT0tL8/X1ffbqniiVSo1G49TjA8emZD8zgGMdo9GInrhxrKEXBoZzUSgUSqUyMjIyMDAQFHLk8/nTpk1777334uLifvvtt59++gm17RPkcrlKpYqMjAwICCAQCKDp5YwZM957772oqKjDhw/v2rVLqVSOtcxhAdViamtra2pqZDIZ5VE8qwFsGBgYGM8DOp3OaDQymcyRK4aSSCQWi2U0Gm3vFz36dHd3K5XKmJiY8PDwgT8Hj8d7eHikpaWxWCyQ/OyQa0EQBBza9kzS0NBAoVCSkpKCgoJoNNqDFiBosOrv75+amkqhUO7du9fd3Y3CXsd2YjAYnOpQdUZK9rMB6CaAqmXBvNkYGM4FNJAABvbAD2k02sSJEw0Gw9dff/3LL7/weLwNGzaMocjhACeCD4qfPHmyXq//9ttvDx06xOPx1q5dO3YaRyIwMPDDDz/kcDiHDh3y9/d/9913R25a9mCZdAwMDAyMpwUEQaxWKyi1PfJIkNGKtvY/g6HT6SQSicPhPHhkAF7S6/UOtFGpVCqJRDIYDE/sCbRYLKBfzMilqkFRaCKRqNfr+/v7eTwek8lElWn0xJjNZovF4mxXKovFwlKyhwNtcePYm4SB4VzodDqVSq2vr+/v7x+cKkaj0ZKTkxUKxTfffLNnzx4Wi8XhcMZQ50NhMBhkMrmhoUEqlQ42QWk02pQpUxQKxXfffbd7924Wi4XOBCEKhTJu3Li1a9cqFIr8/PyGhoaZM2c+jc0qMDAwMMYWBEF6enq6u7spFIpYLHZSd087sb1ZN/C1oie4dIDOzs6Ojg4mkxkUFCQWi5ubm/v7+wfHwFut1qqqqs7OTh6P58A2nzAM0+l00Hb0yWZwdXVVqVS1tbXBwcEjFHPV6/W3bt0COyIYhmUymfOauY4mZrMZdC9z6lUgCGIymejccaEBtDUkw8xsDAznIhaLo6Kirl279q9//evll1/29fUd2J0wmcyZM2cqFIrvv/9+y5YtYrEYbR3/vLy8wsPDc3JyNm/enJGR4evrS6fTwUssFmvOnDlyufyHH37YvHmzUChEm3gADMOhoaEZGRn19fUXLlxISkqKiYkZa1EYGBgY6EWpVFZXV7e0tLi5uUVERLi4uDQ3N//yyy9XrlyRy+UEAsHHx+eVV16ZOnUqOo3tp5rTp0+Xl5e7ubl5eXn19va2tLRcvHjRzc2Nz+fjcLiurq6zZ8/++uuvDAbDz8/PgWY2DodjMBgqleqJzezExMTc3NwjR450dXUlJSX5+fm5uLgMBKKbzWa5XN7Y2Hj9+vUrV65IJBJfX18YhrVarVwuh2H4qTYdrVarQqHQarVOPbiBIAik72Ep2cNBIBBAoAdKAlUwMxsDw7l4eXktXry4urp69+7dhYWFGRkZg+PDuVzu4sWLjUbj1q1br1+/jrY8MYlEsmjRopqaml27duXn5y9btmzNmjUDr/J4vJdeeslkMv344491dXVoEz8AmUxOTExcu3ZtSUkJ6DKCgYGBgfFQqqqqdu/efePGDbVaTaVSk5OTly5deuXKlZ9//lmpVHI4HJ1Od+fOnbt376pUqgULFgycvaKHQ4cO3bp1a+QxhYWFaHtmJSYmrlu3rqKioqGhobCwMDc312w263S6y5cvp6Sk8Pn8xsbGLVu2nD17VqVSvfnmm+PHj3dsrDXwKj9xLLq/v//y5cv37t17/vz5vLw8kCFPJpMJBAKCIAaDwWAwqFSq3t5eiUTy8ssv+/v7gyLkSqWSQCDweLyntzyKRqNRKBROdWWD3uN4PB6zsUcAgiAKhaJWqzEzGwPjuYBCoaSkpPzjH/84fvz4vXv3hhQsgSDI1dX1lVdecXFx2bVrV0FBwVjpfChUKjUtLY1EIh0/fryxsVGtVg9+FYIgoVC4fPlyPp+/e/fuoqKisdL5SHg83sKFC1NSUrhc7lhrwcDAwEApHR0de/fuPXz4sIeHR2RkZEtLy+nTp+/du9fR0REcHLxs2bLAwECDwZCdnX306NF9+/ZJJJKkpKSxVj2U4uLi8vLykccYDAa0Fd8KCQlxd3dXKBQqlUqpVHZ2djY2NjY0NAiFQhBTjSBIc3Mzi8V6/fXXlyxZIhAIHCsAZE2r1eonWxlwoi0UCvPz80tKShobG2UyGYIgwJaGYdjFxcXX13f27NmxsbGBgYEDgeIIggCHNpvNdugfNEoYjUaZTGZPWrstMBgMrLS4LYC48Sf+dEMQBO5Yh7ybmJmNgeF02Gx2WlpaaGioXC4HcV+DAZb2/PnzQ0NDa2pqmEzmmIgcDg6HM23atLCwMIVC4erqOuRVCIIEAsHChQvHjRtXU1ODWiMWj8e7uLg8tI0qBgYGBgagsLDwxo0bU6dOXbt2rVgslslk27dvP3/+vJeX16pVq+bPn89gMKxWa0hIiNlsPnr0aGVlZVxcHHrCfdPT07lcru0ZTKjKIQINL4RCIQ6Hs1qtBoNBrVYDTy94+Hp4eHz++edms1kikfB4PGfkoJLJZBqN9sS1smk0WlhYmIeHx9SpU1UqlV6vB+G7MAyTyWQKhcJkMl1cXJhM5hDxoNc0Ho9HiRPSdiwWi1wu12q1TlVOJpO5XC6JRMLM7EdCJpPtifJgsVg0Gk0ulzuk8zlmZmNgjAYUCsXb21sgEJhMJgRBHnw6MplMUDUEhdUjqVSqr6/vCANYLFZ0dHRISMhT94DEwMDAwBjg7t27JpMpPT198uTJJBLJYrF0dXXdvn07KCgoKioKZGJDECQSiZKTk69du9bW1qZUKh88Ph4rEhISIiIibN8co+1cG2A2m9VqNeiNPHhtaTRadHQ0DoeTy+WgBJrDK4fh8Xgmk6nVarVa7ZPNAEEQl8sFZ+5WqxVU3sbj8Y+0fIxGY39/v06ne7LrOgm9Xl9fX9/e3g5BkLe3t7e3N4VCGTwAhB44NTICdPCi0WhPbD329vZ2d3cLhUInnc6gCgKBAMMw8Eg/2a8zGAwSidTT02O/pY26DT0GxrOH0WisqqrKzMy8ffu2xWIRi8WzZ8+eOXPmkPio8vLyr776KiYm5vPPPx8rqU8MHo9/BiqFYmBgYDzPqNVqPB7P4XCAgxqPxwcEBLi7u5NIpCF5s2w2m06n6/X6J66Y5QzodDoKc8VtR6PRZGVlnT59uq2tDYbhsLCwJUuWjB8/fohpd+DAgdOnT3/44YczZsxwuAYKhWKPQ3swoGSX7eONRqPZbB6T8u95eXn5+fkTJ06MiYkZWO28vLyDBw9WVlaqVCocDsdgMKKiolauXBkdHU0mk3E4nF6vl8vlzq7/ymazH/T/PxZXr149cODAihUr5s6d+1R/QGwBgiASiYTH45/sBgbvJp1OFwgE9lvamJmNgeFcEAQpKir6xz/+UVpaqtVqYRguLCwsKSkpKyvbsGGDj4/PwEiZTFZUVITOw3UMDAwMjGceDoej0WhaWlq0Wi04OfXx8fn4448tFsuQpKG6urr29vbp06ejqti4VCpVKBS2x1UJBAL0PHONRuO+fft279599+5dCILMZnNJSUlhYeH69evnz58/uKdmY2NjYWFhb2+vM2TY79B+YkBCrMlkGv3IuMrKykOHDtHp9HHjxgEz+8aNG//617+uX79OJpM9PT3xeHxzc/O9e/dqa2v/9re/TZ48GXQj0+l0Tj0XoNFoHA7nkcXh1Gq1Xq8f7tXGxsbKysrGxsbu7m7Qaw21fVgdgp1mtsVigSCITqcLhcKenh573mLMzMZAO0ql8v79+7Z/57LZ7JEjnEeZ1tbWY8eO3b59+4UXXnjxxRdhGC4rK/vtt9/27dun0Wjef//9wZY22pDJZC0tLbYvPo/H8/b2dqqkx0Iqlba2ttqu38XFxcvLy6mSMDAwMFDL+PHj3dzc9u7diyDI3LlzJRIJjUZLSEiwWCwDzrS+vr5Lly4dOHCASCQGBQWhyjl2+PDh48eP2x54/F//9V8vvPCCUyXZTnFx8fHjxzUazaZNmxISErRa7cWLF8+dO/fVV18ZDIaXXnppsKXtVJ7Mod3Z2alQKGw3SDw8PB7aXntMimlrtVoQsg70K5XKgwcPXr9+fdq0aa+88opEIoEgSCaTnTp16vfff9+5c6e7u7ubm5tarbbf5z8CMAxzuVxbKp9t3br12rVrwxXP7+jo6Ovr27Nnz7lz58AH+bvvvouPj3e8YnRAJBKf+BYymUwgpAKCIBqNBiztJ27VhpnZGGinurr6448/tv2pOWXKlO+++86pkh6L1tbW/Pz86OjoTZs2BQYGQhAUFxc3bty4n3766ejRo0Qi8aOPPhKJRGMt8+GUlJR88cUXIxyRDmHOnDmoingvKCj46quvbNe/cOHCv/71r06VhIGBgYFa4uLiMjIyfvzxxy1btnR3d69fv97Pz29wxZA//vhjx44d58+fVygUq1evTkxMdGxPKTtRq9VdXV1DOnoMQavVKhQKEBra09MzWtIeTWFhYUtLy/Lly9etWycUChEEGT9+fFhY2Pbt27ds2UKhUBYtWvRQu9Th4PF4Nput0+lGXskh/P777zdv3rQ9S/m9996bMGHC4J+AptAgsfYx5DqBmpqaqqqq0NDQ9evXp6SkAP+2xWIJDAzU6/XZ2dmVlZUkEsmpGRMQBHE4HDqdbstHTKVSlZWV9ff3s1gsFos1JMJcpVKBInNGoxGsre37oqcR4M1+st8F8RTAzIYgiEqlCoXCvr6+J2sShpnZzwU6na67u9v2IzcajYYew08gEAQFBR0+fNhoNLq5uYnF4pHHo62EmEKhUCqV06ZNCwoKAl98fD5/+vTpdDp98+bNv/32G5vN3rhxIzr7WHh4ePj6+h4/ftxsNotEInd395HHo23xPT09vby8Tp06hSAIOHseefwzXxoEAwMDYwRYLNZLL70kFArPnj0LKhsPGYAgSGtrK5PJXL169YsvvoierQIgIyMjJSVluN2O1WotLy/fv39/ZWUlnU6fM2fO+PHjR1nhCLS3t9NotJiYGDc3NwiC8Hi8t7f3smXLSCTSDz/88O9//5vNZs+aNWtInraTIJPJTCbTaDTabkkGBwfn5ubW1dURiUQPD49HZhMMMYRA62wqlYqGbP/Ozk61Wp2enh4aGjqw4Hg83tPTc/r06bm5ubW1tQEBAVQq1Xka6HS67WVx165dy2Awdu3apVAoFixYMGvWLA6HM/DqsWPHMjMzly1bNmvWLBB+Ehoa6izdKIBIJNpz/AfixsEMwNIWCAR4PF6pVD6upY2uPTGGkwCZJDKZzMbxiYmJ33//vVMl2Y63t/d7773H4/F++uknDw+PTZs2jRyWjDZ7FeQaEYnEwSYcjUabOHGiXq//5ptvMjMzuVzuhg0bxlDkcPj7+3/wwQccDmf//v2+vr4bN2709PQcYfyohbTZSGBg4EcffcThcDIzM/39/d95552Rj2mwjl8YGBjPOQKBYPbs2TExMSQS6cHOzBKJ5LPPPjOZTF5eXiisWgxqQT/0JblcfvLkyVOnTjU0NAQEBKxYseKFF15AVYoZ2NkP8eXyeLwlS5YolcqdO3cCSzs5OXkUxEAQxGKxtFqt7TXJ4uPjKRTKrl27qqurJ0yYkJaWNnLeu4eHx8D/gY3N5XJRcljPZDJJJBII2B7yEoPBIBKJGo3GZDI5z8wmEolcLpdMJtvo2Pf19V27dm1ISMjOnTtv3LhBoVDWrVvn7+8PbMVbt26RyWQfH5+EhITRCYgYW/B4PIlEAs3knuDXgZk9+CdkMtnV1ZVAIMjl8sdKE0DF3YzhbIxGY3d3d19f3whjTCYTaP2Hw+FQ1f2YRCIFBQWtWrVKqVSePXu2urp6zpw5KPkitgU6nU6lUuvr6/v7+wdbcTQaLSUlRalUfv3113v27GGz2Wg7IMDhcGQyOTQ0dO3atUqlMicn5969e7Nnz0bbvmoEKBTKuHHj1q1bp1Qq8/PzGxsbZ82a9RTpx8DAwBhN/vjjDwiCfHx8hrM/GQxGRETEKKuyE+DE3rdvX1ZWVn9///Tp05cvXz5hwgQej4eqiHdXV1eVStXU1DRQfw7A4/GWL1/e39//66+/btmyhUajjU6FMCKRyGKxDAbDcBm/Q6DT6TExMUaj8ccff6yoqABBfLZYiQM29iMLfTmbtra2zs5OOp0eGhrq5ubW2Ngol8sHF/+zWq23bt3q6enhcDig2LgzAOHij9vBSyAQzJw508fH5+DBg1lZWTU1NW+88caUKVNQVaRw1LAnPdtgMDz4ESORSC4uLjAMS6VS2wMunhpbBcMeQkJCtm/fPsJt0dXVdeTIkTNnzhCJxPDw8FdffXU05T0SAoHg7++fkZFx586dixcvTp06deLEiWMtylbEYnFUVNS1a9e+//77pUuX+vr6DnzlMZnMmTNnyuXyzZs3b9myRSwWO7stxBMAw3BwcHBGRkZdXV1WVtbkyZPj4uLGWtRjAMNwaGhoRkZGfX39hQsXkpKSYmJixloUBgYGBhrJzs4+depUQEDAtGnTJk+eLBAIxjxL1k7kcvnvv/+emZl569YtNze3jz766IUXXvDz8xud0OvHIjY29vTp03v27CEQCNOmTfPw8BgI2ndzc3v99ddlMtm5c+c+++yz3t5ep1beGoDBYAC3rY2GPYlEio+Pr6+vP3bs2PXr1z09PYVC4ci/gh4bG4fDHTt2rLCwUCQSeXl5KZXKurq67OxsPp/P5XKtVmtnZ+epU6eOHj3KYDAGvzsOh8lk2h4uPhgqlRoZGcnn88PDw3ft2vXpp58uXLhw5cqVY9IjbWwhEAj2VEF76A1PJBI5HA4Mw319fUaj0ZZVxczs5wIWizWcaWQwGEpLS0+ePFlQUMBgMObNm7dy5crw8PBRVvhIiERidHT0hg0bLl++3N3dPdZyHgMvL69FixZVVVXt3r27sLAwIyPj9ddfH3iVy+W++OKLRqNx69atOTk5Np4ZjzIkEikhIWHdunX5+fmoKhhjI2QyOTExce3atSUlJSPHdGBgYGA8z1Cp1La2tlu3bl27ds3Pz2/ixIkzZswICwsb7Fx9iigvL9+7dy9wYk+bNg04sV1cXFDlxB4gMTFxzpw5e/fu/eqrr86fP79p06bBFcIkEsnGjRsRBDl//rxMJhudQ3kCgcDhcAwGg+3NvahU6owZM1QqlcVieeRvocfGTk5O1mq1VVVVDQ0NN2/eBHWwQLH35ORkLpdbX1//3XffXbx4UaVSrVixwt/f30knUCQSyR5XOQRBYrF48eLFAQEBP//88+HDh6urqyEIQuf20nnYU6/eYrEMFBsf8hIMw+AEpK+vz5by45iZ/VwDnNiZmZn19fUSieT1119PT0/38vJCZ1Qtm82ePXt2bGzs4LoO6IdCoaSmpv73f//38ePH7927p1arB78KQZCrq+uyZcv4fP6uXbsKCgrGSufIcDic+fPnT5o06ela/AF4PN7ChQtTUlJQlRCBgYGBgSrmzp3r7+9fXFx8+fLl0tLSsrKykydPRkRETJ06NTU11cPDA50G6oMAJ/Yvv/xSWlrq5ub24Ycfzps3D51O7AHYbPaaNWvc3d1PnTql1WqH2EUQBAUGBn788cfe3t6HDh1qaGgYHVVUKpXFYplMJtsDZUUi0csvv2w0Gvl8/gjD0GNj43C4iIgILy8vhUKhUqmUSmVHR0djY2NDQ4NYLAb3DIIgjY2NdDo9IyMjPT3dSXshPB7P5XJpNJqdNjyTyUxISHBzczt9+vTBgwdbW1sVCoWjRD4V2NkWDji0H2oN4fF4Op0OuqYrFIqR40owM/s5BTixf/rpp5ycHL1eD6JKIiIiUJgePABIVnkazTw2m52WlhYSEiKXyx986gBLe/78+aGhoTU1NejMosHj8TweD20VzmwHj8e7uLhgFc4wMDAwRkAkEgkEgoiIiNmzZ9fX1+fl5V25cuXs2bM3b948cODAhAkT0tPTo6KiRi5tNeZUVFQAJ3ZfX19aWtry5csTExNR68QejFgsXrJkSVJSkslkerCWGx6P9/PzW79+fXJy8u3bt6OiokZBEgRBbDZbr9fbXmaZQCDYGCvO4XDQYGPjcDgKheLm5gbakVitVr1er1arlUolkUgEhQA9PDzef/99lUoF2n076V5iMplMJtMhvi4Yhv38/FasWBEcHJyZmXnv3j2BQIBOL5ozsPMNAj29hnsVgiAKhcLn80kkEmiTNtxIzMx+Hunu7j5y5MihQ4eAE3v9+vXAif201BUzmUwymQx8/bm4uNDpdPQnj1EolIGKMkajUS6XD9HPZDKjo6ODg4NHJ+HqiTEajTKZTKVSkUgkHo/3VCz+YAwGg1wuB/pdXFzsPzPGwMDAeJYgEAjgUDIoKCghISEjI+P27ds5OTl5eXm3b98+c+ZMWFhYampqWlqat7c32nbtCoViwIktEAg++OAD4MR2auMlxzLYnaDVaqVSqU6nYzAYPB6PRCJBECQUCvl8fnR0tPNKcA0BhmEQOq7T6R7rF3U6HWhRTqPRWCzWQDLzgI3tvPRmewBGlMVi0ev1er1eLpfzeDwEQQICApwaek0ikdhstkPWxGq1ajQamUym1+vDwsL+8pe/6PX6Ac/884A9udm44dOzBwNStclkslQq1Wg0Dx3/dJhVGI7CYDDcunULOLF1Ot2CBQtWrVoVHh7+VLiI9Xr9nTt3srKyysrK+vr6TCYTiNyQSCRpaWnJycmP7Io8tuh0upqamgsXLpSVlfX39w/o9/X1TUtLmzx5slAoRG3+m06nq66uvnDhQnl5OaiyiMfjGQyGn59fWlrapEmTHuz7gipAztWFCxcqKysH6/f39582bVpSUtLgUqIYGBgYGCQSyd3d3d3dPTQ0NCUlpaWl5datW1evXr1582Z+fn5mZmZ8fPyrr76KqsLjR44c+c9//lNXVwcOr1tbWw8fPjyCX2vBggWoap0NkMlk+fn5ly9frqurUyqVCILAMMxmsyMjI9PT08ePH89gMEa5LRMIHTebzbYMViqVZWVlhYWFzc3NGo0G6GcwGMHBwUlJSWFhYWKxGLU2tlQqvXnz5uXLl+vr69VqNYIgoOK6v79/XFxcYGCgk45sQMAmlUq18+i/v7//xo0bV65caWhoABnyRCKRzWbHxMTMmDGDwWCgdp/pWOwPGrelwhmBQKDT6UQiUaVSPbRiAmZmP0d0d3f/9ttvhw4dunfvnre39/r162fMmPG0OLFBGvmRI0fu37/f398PvrVxOJzJZKLT6devX4+Li1uzZk1KSgo6nZMdHR2HDx8+evTo/fv3pVLpgH6z2Uyn03NychISEtasWTNp0iQU6m9ra/v111+PHz9+//59mUwGxFutVgRBCgoKrl69OnHixNWrV0+cOBGF4nE4XEtLyy+//HLy5MmmpiapVGqxWIbonzRp0urVqxMSEtCpHwMDA2MMAcfBEokkMjJy1qxZTU1Nubm5v//++969e8eNG4cqM/v+/ftNTU0Gg4FAINTV1TU1NY08PigoCG1mdnl5+Z49e3Jyctra2lQqFQ6Hg2EY2LeFhYXnz59/4YUXXnvtNR8fn9F8YOHxeDabbTAYHhmLe+fOnePHj9+6dau7u1uj0UAQRCAQzGYzBEFVVVU3b96cO3fu2rVr0Xm0XVJSsmvXrry8PLD4EAQRiUSQlM5msy9dupSWljZ//nxnOHUYDAaTybRzQ15UVPTzzz8XFBS0tbWp1WrQht1oNEIQVFRUdObMmRdffHH58uXu7u7P/G7HIbnZtoyEIIhMJsMwTKFQQG7/4KDUp8C+wrAfg8FQVla2Y8eOnJwcrVY7f/78VatWRUREPBVObBwO193dfeDAgf/85z8ajSYxMTE1NTUgIIBOp1sslv7+/oqKCtCDpL+/32w2T5s2baz1DqWzs3Pfvn3bt2/X6/WJiYkpKSn+/v50Oh1BkP7+/vLy8uzs7JMnT0qlUrPZPGXKlLHW+39oa2vbs2fPzp07jUbjxIkTk5OT/f39aTQagiB9fX1lZWXZ2dnHjx+XSqUbN25MTk4ea71DaWlp2bVr1+7duxEESUpKSk5O9vX1Bfp7e3tv3bqVnZ199OhRqVT65z//edKkSWOtFwMDAwON4PF4MpmsVqsrKysLCws7OjqMRiPamlCmpaUxmUzbI3tDQkKcqudxqaio2Lx587lz53g83uLFixMSEkDjKKPR2NbWBlzcO3fuVKlUb731lp+f32hqIxKJXC535KjjO3fu7N27Nzc3l8vlzpgxIzw8XCAQAEu1q6uroqKioKDgwIEDFovlzTff9PHxGTXxtlBaWvrtt99mZ2cLhcKMjIyEhASRSEQkEqVSaW1tbUlJSWFh4eHDh3U6XUZGhkgkcuClgcPZTvd+cXHx119/ffXqVZFI9Morr8THx7u5uRGJRKPR2NzcnJube/ny5a1bt6rV6jfeeMPDw8NR4tGJnbnZCIIgCPLQYuMPBbi1SSQSg8FQKBQDMeSYmf1cUFtb+8knnxQVFYHcDKPReOHChcuXLw83PjAwED2ts7Va7bVr17Zv306hUN5///3p06eLRCIWi0UgEKxWq9FoTElJSU9Pz8zMPHny5J49ewICAgTM4nkAACAASURBVB4sHDKGaDQa8FxkMBibNm1KS0tzc3MbrD81NTU9Pf3QoUNnzpzhcrl+fn5eXl5jrfr/o1ars7Ozd+3axeFw3nzzzalTp7q5uYH6HFar1WAwAPEHDhy4cOECj8fz8fHx9PQca9X/i0qlunDhwt69e11dXTds2JCamvpQ/fv37we9MSUSiVgsHmvVGBgYGCjCZDLV1dWB9Oy6urquri46nT5v3ry0tLSpU6eOtbr/w4QJEyIjI23vEoyqWm69vb179+49f/48CBCLjo52dXWl0Wh4PB40x5o2bdr06dO3bt16+PBhHx+f5cuXj7KzhEqlUiiU4QwYqVR64sSJvLy82NjYhQsXBgUF8Xg8CoUCQRDY7cydO7empmbr1q2ZmZl+fn4vv/wyesrudnd3//TTT9nZ2VOnTl25ciXoPk2lUi0WS2dnp6+vb1xc3MSJEw8cOHD69GkvL68ZM2bQ6XSHXBoUmQNv9BNP0tXVtX379qtXr6anp69cuXLcuHGurq4gBN1isWg0munTp0+bNm3z5s379u0LDAxcuHAhqm5+h2OnN9tqtQ7X02s4IAgikUjAra3ValUqlVarxczs5wK5XH779m21Wg1BUHd3d3Z29sjj09LS0GNmNzc3nzx50mKxrFmzZvny5YOLXYNQDXd3dz6fz2QyVSpVcXHxlStXVq9ePYaCh3D//v1Tp05BELRmzZply5YNbig1WD+DwVAqlYWFhTk5OStWrBhDwYOpr68/deoUiURau3btK6+8MviJDmqEeHh48Pl8Op2uUqkKCgpu3LixbNmyMRQ8hLq6ujNnzlCp1LVr1y5duvRB/WKxGDyKVCpVXl5eXl5eRkbGGArGwMDAQAkWiwU4wa5fv37nzp329na9Xh8aGrp48eK4uDgfHx83Nze05XkyGAx0duuwhRs3buTk5ISGhr7xxhtTp04dnAMMiokwGAyhUGi1Wr/55ptz584lJibGxsaOpkIIgmAYHs4aLC4uLi0tDQwMzMjIiIuLG1yhDYZhgUDA4XCCg4NxONw333xz5syZCRMmjE6xdFu4cuVKbm7u+PHj33zzzUmTJg047RUKhV6vp1KpXl5efD7fbDbv3r372rVrERER/v7+Drk0lUq1P1z80qVLubm5cXFxb731VmJi4uDFx+PxoIC5UCg0m81ff/31yZMn4+PjwXvxrGL7WdtwAG/24/4WiPohEok0Gs1gMGBm9nOBt7f3+++/P6Rj8wgEBgY6Vc9j0d7enp+fHxYWtnTp0uEaSpFIpIiIiEWLFuXn59+8eXP58uUoaRGBw+FaWlqKioqio6Nfeuml4Zo2k0ikqKiohQsXFhcX5+XlvfzyyyjR39TUVFpampCQsHjx4uFOzclkckxMzLx58/7+978XFBS89NJLKBGPw+EaGhrKysqSk5MXLlw4gv74+Pg5c+b885//LCoqWrx48VNRrQADAwPDSXR1dRUVFV27dq2ysrK1tbWvr8/NzW327NmpqanBwcGgfhXaaow/AxQVFbW3t7/yyitJSUnD1dmi0+lz587Nyck5f/58Q0NDdHT06L8RMAwTiUTgYx/884qKir6+vkWLFkVGRg428wbXFSeRSPPmzbt69Wp2dvb9+/cjIiJQ0mUtNze3p6fnrbfeio+PH7CxjUajSqUaaBhOo9HS0tIKCgpKS0s7Ojp8fX3tF08gEDgcDvD5P/EkVqv1xo0b/f39H374YUxMzHAl6JlM5uLFiy9evJifn9/a2hoYGIiSxXcGVqvVTksbeLOf7HeBsU0ikbDd5HOBh4fHqlWrbMzmx+Fw6Cn/aDQau7u7tVptUFDQyNG8FAoFhFt3dnbKZDKUFL4G+nU6XVBQ0MiZMFQq1c/PTywWd3Z2yuVyNFQHMRgM3d3dBoPBFvH+/v7u7u6dnZ0KheLB3uBjgsFg6OrqMplMQUFBI6dR0Wi0gIAAoVAIFh8l+jEwMDBGmbKyslOnThUXFzc1NXV1dRGJxLi4uD/96U/R0dHe3t5CofBpaQjU3t7e0tIikUhEIpFOpztw4EBhYeHAqzAMv/jiiykpKej5c9RqdVtbGyjHPXIoNYfDGTduXHZ2dmdnJ+j1NWoiB2Cz2VQqVaPRDPxEo9F0d3fT6XQfH5/Bkh7s3cXlcsPDw69evQr0Oyr02h5UKlVbWxtwtg+EUlutVoVCodPpBttabDY7MDCwtLS0t7fXaDTaf/+wWCw6nW6nuatSqVpbW3k8XnBw8Mj3A4/Hi4iIyM3N7ezsNBgMT1Gju8fFfm+2PWY2AIIgzMx+LiASiU+p5WA2m7VaLZFIdHV1feSRLYVCcXFxUavVcrkcJWa2yWTSarUkEonP5z9SP5VK5fF4Op0OJWY2EE8mk11cXB75DKDRaFwuFzTJRMnNZjKZdDodhULh8XiP1E+n07lcrlarVSqVKNGPgYGBMcpcv359//79vb29AQEBoPlFYGCgu7s7i8V6WhxfWq329OnTR44ckclkmzZtEolEJpOpqKjot99+GxgDQVBnZyeXy42Pjx9DqYPR6/UGg4HL5TKZzEc6Nnk8HpVKlcvler1+TMxsKpXK5XLNZvNAtTlQD4/FYtFotAH9w/XHBjnbQD8azGydTmcwGHg8HoPBGBCv1+tBN7Ihg0GrZKVSab+ZTaFQWCyW/QGAOp3OaDS6uLjQ6fRH3jx8Pp9MJstkMszMHhmz2Wy7e3I4MDP7uUCj0bS1tVEolEfWBmtvb8/KyhIIBPPmzRsdbSMDwzCVSjWbzYMPTYfDZDKBBgboCVoGtRCAvfrIwSaTSaPR0Gg0lOgnEolAvE6ne+Rgo9Go0Wh4PB5KxONwOBiGyWSy0Wi0Ub9Wq+VwOOjRj4GBgTHKUCiUqVOnTpgwISIiAiSjoie6zRYQBDl8+PC2bduamppiYmIYDAaIHQUWxeLFi8PDw41GI6jUlZOTExAQMFwy1yhDoVBgGNZqtbYUbwfDiETiWIXuQxDEYDBMJpNUKgUx1SQSiUAg6PX6gd7aw9nYOBxOo9GYTKYx1D8EKpUKwzBQBX5isVhAVvaD1ppOpzOZTCPkqNsIqHxmf6NsHA5HpVIJBMJg/SOgVqvNZjN6Ft9JjG3Q+ABPx9kkhp3cvXv3z3/+85YtWwZ+YjKZqqqqtm7dmpubO3hkS0vLtm3bjh8/PuoaHw6RSHRxcYFh+N69ewqFYoSRCIJ0dXXV19dzuVyhUDhqCkeGRCK5uLgQCARb9Hd0dDQ0NPB4PJS44oF4HA5XX1+vVCpHGIkgSHt7e1NTE4/HQ4MfHgCCCKxWa0NDw8j6zWZza2trc3Mzj8fDXNkYGBjPLfPnz//rX//68ssvJyQkuLu7DzaQEATp7OysqKiora21vdTLKFNRUXHixImenp4333zzq6++ioyMHLBhmEzmlClTVqxYsWrVqtdee00oFF65cqWurm5sBQ9Ao9GEQqFUKm1padHr9SOMNBqNtbW1SqVSJBKNYb03kFQMOnfgcDgqleri4iKTyTo7O41G4wg2ttFo/OOPP1Qqlbu7Oxpc2TgcjkajCQSCnp6e1tZW4J/XaDQPdWWbTKb6+nqdTicQCOx0ZdPpdDqd7hBbl06nC4XCrq6utra2kY9pDAbD7du3tVqth4fHM+zKxqEjaByHmdnPCSqVqqys7O7duwM/MZvNNTU1O3fuzM/PHzzSYDB0dHT09fWNusaHA0GQSCSKiIiorq4+c+bMCCObmppOnTqFw+FiYmLQ890BQZBYLA4LC6uoqMjKyhphZENDw5kzZwgEQnR0NEr0QxDk6ekZEhJSVlZ28eLFEUbW1dWdO3eOSCRGRUWhJ9UNj8d7e3sHBgaWlJRcuXJlhJG1tbVZWVkUCiUyMhI9+jEwMDBGGXd3dz8/P6vVWlBQcPjw4ZycnP7+fhwO19zc/N1337322mvr1q1buXLl+vXrT58+jUJjOz8/v7q6etasWStWrIiOjmaxWAMv4fF4Go3GYrG4XO6sWbPCwsLKy8vv379v/07aIeDx+MjISC6Xe/bs2dra2hFGXrt2rbCwUCKR+Pj4jG34FQzDINAaj8fj8fiQkBAGg3Ht2jWQJ/xQGxuHw12+fLm4uNjPz8/b2xsl4WMEAiE2NpbBYJw8ebKhoQFBEBAT/uDIvLy8mpoab29vkUhkT7VUPB7PYrGGq1X2uBAIhLi4OBqNduzYsaamphFGZmVllZWVhYSEeHp6PtvVXseq0vgQMDP7OcVqtep0uq6urpG9fGjAx8dn3rx5fX19O3fuPH369EA80gBWq7WxsXHHjh1nz54NDQ2dN2+e/RE4DsTf33/u3LmgJeO5c+ceqv/evXvbt2+/cOFCeHj4nDlz0KM/KCho9uzZ7e3tO3fuvHDhwkPF3717d/v27dnZ2VFRUTNnzkSPeBwOFxoaOnPmzJaWFtAP86H679y58+OPP167di0mJmb69Omo0o+BgYExylRXV//973//05/+9Pe///3Pf/7z559/npeXd+DAgW3bthUWFnZ3d4ND4c8+++z06dO25EONGgiC1NXVmUymiRMnSiSSEWJ6RSJRcHAwiMNCz58wbdq0qKiogoKCH3/88fbt2w/mhVoslmvXrm3durWhoWHu3LmhoaFjonMwoHoLyMdOSkoKDAwsKys7ceJEV1fXg1acxWK5fPnyDz/80NTUNH/+/KCgoDHR/FBmz549bty469ev//jjj7du3dJoNEPW32Kx5OXlZWZmdnd3T58+3cvLy57LMRgMOxtlD+GFF14ICQm5evXqtm3bGhoaHrx5EATJysr64YcfOjs7lyxZIpFIHHVpdGJ/0Lj9M+Cw3GwM9MNisWbOnHnnzp3MzMxPPvkkKytrwoQJPj4+TCbTarX29PRUVlbm5OSUl5e7ubm9+eabqOpGhsPhWCzW7Nmz//jjjyNHjvz1r389d+7chAkTJBIJk8m0WCwD+isqKsRi8YYNGwICAsZa8v/C4XDmzp1bW1t74sSJv/zlL2fPnk1ISPD29gbiu7u7KyoqcnJyKisrJRLJunXrHNVG0lFwudz58+ffvXv3zJkzH3/8cVJSUnx8vLe3N4PBsFgsXV1d5eXl169fr6ysBPV+fH19x1oyBgYGxpjR0dGxd+/eX3/9VSQSjRs3rqWl5ffff6+rq2tvbw8MDFy2bFlAQIDBYLh8+fKxY8f27dsnkUgmTpw41qr/P1qtVi6Xg8SxwW5SPB7P5XIHR/kSCAQ3NzcGgyGTybRaLUpCl8Vi8bp16zo6On7//fd79+5Nnjw5KipKJBJRqVSDwdDa2lpYWHjjxo27d+/Omzdv0aJFKElxolAofD7fYrGIRKKlS5dKpdLz58+3tLQA/W5ubkB/S0tLQUHBzZs37969u3jx4gULFgzXonVM8PLyeuONN7q6uo4ePVpZWRkVFRUYGOji4kKhUAwGQ2dnZ3l5eVlZWVNT06xZs6ZMmTI4UOJxgWGYzWY7tuqBRCJ56623Pv300yNHjty5cyc5OTkiIkIoFFKpVJ1O19zcnJeXl5ube+/evVdffXXu3LnDtTh9ZnCIL9pisVitVnu8L5iZjYF2IAjy9vZ+++23GQxGZmZmZmZmdnY2g8EAD1G9Xt/f36/T6eLj4996660pU6agrV4LHo/39fV95513mEzmr7/+mpmZeenSpQH9Op1OKpXq9foJEya89dZbKSkpKImhAuDxeH9//3fffZfFYh05cuTgwYMXLlxgMpnglFqn0/X39xsMhkmTJr3xxhuTJ09GlXgcDofH4wMDAzdu3Mhms48ePXrgwIGsrCyw+FarVavV9vf3m0ym5OTkDRs2TJo0CW36MTAwMEaTwsLC69evp6amrlmzxtPTUyaTbd++PSsry8vLa9WqVQsWLABFxUJDQ81m87FjxyorK2NjY1H12H2wNhWNRnv77bdVKtXgg1SwdSYQCOipoE4gEJKSkj799NNt27bduHGjpqbGxcUFVOdCEESj0fT09JDJ5BUrVqxevTooKAglJawgCKLRaC4uLhAEpaeni0SiHTt25Obm1tTU8Hg8Go1GIBAQBFGr1T09PVQqdc2aNStXrgwICECJfgCBQEhNTf3iiy/+/e9/FxYW/vHHH2w2m0wmEwgEi8UCdgsUCmXJkiULFiwQi8X23DYsFsshlc+G6E9LS8Pj8T/88ENRUVF1dTUoRz+w+KDd2ptvvvnaa6+NHOvxbOCQzGpgq2NmNsYzDpFIDAwMfPfddydNmnTjxo2ysrLm5ma1Wg0OpKdMmZKcnJyYmBgQEICSrOYhEInE4ODgjRs3Tp48+ebNm0C/RqOBYdjNzW3q1KlAv7+/Pwr1k0iksLCw999/Pzk5+ebNm+Xl5S0tLRqNhkgkCoXC6dOnA/G+vr4oFI/D4Ugk0rhx4z788MPU1FSgv7W1Feh3c3ObOXNmcnLyhAkTfH19saxsDAyM55y7d++aTKYZM2akpKSQSCQQ9VNTUxMYGBgdHQ0KbkEQ5O7unpycnJOT09raip4miDQajUajKRSKIa1JCARCcHDwkMF9fX1qtZrD4dBotFHU+AhoNFpycrJYLC4oKMjLy7t9+3ZXVxfoeuXh4TFjxozk5OS4uDiRSISqQ2FQeBwUGxcIBD4+Pvn5+SCNuaury2Aw0Ol0sVg8a9asAf0oTAym0+lJSUlEIjEvL6+8vLy+vr6/v99oNILqdMnJybGxsWFhYbb0Zx0BMpk84KtwLHQ6PS0tzdvbOy8vLy8v786dO93d3QaDgclkenp6vvDCC8nJyTExMUKhEIWL73AcYmZjDb0wnhdgGPbw8HB1dY2Jienv71er1SaTCYIgKpXK4XCEQqEtrSbHEBiGxWKxq6trXFwceLqbzWZwBgz0D+7WiDZgGPb09BQIBPHx8WDxzWYzHo8HnTMFAgGaxeNwOCKR6OXlJRAIEhISHtQvFAptaTWJgYGB8cwDmmIOFK8CAUHu7u5kMnmIXcfhcOh0ul6vt6WH0OhAIBDEYrHRaGxoaFCpVEwmc7iRHR0dd+/eJZPJIpHIUWWoHAWFQgkNDfX09JwyZYpMJtPpdKD9Eo1G4/P5rq6u6DwRxuPxQBiRSAwLC/Py8kpLS5NKpTqdDkEQIpFIp9OBfrQt+GDMZrO3tzebzZ4wYYJSqTQYDAiCgM6yXC6Xy+XaGbgBQRCLxaJQKE7aclCp1PDwcG9v72nTpsnl8sGL7+rq6urqiqrAE6diMpnsN5JB0Lg9M2BmNsbTBIlE8vDw8PDwGGshTwiZTH569ZPJZLFYLBaLx1rIE0KhUJ5q/RgYGBjOhsPhaDSalpYWrVYL3Lw+Pj6bNm2yWCxDXNZ1dXUdHR3Tp08fw55SDzJ+/HgPD4+zZ8/Gx8dPnjz5oZGxCIKcPXu2pKQkMjLSz88PndGzTCZzhGMC9AP0P13lToxGIziFB622nHEJCoXCYDCcHS3PYrHsSR1/NnBg0Lg9M2BmNgba0ev1vb29D3YvHA7Q/9Cpkh4LnU7X19dnu35w6OhUSbYD8pFsF89gMFASPQjQaDRSqdR2/UwmE7QKx8DAwHgOiY6OdnNz27dvn8VimTNnjkQiodFoEyZMAD49MKa/v//SpUsHDx6EYTgwMBAl9cMACQkJsbGxx48f//7770HdkCEx4SqV6uTJk7t27dJoNLNmzUJVzVSZTKZSqWx3wbm6uqJq8aVSqVqtfkr19/f3t7W1SaVSG6MzQHW0x7oEcGWTyWRnuLL7+vq0Wq3tiw+qozlcBkpAEMQhJdCwSuMYj0F1dfXq1avB/81mc2Njo1qtPnv2bEdHx8AYFLb4qq6u/uKLL2QymY3jk5OTv/zyS6dKeizKy8u//PJLuVxu4/hp06Z99tlnzlT0GJSWln777be2i585c+bf/vY3p0p6LAoLCzdv3qxQKGwcP2/evI8++sipkjAwMDBQS3x8fEZGxrZt27Zs2dLd3b1u3To/Pz8Yhgds7Nra2h07dpw/f14ul69atSoxMRFV3mAXF5fXXnuttbU1Ly+vubk5JiYmOjray8uLQqFoNJr79+/funWrpKSkt7f3lVdemTVrFqqcfocOHTp9+rROp7Nx/Keffpqenu5USY/F/v37z507p9frbRz/j3/8Y8qUKU6VZDu7du06d+6cRqOx0bLauHHj+PHjH+sSFAoFFIR7IoGP4Keffrp69arBYLBx/ObNm+Pj452hBA0gCGJ/xDjOET29MDP7OaKrq+vIkSPg/1arFUEQk8l0586de/fuDYxBEMRoNI6RwIejUqlu377d29tr43hPT0+n6nlclErl7du3+/r6bByPqp5Ycrm8urq6v7/fxvEhISFO1fO4yGSy6upqqVRq4/ioqCin6sHAwMBAMywW66WXXhIIBGfPnn1ozyGz2dzS0kKn01euXPniiy+6u7uPic7hgCAoOjr6k08+2b9//6lTp44ePXr58mUQpms2m1UqlVQqFQgEb7/99rJlyyQSCaqqcnR0dFRVVQ2p3zYCtj/aRoe2traqqirb+5DbfoI/CjQ3N9++fdv2MwK1Wv1Y80MQxGQynZeX3tLSUllZabt+tHnUHIvJZLLfEe0QMDP7ucDX1/fTTz+1/bsbVek0UVFR+/fvt934R1XEOA6Hi42NPXDggO363dzcnKrnsUhMTDx48KDt4kUikVP1PC6TJ08+dOiQ7fqf0rR5DAwMDEchEAjmzJkTExNDIpGEQuGQVyUSyaeffmoymby9vV1cXFDVkwlAJpNBOeV58+YVFxdXVFS0t7drNBomkxkUFDR+/PiEhISIiAiBQIA28atXr54xY4bZbLZx/Lhx45yq53FZv3793Llzbc/SioiIcKoe2zGbzUuWLImLi7PdBRoUFPRYlyCTyTQazXmhH+++++7SpUttX/zo6GgnKUEDDknMxmFB4xiDAQ7qh35HiESiZcuW2f71MVyjCKvV6pAwjOF4aHgGj8dLTk523kUdAliZhy4On8+3Xz9YmdFffFCa0v6Z7ZzhkQx35wuFwge3iU+AsxcfAwMDY5QZIR6STqf7+fk99CUGgzHmUT+PjOSEYVgikYjFYtCaRKPRmM1mGIZBsW4ul/vIhkZj8oUfEBAQEBBg/zxOfeZa/4cHXwoKCnpc43O4S9g/yWOh0WhAOxXnXQK4su2Mnhjhzg8NDQ0NDbVncsCzsdUxGo0o+UMwM/vZQa/Xd3R0PPRrAoZhDodj/yVUKlVra6v98zyI2WzWarVqtbqtrc0Z82s0mq6uLhaL5aTWI1qttr29fbh9if1YLBaFQtHd3e2Myc1ms8FgUCqVg7P0HYhSqezs7JRIJE56dmq12o6ODueFn0EQJJPJOjs7nTQ/BgYGxmhiNpsRBJHL5Y8b+GojCoVCq9U6Kj3yQZRKpUwme+TTHIbhJzspNpvNoBnSkwp8xOQWi0UqldoeYPhYgDZUDulm9FBAYVHnZReaTCaZTGZ78PNjodfrEQQZMr/FYgE9Yu2fX6lUAgNvyG6HRCI5JCtbqVTK5XLntdCzWq39/f1OWvzRBHRis38e+3etKCpcgWEnTCbTy8tLJpPZngZsOzqdrqenh8FgeHl5OXxyHA7HYrF8fHz0en1PT48z5jcajQaDgcFgDCk66iiYTKZAIFCpVCqVyuGTAwOYzWZLJBKHT47D4TgcjqenJ6iI7oz5dTqdXq/ncrlOKmsJendLpVJn5BqpVKq+vj4ej4e2FEQMDAyMJ4PL5bJYLI1G4yRLUqvVms1m0B/YGfNzOBwKhaJWq51h7CkUCo1G4+Li4qRGZVwul06nq9VqJxkzBoPBarXS6fThwhLthM/nE4lElUrljMVXKpU6nY7P5zupAjmPx6NSqRqNZrClqtVq9Xq9Q04l9Ho9BEEPWtQOcWXjcDihUEggEBQKhTMsbXBGwOfz0dmY3XbMZjN6crMxM/vZQSwWz5kzp6mpadu2bS0tLQ45yMHhcFarVaFQXL58OTMz09fX10llIalUanBwsEgkOnfu3I0bN2wvofFIjEbjH3/8cerUKY1GM2HCBCc9eHx8fNLS0mpqanbt2tXR0eGoU2Rwsnju3LmTJ0+GhIRMmjTJIdMOgUqlhoSEuLi4nDt3Ljc314GLbzAYysvLT506hcfj4+PjHxmn92QEBwenpqaWlZXt27evs7PTUYtvsVj6+vpOnTqVlZUVFhb2DNfkxMDAeK6gUqm+vr5Go7G0tLSlpcWBW3aDwVBbW1tRUcFisTw8PJz3ne/h4VFaWnrr1i3bS0M/EvDAvXr1altbW2hoqJPqpFCpVH9/f61WW1JS0tbWZnsm9iMxGAx37typqqri8XjAHnPUzIMJDw93d3fPz8+vqKhw7OL39fVlZ2d3dXWFh4c7qa0pg8Hw8/OTSqUlJSVdXV1gn+wQV7bRaGxoaLh//76LiwubzR6cg00kEul0ukM+C1FRUQKB4MaNG9XV1TqdzlGLb7FYent7L1y40NfXFxkZyeVyHTLtWOEoV7ZDwILGnx04HM7s2bP/+OOP/fv3X7lyhU6nO6SEptVqNZlMfX19VCr17bffdlJcNARBoaGhK1eu3LZt27vvvuvq6uqoxzOCIEqlUqVSpaamLlq0yCFzPoirq+uCBQsaGhq2bdv2+++/02g0Ry2+wWDo6+vj8/krV64Ui8X2z/kgEARFRUUtW7bs559/fuedd/h8vgMXH0RnzZ07d9asWQ6Z80GEQuGiRYuam5v/85//nDhxgkqlOnDxe3t73d3dly1bhlVHw8DAeDYA5bi7uroqKyvr6+sdWJkJQRAQ0jVlyhTn1VJ1c3NLSUm5cOHCsWPHLl26BMOwA7/z5XJ5QEDA+PHjneTNhiAoPj6+p6enoqKitrbWsYuvVCohCJo+fbqTAg9xOJxIJEpNTb148eKRI0fYbDaBQHDg4stkspCQkKioKCcFHkIQNGnSpN7e3oKCgqqqKrBb0Ov19lfMApHnMAwnpwebYgAAIABJREFUJibyeLzBLzEYDEf1ynZ3d09LS7t48eKvv/7KZDIdtVWzWq16vV4mk0VERERGRj7t/bRBaoBDprL/XcPM7GcHAoHg7+//4YcfxsbGXr16tauryyFhrlqt1mAwzJkzZ+rUqaD0qP1zPhQOh7No0SIPD49Lly6VlZVxOBz7P+omk0mlUnl5ec2ePXvy5MlOMlNxOBwMw+Hh4f/1X/919erVGzduyGQyh1TeUqlUMAwvWbJkypQpkZGRTvIM4HA4Ho/30ksveXt7X7x4saqqis1m27/4BoPBYDCEhITMnDkzKSnJIQvyUIhEYnR09F/+8hew+CqVyiEH4UqlkkQiLV26dMqUKeHh4c5bfAwMDIxRhs/nz5w508fHp6ysTCaT0Wg0+7/ijEajyWQKDAyMiooKCAhwkpmKw+GIRGJkZCSbza6qqgIdSUcIcwUFLK3/l4GXcDgc9D+oVComkxkbGxseHu7h4eG8otCurq5z5szx9fUtLy9XKpVkMtl+zzPw4IWEhERGRgYEBDgp6BqHwxGJxPHjx3O5XLD4EAQ5JMZYLpdzudykpKSwsDChUOi8xReJRIsWLbpz505ZWZlOpyMQCAQCwc7LGY1Gq9Xq7+/v5+fn4eExuGsXHo9nMBiOiqMkEolxcXE8Hg8sPpFIdEiHMJlM5uLikpycHBoa6tTFHx0clQKAw+HweLydlja2cXymIJPJQUFB7u7uU6dO1el0DjkONJvNZrNZIBCAhBz7JxwOCIL4fP706dMjIiL6+vpIJJL9T32LxWIymSgUiru7u/Me+QAqlRoeHu7t7T1r1iyDweCQ40CQXiIUCnk8nlPNPAiCBAJBenp6ZGSkVColkUj2P/URBDGbzXQ6XSQSOelkegAajRYZGSmRSGbPng3ecfvnNBqNEAQJhUJbytJiYGBgPEWA73w2m+3v728wGGAYtn9vbbFYEASh0+lsNtupuwUcDkej0cBuJzExEYKgga9oBEGAtT/AQD2qwf8OAeykjUYjiUQC9WK7urpgGCYSiSQSiUQiEYlER7ltweWEQiGbzQ4MDDSZTA7xxiMIgiAIg8HgcDjOfmDR6fSQkBAPD4+kpCQ8Hu+Q6PSBxXdUPNpw4PF4d3d3LpcbHBxsNBqlUqn9iXIIglitVhqN9mBWNo1GI5FIDvyL6HR6WFiYWCxWKpXgjMD+OQ0GA4VCASUPUNVJ/glAEMSB9f8wbzbGUPB4PJvNZrPZYy3kCSGRSJ6enp6enmMt5EkgEAhcLvfpTWshk8leXl7OCzZzKgQCgcfjDQnWwsDAwMAYDjKZLBKJxlrFE0IgEDgcDofDMZlMhv/BYrFAEARMYhiGKRTKEwQDa7Va4N/G4/HAjMTj8TAMk8lkCoVCJpOJRKL9+2/gALBzkrHiad/tUKlUsVisVqutVqtTY6Qd6MoeANvtjIDBYHBgvQPMm42BgYGBgYGBgfEcYbFYjEajTqfT6XRGoxF0yXJgCzEQWz54NmC9A4hE4v9j707D2yjPvYFrJM1Io9Eu77ud2HH2OPtOgGxOgUCAkAXCXkrpKRRaevW0PS89lJ5e7SldKFAggVCWhAYSEggJkM3ZHMdbYsdxYsdrIq+y9mU0I828H56Dj4/tKI4tjUb2/fvQq46FdNuWZf3nuZ/7USqVKpVKqVTGeoftWNZv5HjYoesyEZpFBwaFrrWF695G/tsNMRsAAAAAAIgdGpTl8Xi8Xi/LsugA8AgdED3wodEeOolEgmGYx+NxOBwob1MUBWkq5gQCgTDOyhqUSqWK9O4J0I/X6w3jzxR1tYzkHiBmAwAAAAAA8WIYBqVr1BQ68tHQI9Ebuf1+v9frdblcBEGoVCqKogiCgPXtmODz+SK6lI0O0IbBLkJiGIZhGFjNHm1QZxHLsi0tLSdOnIh2OQCA0ebSpUsMw0S7CgBAbCguLg7LJEgxCAQCvVPNopuuQ0At5XgfUqlUnKUCxO12ezyeyLVCyOVynU4XudN5ouXChQtosroIn96oySWMdzjywYcQs8PA5/O1tbW5XK6vvvqqvLw82uUAAEYbm83mdDol4Zh7CQAYrdDILolE8s0335w5cyba5YQHz/NoknO0CxmS3sFp0S4E3ECktxv0juKL3ENEhdVqRU0cEe23Hwae5z0eTxirQuMPIWZHn1arnTp1amlpqVwud7vd0S4HADDa4Dg+YcKEgoKC2B0LDACItIyMjJycHI1G4/F4PB5PtMsZkVjJ1aGNvpQ1akT6CTZaf/Q8z2MYNmXKFHT0nXigEwfCeOkkLCftYaPjhSy6GIa5du1aU1NTWE4bBgCAgaRSaVJSUnp6OrzIAAAGxXHclStXWltbhZkKFnYsy7rdbq/XG8YjeaIOwzCSJDUajUKhGK3RK+bYbDa32x25XxMcx00mk0KhiND9RxfP8/Hx8RMmTKAoKtq1/C+73d7V1RXGpnGVSpWSkjLCHyLEbAAAAAAAEDWBQMDtdrtcLpqmWZYdZW9N5XI5QRAURWm1WgjbUcdxnNlsdrlckXuaabXahISE0RqzRYjn+ba2NqfTGcZLJxqNJikpaYS766FpHAAAAAAARAHHcehwLDT5eZQFbASNJWcYxuv1ajQarVYL5zxFERpWH9FnGhzwJjCGYcLbMS4JU9M4xGwAAAAAACAonud9Pp/D4fB6veE9hkec0Cnf6GQyrVarVqvhtKeoQDE7cvePYZhCoYCYLaRI7DTBcRxiNgAAAAAAiCUsyzocDpfL5ff7xTayOHJ4nkfHkvn9fo/Ho9PpVCoVjCUXGE3TEX3KEQQRloVQMEQcx7nd7kjEbDg3GwAAAAAAxAb0nhgtYsfQSV1hxPM8wzCBQICmaY1Gg05XhlQmDNRQEOmYDUvZQvJ6vX6/P7yvJFKpFGI2AAAAAACIDTRNo0VslmVHfZd4aBzH0TQdCAR8Pp9er1er1ZDNBMCybKS7JwiCgA4FwfA873Q6wzhgHMFxPCy/jxCzAQAAAABABAWDQZfLhUadjZ0u8RsKBAIejwdNRzMYDDCHPNIivZQtgdVsYdE0TdN02K/ZKRSKsFwrgZgNAAAAAAAixe/32+12l8vFMMwY7BIPDfWQOxwOv9+v1+s1Gg2EtMiJdMzGMEwul8NqtmDQq0rY7zZcLQkQswEAAAAAQPihndh2ux3txI52OeIVDAa9Xi/LsjRN6/V6WNaOkEjPtJfJZHCVRDCoDSQSP1BYzQYAAAAAACLFsqzdbnc6nWPhvK6RQ8vadrvd7/cbjUaKomBRNLw4jgsEApGO2XB9RDButzsSDTLhmn8mgZgNAAAAAADCy+v12my2SBy0M7oFg0GPxxMIBPR6vU6ng7O1wyjSGVsikUDHuGDQuIdIvLwolcpw/d7Bby8AAAAAAAgPjuNcLpfNZvP5fLCIPQw8z9M03dPTg5a1oYE8XASI2bCaLZjIzXogSTJcnf8QswEAAAAAQBiwLOtwOOx2O0w7GyGWZdFJRdBAHi4CxGypVAoxWwCBQCAS53ghJEmG69cNYvaY4HK5mpqahv7iotVqc3JyIlrSMHAc5/P5WJa93hxOmqatVqtCoTCZTMKXNwwcxzmdTrPZzHFcSkpKrJTdy+v1trW1SaXStLQ0giCiXc5NCAQC7e3tDQ0Nfr8/Pj4+JydHr9dHuygAABAvu93e3t7OsmxcXFxcXNygr/k0TdtsNnQstvAVSiQSi8XS1dWVkJBgMplGQdrpbSDX6XQej6e7u1sul2dmZur1epF/dX6/v7Ozs7u72+v1SiQShUKh1+uTk5PVanUUKw8Gg0O89EPTtN1u9/l8gUBAJpOpVCp03NoN/8NofXXNzc0Oh2PoF7bGjRun0WgiWlJEOZ1OmqYjcSEPx/EwnnwOMXtMuHTp0s9+9jOapod4+4ULF7766qsRLemmsCxbU1Pz8ccfX7hwIRgMpqamrly5srCwUKfT9b1ZdXX1K6+8MnXq1JdffjlapV4PTdMNDQ21tbUqlWrq1Knp6elWq/XgwYO7du3q7OzkeT4pKWnVqlX3339/DIXtxsbGN998U6FQ/PSnP01JSYl2OYNoamo6dOiQRqNZvXp1b5Bubm7euXPnoUOHenp6gsEgSZI5OTl33333mjVrYvqvDgAAjBzLssXFxQcOHLjllluWL18ul8vb29v37t377bffdnR0BINBlUqVn59///33z58/nyRJ9F/xPO/xeKxWa3QnildUVOzbt0+j0dx7773Tp0/HcTxalQzb1atXq6qquru74+LiZs2alZSUdO3atXfffbe0tNRut0ul0tTU1PXr169cudJgMES72EFcu3btiy++KCoqam9vp2k6EAjwPC+TyRQKhVarzc/P/973vjd37tyo/LW94Wq2zWYrLS0tKyszm83oAgfP8+iMLoqi0tPT582bN2vWLK1We717wDAsKkn77bffLioqGvqv3l/+8pf58+dHtKTIYRjG6XRGaOiDUqkM46x4iNljgslkys3N3bFjB8MwCQkJ6enp0a7oJgSDwfLy8pdffvnMmTMej0cul/M8X1JSUllZ+YMf/CA7O7v3ljab7fTp0yJsrGpra9u5c+dnn31mtVrlcvmUKVM2bdrEMMwrr7zS0tKiVqtlMll1dfWFCxc6OzufffZZ8aysMgzjdruv92fJbDZXVVWRJNnR0YFWNhQKhaiSqtls/uyzz5KSkhYtWoS+q42NjW+99daHH37ocrlSU1O1Wm13d3ddXV1tbW1HR8djjz0mqvoBAEBIfr9/586d27Ztu3jxosFgWLJkSWdn55tvvvnxxx/39PSYTCa1Wn3t2rXq6uqKiopnn332rrvuoigKdWbZbDaapqO7Gdtms9XX19tsNrPZvHbt2ltvvdVoNEaxnpt16tSp3bt3X7p0yefzkSRZUFBw7733lpSU7N69G/VeBQKBy5cv19bW+ny+devWhch7UVFRUfHGG28cPnwYtRb6fD6Px4OuywSDwfPnz5eWlh45cmTt2rWPPvpoVlaWwOUFg8EQz8+qqqpPP/303LlzXV1dEolEq9WixMVxnMfjcTqdFRUVxcXFc+bM2bBhQ05OzqDvNqO1mj19+vSDBw9WV1crlcrs7GyKokLfXuTdEKGhQ+YjtCcljBuzJRCzx4i0tLTnnnvOaDT+4x//SE5O/ulPf5qZmRni9v1WiaOrra3ts88+q6ioWLly5f3334/j+Pnz5z/99NPt27e73e4XXnhBhP3tfTkcjq+++uq1117jeX7GjBlOp/PUqVNNTU1arZbjuF//+tdz587lef78+fMfffTRrl27xo8fv3nz5mhX/T/Onj376quvOp3OQT/rcDgaGhqkUum//du/oTWNFStW/PznPxe2xlAYhrFarUqlEl3ipWn6xIkTH374YVxc3M9//vPZs2fjOO7xeM6ePbtz586PPvooIyPjnnvuiXbVAAAQHWfPnv344487OjoeeeSR1atXEwTx5Zdf7tixw2Aw/OhHP5o1a5ZCofB4PCdOnPjkk0+2bt2anp4+f/58tBk7cm98b1ZaWprFYtm2bVtVVdX3vve9qVOn9q66i9mVK1f27NlTWlo6ceLE7OzslpaW0tLSnp4es9mcm5u7Zs2ajIwMnucvXbr0ySefvPfeexMmTFiwYEG0q/5f7e3tb7/99rFjx1atWnX77bebTCaGYUpKSj755JO0tLSHHnrIYDDU1NR8+umnH3zwAUEQjz32WHJyspAVhsjYV69e3bFjx+nTp2fMmLFp06bU1FSSJOVyOYZhPM8HAgGfz9fa2nrs2LGjR49KpdItW7akpaUJWXxoq1evVqvVr7zySlVV1erVq9esWaNWq0PcPi8vT7DawoumabfbHaGWGalUGsaN2RKI2WMEQRD5+fmPPvqo0+nct29fTU3N2rVrY+WUCLPZfOLEiSlTpvziF7+YNGkShmHz58+fOnXq22+/vWvXLhzHX3zxRXF2LCPNzc1ffPGFyWR68cUXp0yZ4vP5vvrqq9dff12tVm/atOnxxx+Pi4vjeb6goECtVv/xj388fPjwunXrRPKegKbpurq6mpoatLGq38YkhmF8Ph+GYS0tLeji37Rp06JU6ZB0dnaWlpYSBLF58+YtW7ag9W2e56dOnUpR1N///veioqLCwkKlUhntSgEAIArKy8sbGhruu+++p59+OjU11WaznT17NhgMPvzwww8++KDBYECpY8qUKRzH7dixo7S0NCMjw+/3sywrkowtkUhmzpw5efLkb7/99vjx4xcvXpw5c+btt98+ZcoUlUoV7dJCqaioqK2tXbly5dq1a+Pj410u10cffVRUVJSYmHjPPfcsXrxYqVRiGDZu3Lienp4vv/yytrZ25syZQ9kwLIyioqLi4uK77777iSeeyMnJIQiC53lU4eeff+7xeFavXj1r1qw5c+b89re//fTTTxcsWJCUlCTksirP89d7lhYXF587d27VqlVr167NyspSqVT9CkPbImbOnLl169YTJ04sXrw4OTl54LInx3FR+UXQ6XS33347TdMvvfTS6dOn169fP2vWrJhesh4Uz/MRvaJHkiSO42H8vsVG0AIjJ5PJxo0bt3HjxosXLx44cGD58uULFy6MdlFD4nQ6rVbrokWLJk+ejF7R4uPjV6xYQVHUn//85127dmm12hdeeEFUK/B9dXZ2NjU1LVu27I477lCpVDzPS6VStPNnyZIlcXFxEokEwzCDwTB//vwpU6a0tbV1dnYK30w1qIKCgl/+8pdbt249e/bspEmTHnrooXHjxvV+9uLFi2+//bZCoXjuuefQNenExMToFXtjDoejs7MzMzNz8eLFvZ35GIaZTKaFCxceOnTIbDb39PSkpqZGt04AAIgKi8VCkuSsWbMyMjIwDHM4HFarNScnZ+bMmb3d1xiGJSYmLl68+Ntvv62vr29raxPbXhutVrtgwYJJkyYdO3bsq6++2r9/f3l5+YQJE2bOnDlr1qzU1FRx7tlubW3FcXz+/PmTJk2SyWRJSUkLFy48f/58Xl5eXl4euv7L8zxFUZMnTz569Gh7e7vH4xFPzD5//rxMJlu2bFlubi56t4ZhWEJCQmFh4YEDB06ePLlo0aJx48bNmTPn7rvv/tOf/tTY2LhgwQIhFxVCxOz6+nqVSrV06dL8/PxBe4YxDFOr1fn5+bfddtvly5fb2tr8fv/ACzdRvNikVCpXrlxZVVX1/vvv79+/Pz09XeRvyYbB6/V6PJ7ITX9Qq9XhXYOEmD2G4Dg+ffr0H/zgBwcPHmxra4t2OUOFXhYJguj7wqdSqRYuXMgwzO9///uPP/7YaDQ+/fTTUSwyBL/f7/f7TSYTejnGMCwpKWnSpEldXV39/rqQJGkwGND4xCgV25/JZLrzzjszMjL+9a9/HT58+ODBg4888sjy5cvRexSCIPR6vUqlmjt3bt9N8qKlUChUKpVKpRq4+12pVFIU5XK5/H5/VGoDAICoQyuQwWAQredQFEWSpNvtHthFiba5siwboUFEI6RQKPLy8uLj42fMmHH69Oljx44dOXKkvLx87969qamp2dnZqampcXFx48ePF8/YUZZlZTJZ3wlMSqUSx3G0wtb3lugdkajeLUgkEofDIZFIVCpVv5hKURSO49euXUMb0GQyWVZWFkVR3d3daAu6MOXxPB+iaTwYDBIEMbD4fjAM02g0BEEwDDNo2IvWajai0Wg2b97sdDr9fj+a8T6acBzncDgYhonQ/cvl8vB2jEsgZo81Wq22sLBwxowZ4hmydUMqlYqiqCtXrqD5K33/fenSpU6n87/+67/effddrVYrzut26A9kY2Ojw+FAS+4mk2nz5s2LFi3qt2Td1dVVW1sbFxcnqpEtarV67ty5KSkpEyZM+OSTT1566aULFy5s3rxZzI36/TgcjtbW1oSEhMTExPz8/CtXrrS0tEyaNKn3BjzPX7t2rba2dsKECTH0qwEAAOGVnZ0tk8mOHj06e/ZsFEHz8/NramouX76MNmajm3V3dxcVFZnN5uXLl4feAhpFGIYZjcbZs2fn5OQsWbKkpqamoqKiurq6traWoiiKopRK5TPPPHPbbbdFu9L/YTKZPB5PfX39tGnTtFqt3+9Hg1EbGhosFkvvNmae5+vr6y0WC9on7/V6SZIUQ3uw0Wi0Wq21tbWzZ8/uO5vt/PnznZ2dEyZM6D0EDkXugZcPIip0+o2Pjz9z5kxdXV1eXl6IpzRN0xUVFTabzWg0DtpHMPQzwyIkJyfn2WefZVlWnG+JR8LhcHg8nsgNWUTXg8L7qyR76aWXwnh3QOQwDFMqlfHx8WJr8QqBZdkrV64cP37c7XYnJCRQFNX7Sk0QBBpTcfz48YqKisbGxoaGhuzs7AceeCC6NffFMEx9fX1RUZHNZjOZTHq9XqlUmkym7OxsrVaLLpt5PJ5Tp069/fbbFy5cWLFixZo1a0Q1L10mk+n1+ry8vJycnI6Oji+//LK+vt5oNGIYduTIERzH16xZI86TRdCBXrW1tWVlZV9//XVpaWlzc/Ply5cZhpk6dSpK1A6H48iRI++8805DQ8OqVauWL18uqm8+AAAIRqfT1dbWHjp0qKWlRaFQJCYmJicn19XVnTp1imEYtVrNsmxFRcXWrVv37NmTlJRUWFgoqkFQNTU1lZWVeXl506dPR8ukUqmUoqikpKRx48ZNmzZt/vz506ZNS0hIUCgUHMcVFBSIZIuWRCIJBoNVVVUVFRUdHR3Nzc0HDx48cuSITqdzOBxutzsxMVGv19M0ffz48T179kgkklWrVqWlpTEMg+M4GtYV3fq9Xm9xcXFpaSnHcQkJCRqNhqbpI0eOvPnmm9XV1ffff/+yZcs8Hs/XX3+9bds2m822YcOGyZMnC/kH1+l0Xm8tVKFQVFRUlJWVWa1WDMMIglAoFL21BQIBq9WK5rd98803mZmZa9asGXRjOVrujuKuBKlUqtfrTSaTOHdGDBtN0z09PZHrN0T7B8N+xQpWs4HYpaWlrVu37ty5c+jcyHvvvbdvf7her1+3bp3f73/ttdcOHTokwo7fzMzMDRs2NDU1vffee1evXn322WfnzZsnk8l6G5M6Ozt37ty5ffv2tra2efPmrV+/XoTT6TAM0+v1y5YtS09P37t372efffarX/1q3LhxDodDzENlxo0bt2XLljNnzjQ2NpaXl584cQLDMI/HU1JSUlpampWVZbFYduzY8fbbb3d0dNxyyy1r164N40EOAAAQW9LS0r7//e97vd7Dhw9XVlampaUZDIarV69eunSpubn5ww8/JAjC4XBcvXo1Pj7+7rvvzs/Pj3bJQyKVSrVarVarzc7Onj59usvl8ng8NE0nJSVFu7T/NXny5LvuuuvDDz/cv3+/Uqn0er25ubnr1q07ffp0UVHRxYsX4+LiWJY1m81Op/OBBx7Iz8/ned7r9XZ1dRmNRo1GE92/X4sXL77nnnu2bt3617/+dc+ePQaDAVXb1NR06623rlixQq/Xv/POO++++67ZbN6yZUtBQYGQBYc+0XrChAkPPvjg9u3b9+3bd/LkSa1WS5KkQqGQyWTBYNDv99M07XQ60XiXjRs3ZmdnD3pvgUAgiufGj1Ycx6HzAiPXKdDvwkq4iO7dPBBAIBC4evXqkSNH6urqGIYZ+KydOHHiU089FZXaBlIqlUuWLPnP//zPzz77rK6uzm639/0shmHx8fGbNm0ymUzbtm07ffp0tOq8HpIkly5dqlAo9u3bx7LswCnWwWCwq6vLbrffd999Dz74YN9mZrFRKBT5+flxcXG5ubkfffTR/v37fT6fwAdy3JSUlJQNGzasWrXK6XQ6HI7u7u7m5ubGxkYMw1BLWzAY7OjocLlc69evf+ihh2LlLSMAAESCXC6fM2fOSy+9dPTo0SNHjlRVVfX09AQCAYZhLBZLc3MzSZJpaWnLly9funTp9OnTb3g8r8BkMhlBECGWdjEMI0lSJGd59ENR1MqVK1NTU6uqqqxWa3x8/KxZs1AfmUqlQlPTpVJpdnb2Qw89tGrVKrS/jOd5mqYtFgvHcVqtNoqX6fV6/WOPPRYXF/fZZ5+VlZWhLf2ZmZmPPPLIxo0bp0yZgn46BQUFTzzxxIoVK0T15kGhUCxZsiQpKen06dPl5eVNTU02m43jODRaXy6Xm0ymnJycFStWzJ49Oz8//3oLDBzHob7xqDcXjCZOpzNyh3gharU6Euv/mHgOYADCCAaD5eXlv/3tb2tqaux2+6DTGlasWLFr166olHc9NE2bzWar1RoXFzfotC2Xy3X58uWamhqSJNevXy98haH5/f7Ozk6aplNTU/u9L/H7/S0tLZ2dnenp6WlpaSJcyh7I6/XW1NTs27fv8OHDc+bM+fnPfx4TW7UZhnG73U6nMxAImEwmg8Hg9/ubm5s7OzszMjJEO34WAACExPO8w+Foa2vr6emx2WxOp9Pr9bpcLo7j1Gq1TqeLj4+Pi4vr3cAlHh0dHdeuXYuPj09JSYnR13OWZV0uF03TJElqNBq5XB4IBNrb29vb251Op0wmMxqNGRkZOp2u38obQRBGo1Gn00X3XYTNZmtpaenq6nK73XK53GAwZGZmJiUloWdLR0eHx+NBWxeFD6JoT3iI4INWTS0Wi9Pp9Pl8fr+f4zgcxwmCIElSq9XGxcVptdrQi/Dx8fFGozEm3svFBL/f397e7vV6I5dY5XI5enMe9uckxOwxp729/e9///vrr78+ceLENWvWxMXFDXwtSE9PX716dVTKGwme530+H8uyoj3cazQJBALd3d1ms1mj0WRlZYnnTBEAAADhgjpmUd7mOE4Me4DHLDQBPkRfK47jBoNBr9dH/RIDGusdulrhmc1mh8MxxOCDvgR0COtNfRVarRZt/h9umcPR3Nw89C9NIpGMGzcuJoY0cRyH+j0jupSt1+sTEhIi8VsD11rGHIvFcvbs2aysrP+iTPbQAAAgAElEQVT3//7frFmzBt3uL+btqYFAoKWl5ejRo1euXBm0433q1KmPPfZYVGobikAg0NTUdOzYsYaGhkHrLygo2LJlS1RquyGWZRsbG4uKihobGwctfvbs2Zs3b45KbUOBxukVFRU1NTWxLDuw/vnz54tqfh4AAESR3++vrKxEr5k+n2/gjN9Vq1YVFBREpbYbwjCMZdna2trKykqLxdJ3BDT6PzzPr1mzZtq0aVEt87r8fv/FixfPnz+P+vYH/sG68847J0+e3PdfWJa12Ww8zxsMhugmbfTNLysrKy4u7urqGvTUt4cffnjGjBlCViWVSlET+FBujGHY8N4M0zQt/Pbst99++/jx40N/3L/85S/z5s2LaElh4XK5It0uLpPJUNtIJO4cYvaYwzCMy+VKSUlZtmzZwH3CIhcMBs+ePfv73/8+RMf7HXfcIdqYHQgETp8+/Yc//OHixYsOh2PQ+p1OpzhjdiAQOHHixJ/+9Kfa2trrFe/z+UQbswOBwNGjR//85z9funTJ6XQOWj/HcRCzAQBAIpH4/f4PP/zw/fffb2hoQOfoDHzNzM3NFUnMlsvlqLkXjd1Gvdbbt2//5JNPWltbaZoeeI2A5/n58+fHxcWhzefoJGSR9HgyDLN79+6vvvrKbDajyU8DC5sxY0a/mC35v0k7il39fr//rbfe+te//tXc3DzoBRqJRHLLLbcIHLNlMplUKo3ciVAIy7LoOr6QfR/Tpk07ePBgdXW1UqnMysoS7TF7N4WmabvdHrmDshF0tl+EflgQs8cckiTj4+Npmvb7/TEXszs6Ovbu3XvixInJkyc/8sgjg3a8i+dwjoHa2tr27t176tQptORuMpkG1j9u3Lio1HZD165d27t3b3Fx8bRp01asWDHo1qPc3Nyo1DYULS0tn3/+eUlJSUFBwe233240GgdeqIYRaAAAgFRVVe3evbumpmb27NlTpkxRq9UDW2cFjkn9yOVyhUKhVCqVSqVcLkchSiaToV7l0tLSb7/9tqWlZdmyZegk54H1L1682GQycRzHcVwgEAgEAv7vDNrxJBh0rFpra+u8efMmTpxIUdTA4q83MDUQCNjtdp7njUZjtJJ2WVnZ7t27Gxoali9fXlBQMOiTR/g+ghBbHtDW96H/xNPS0q4XZdEGRpVKJWRDQWFhoVqt/t3vflddXV1YWFhYWBi6JzwvL0+w2oYHHaIW0S3Zku/OIIjcRnqI2WNOUlLSsmXLtm/ffuDAgQ0bNkS7nJvT1dVVVlaWk5PzH//xHwUFBYN2vIt57ERHR0d5efmECRP+4z/+Y8aMGYNePxNt/W1tbZWVlZMmTfr1r389ffr02CpeIpGYzebz589Pnz79V7/61dSpUwetP+r72QAAQAw4jquqqqqrq1uyZMmmTZvS0tJwHBfJayaO4yRJqlQqhUKB0jUK2P1uVlNT09jYeNdddz399NPZ2dmD1o/uofdDlLeDwWAwGGRZlqZpj8eD5mBF/Kv6v+rq6tra2pYvX37//fenpKQMmg9DROhAIIB26hqNxqhMTjl//nxra+v69esff/zxjIyMQUsVvjC5XH69Xda7d+8+c+bM0JuTX3jhhVmzZl3vsx6PR6fTCfnbodPpli9fTtP0b37zm+Li4vXr18+aNSt2xyjwPG+z2dDYxYg+kEqlUiqVkZsgIN73xCBCVCrVzJkzjx8//uqrr166dGnixIkDrzLGx8fPnj07WhWGgCZFp6WlLV26NOaW4iUSCcMwHo8nOzt78eLFMVe/3+/3eDwTJ05ctGhRzBUvkUhomvZ6vfn5+QsXLoSBbQAAcD08zzudzo6ODr/fn5+fP2HCBDFcQpXJZCRJog5P1Bkeeuusy+ViWXbmzJlTp04dYuBBw67QF8vzvEql0mq1DMN4vV6v1+v3+wVb3/Z6vcFgcPLkyePHjx/eN783aZtMJuH/5LlcrmAwOHfu3MmTJ4vhyYOgTodBP5Wbm3v8+PHLly/jOJ6amnq987p6hU6w6JztSJzDHIJSqVy1alV1dfX777+/f//+9PT0xMREwR49vBwOh8PhGHRLfxhJpdJIXw0Ry1MfCMZisRw5cqSysrKjo6OlpQXNyej3erFkyRJxxmySJE0mE2rrisWkp1KpjEYjy7IMw8Rc/b3FD3r6t/hRFGUwGNA3H2I2AAAMCmVsq9WqVCpJkmRZNhgMRjcp4TiuVqspilIoFDiOD3EwlclkUqlUfr8/GAwO4500hmE4juM4rlQqVSoVy7J+v9/r9Xo8HpZlb/6LuDl6vV6hUDAMM5LVvGAwiBqhTSaTwH+10SOib754YnaIJ8/ChQtJknznnXcuXbq0YMGCZcuWhd7enJGREeKzPM97vV6KogRu2tdoNJs3b3Y6nei5KuRDh5HH47HZbJHeki2RSCiKIkkyopdCZC+99FLk7h2IkNfrbW5uDgaD+fn5mZmZiYmJcQPk5eUtWbIk2pUOQiaT9fT0FBcXp6WlXW9XkpjJ5fKurq6SkpL09PSJEydGu5ybg+N4e3t7WVlZRkbGhAkTol3OTcNx3Gw2V1ZWZmZmin9XEgAARIXL5bJarTRN4zheV1fX3t6enZ2dkJAQlWIUCoXBYDCZTBqNBm12Hfp7YoVCUVlZaTabJ02alJSUNOwa0MRpHMcVCgVJkiRJyuXyYDAY0XZWgiBqamq6u7vHjx9vMpmGfT88z7MsGwgECIIQMu4qlcqSkpKurq6pU6fGx8cL9rihSaVSt9vt9/sHfoogiKSkJIPBUFdXZ7Vab7nllilTpiRc3w0v1geDQfSMFbhzW6fTTZw4cdq0aTF6dDzDMBaLJdJbsiUSiUwmi4+PH3TzaRjBudljDnoGO53OELehKCo9PV2wkobO5/OdPHnytdde6+rqKiwsHHQuSGJi4syZM6NVYWher/f48eN///vfrVZrYWHhhAkTBtafnJwc3aEy1+PxeI4ePfrGG284nc7Vq1ej4vu9PKWmpor2cBS323348OE333zT5/OtXLkyLy9vYP3p6elTpkyJVoUAABBdbre79z2u0+k8ePDgvn379Hr93LlzU1JSFApFv9fMcePGJScnR6IShUKh0WhQi3iIXt8QrFbrjh07PvzwQzSSJj09feBIjqlTp6alpd3U3fI8j1rqvF6vy+WKUCe5w+H44osv9u/fn5iYOHv27OTkZIIg+hWfl5c3xMsfUqlUo9HExcUJtqZtsVj++c9/7tixIysra+nSpWlpaQOfPAUFBSO5/DE8HR0d6AT4QT/r8Xg++OCDPXv23HHHHRs2bBjhBQKTyWQymWIx60ZLMBjs7u6O9CnZiMFgiI+Pj/RPRyyNHEAwBEGkpKSkpKREu5Dh6O7uPnr0aGVlZWdnZ1NT06Ad77fddptoY3ZnZ+eRI0fOnTvX3d3d2Nio1+sH1r969Wpxxuz29vajR4+eP3/eYrFcuXLFYDAMHMpy5513ijZmt7W1ofqtVmtdXZ1erx9Y/7333gsxGwAwNvl8PpvN5vP5UG5samoqKytrbGxkGKa2tpaiqIENt0899VTYYzaO4xqNRqPRDDtgIxcvXiwqKrp06VJVVVV5eblarR54b7/5zW9uNmajZnK5XK5UKtVqtdfrdTqd6Myt4dU5qPr6+rKysqampvr6+gsXLqhUqoHf/Oeee26IMZvjOLfbLZFIBEva1dXVx48fr6uru3jx4tmzZ9E3v99t/vu//1v4mE0QhEwmu17MpiiqsLDQ7XYHAgGfzzfCx3K5XGq1OsR4c9AXz/N2u93pdAqQsXEcj+iA8V4Qs8eEnp6eiooKhUIxadIkkiTr6urMZnOI2yckJMydO1ew8oZOLpcnJCTMnz8/xG1SU1MFq+dmyeXyxMTEBQsWhLiNaK+A4DielJS0cOHCELeJ0LJGWMjl8uTk5MWLF4e4TezOCwEAgJFgWdZut6PzsdG/4DienJwc+g9u6EODbpZMJqMoSqfTocbsEYYTdIDw8uXLQ9xGp9MN784xDEOncysUCpVK5Xa7nU4nwzDhCtsEQaSmpob+g3tTZyMHg0Ehk7ZSqUTT3UPcJrxPniFCMTvE7vq0tLRNmzYxDDPyXneWZd1uNxooMMK7GvV4nnc4HHa7PdJjzxCdThe5s7L7gqbxMaGsrOyFF14wmUw/+9nPUlNT33jjjf3794e4/ZIlS9544w3Byhu6oXS8q9Xqm704LRi/32+xWFwuV4jbaLVacSZtv9/f3d2N/k5fj2iLl0gkNE1bLJbQ9ev1euEvrgMAQHQFg0Gr1Wq1Wvu+x/V6vTabbdCNrL3i4uK0Wm1YaiBJUqfTqdXqm9qAHQJqgKdpOsRtkpKS9Hr9yB8rEAjQNO10Ol0uV1hywlCmQCUkJNxU0pZIJDKZTK1WC5C0XS5Xd3d36PpTU1OFT9osy5rNZo/HI8zDoS3farVa4AVtn89XUlJy5syZnp6eQZ+QTz31VH5+vpAlheZ0OtFvqwCxVKlUJicnR3pXNgKr2WOCSqXKzc3V6XRo7GFKSkro3y7RxtSY7niXSCQKhULMi+2hKRQK0T4xhkKpVMZ0/QAAEAloG/bA43NUKtUNjzUKC7lcrtFo0PrSEKeID4Varb7ZFDpscrkcvb+iKMrhcPRtChgeiqIoigpXeb0EW9NGbf+Ru/9hk8vl6DqOMGehMwxjt9sJghDyfBOapv/6179+/vnnra2tNE0P+pXecccd4onZbrcbjV0UIGNLpVKDwTBwUkCEwGr2mOD1es1ms0wmS0xMxHHcYrE4HI4Qt1er1eIZgWaxWCorK5VK5aRJkxQKRX19feiO96SkJFGdRtbV1XX+/HmSJCdOnEgQRH19fVtbW4jbp6SkiGdveUdHR3V1NUVR+fn5crm8vr6+vb09xO3T0tJEtbG8ra3twoULGo0mPz9fKpXW1dV1dnaGuH1GRoZo95YDAEAkuFwui8WCtmQ3NzebzWaTyZSRkUHTdHNzc+j2q9zc3BFe+CZJUq/Xo0Xskb/xvXTpUnNzc3Jy8vjx491ud11dXeh3O9OnTw/vux2O41CrsN1uv9npaA0NDe3t7QkJCRkZGW63u7m5OfSia35+/vA2OkVoTbumpubq1atpaWk5OTkOh6Ouri70k2fWrFlR2WhmtVotFosAp7IhaKK1Xq8P4yWk0IqKil588cXW1tbVq1dPmTJl0LX0NWvWiGThwev1dnd3e71eYS586HS6+Ph4wa56wGr2mIBWs3s/jK0F4fr6+t/+9reJiYkvvPBCQkLCjh07Dhw4EOL2t99+u6hi9qVLl15++eXU1NTnn3/eYDB89NFH33zzTYjbFxYWiidm19TUvPzyy5mZmT/5yU/UavUHH3xw+PDhELe/6667RBWzq6qqXnnllfHjxz/77LMKheKf//znsWPHQtz+3nvvhZgNABg7fD6f3W7vXUcqLi7+4osv5s6de99993V2du7cufPKlSsh/vPvf//7w347gcZf6/V6kiTDlUAOHjy4Y8eOlStXPvHEE01NTW+88UZtbW2I2//mN78Jb8yWSqUKhQINSLPb7S6Xa+jznI4fP/7NN98sWbJk3bp1zc3Nn3zySXNzc4jbP/fcc8OL2RFa0967d+/nn39+1113PfroozU1NW+++WboJ8+f/vSnqMRspVIpl8tDx2y/319dXV1VVWWz2YLB4MDLJffee+/48eOH8nDBYNBut6PT14VZQS0vLzebzQ899NDDDz+cmpo66JgDgc9Rvx6fz4eONhAmYxMEodfrhTzMHGL2GOJ0OktKSkpKSux2u9FonDNnzqJFi4RpCRsJiqLGjx9vNBpVKhVBEMnJyaEPbRZbVzaqPyEhQaVSKRSKlJSU0PWLaoqYWq0eP3482sSCOt5DFy+2jc0ajWb8+PHp6ekkSeI4HnP1AwBA5AQCAafT2bfD2WAwZGZmxsfHEwRBkmRKSkroncbD3piN3u9qtdqB51SNRHx8fF5eXlJSEkEQarU6Kysr9Nv3sGzMHkgmk6Ezk1HYHuKyttFozMzMjIuLw3FcpVLd8PrFSFriI5G0ExMTc3NzUdekRqPJysoKffUkWl3laCZZiBZlhmF27tz5zTfftLe3X+9mCxcuHGLMlkgkfr/fZrPhOC5MwHM4HBzHLVq0KD8/X7Al9GFA44pGvsNiiDAMMxgMwmzJ/t8HhabxMeLq1atbt27du3dvR0cHwzAoMhUWFj7zzDMijxYej6etrQ3NGMdxvLu7O/QINI1GI5JOGMTtdre1tREEkZCQIJPJbjjCTavViudKgcvlam9v7y2+u7s7dA+YTqcTVaOE0+ns6OhQKBQJCQkYht1w/pxerxfVZQ4AAIgQdHyOxWLpO6fKZrM5HA6VSmUwGFiWjdAINHT/6Kyj4ZR+fV1dXTabTavVmkwmhmG6u7tDj0BLTk6OUNJGgsEg6hdwu903XNbu6elBR0DpdDqGYSIxAq2f8HaPd3R0OBwOnU5nMpnQKmXoJ09qamq45ufdrO7u7n4D//qqqKh49dVXr169umjRory8vEFXoRctWnRT73ZkMpnJZEInoQ6/7qF5/fXX//jHP/7hD3+4++67hVy5vSno19PpdAqTsSUSiVarTUhIEHKTvARi9hjhdDo//fTTX/7ylwzDLFy4MC0trbW1taSkhKKoH/7why+++CKc6QcAAACMHR6PB22JFPJ9IIZhGo3GYDCoVKqwjBMXP57nWZZ1Op12uz2MJ36Fi0wm02g0JpNJJF3EwvB4PJ2dndc7Gfujjz7avn37ihUr7rnnnsTExEGbrtHBYDf1oGjFQqPRRPqZX1VV9cwzz+Tl5f3yl7/MycmJ6GMNT++xQQIckY2gZliKogTOO9A0PiZ0dnYeOnQIw7Cnnnpq06ZNarXabrcfOHDg1VdfPXz48MaNGzMyMqJd4w3Y7faSkpKzZ886HA6TyTR37twFCxaIv+O9l81mO3PmTFlZmdPpjIuLmzt37rx582KlfqvViop3uVzx8fHz5s2bO3cuSZLRrmuoLBbLmTNnysvL3W43Ond99uzZMVQ/AACEF8uyDocDjT0b+NmOjo6KioqGhgaGYZKTk2fPnn3DM5CHQiaT6fV6vV4f6TG/ra2tJ06cqK2tZVk2IyPjlltuycvLi9ayHoZhBEEYDAalUmm1Wm/YIms2mysqKhobG4PBYEpKypw5czIzMyO3BBoMBlGTV7iSdlNT04kTJy5fvhwIBLKysm699dZx48aJ7eBokiQJgrheQzhqPZg+fXpOTk4Ym64Zhunp6ZHL5ZHepJ2cnFxYWLhr165f//rXixcvTklJGfjknzNnTlxcXORqCKH3aFvBMjaGYWgGhPBrihCzxwS73V5bW5uZmbllyxY0wR+9shw7dqyjo6O+vl7kMbulpeWdd9754osvOjs7GYZBJzOtWbPmBz/4gcg73pHGxsZ33nln//79XV1dqP709PQ777zzySefHN78EiHV19dv3br1wIEDqHiSJNPT0+++++7HHnssISEh2tXd2KVLl7Zu3fr11193dXWxLEuSZEZGxrp16x555JH4+PhoVwcAAELjOM7pdLrd7kHzXmVl5WeffXbu3Dm0w1OlUh06dGjdunXLli0bSYsyjuMGg0Gn04VlongIJ06c2Lp165kzZ6xWK8dxarV6z549Tz755Jo1a6J4xJRMJqMoSi6X22w2p9N5vXbls2fP7t69u7q62uFw8DxPUdShQ4fWr1+/ePHiyF2XD2PSPnz48LZt20pLS202G8/zWq12z549P/zhD5cvXy7Y4WpDIZVKKYry+XyDtuUbDAaCIBiG4TguvHubaZq2WCwJCQlKpTJyvwWVlZUnT568cuVKfX39qVOn1Gr1wPXzf/zjH1GJ2T6fr6enZyh7KMJIq9VqtdqobFOHmD0m+P1+q9U6YcKE7Oxs9C8YhplMpgkTJjQ1NXV3d0e3vNAcDsfXX3+9devWQCCwcOHC1NTU5ubms2fPvv/++1qt9vnnn492gTeAGgfeffddnucXLFiQnJzc1NRUVlb23nvvabXaH//4x9EuMBSr1bp///733ntPKpXOnz8/KSmpoaGhvLz83Xff1el0Tz/9dLQLvIGenp4vvvji/fffx3F80aJFCQkJ9fX1lZWV27Zt0+v1Tz75ZLQLBAAAoXm93uslvc7Ozv379x86dMhkMi1YsIAkycuXL9fU1Ph8PqPRuHDhwuE9okKhQBk70htTW1tbP/jggz179iQnJ69atUqpVJ47d+7s2bNerzchIeHWW2+N6KOHhmGYUqk0mUwEQQy66b2trW3fvn1HjhxJTExcvHgxQRC1tbVVVVV+v99kMs2aNStytYUlaTc3N2/fvn3fvn2ZmZlr1qwhCKKsrKy4uJim6aSkpPnz54e15JFCJ5wPGrMLCgpSUlKKi4unTZuWmZkZxgfled7j8Vgslvj4+Mh16SuVypycnNDXZaLSTen1eoWceYaQJImumwj2iH1BzB4TOI5jGEYqlfZ9nsnlcrVajeZzRLG2G2prazt06JBcLn/yyScfeOABtVpts9m+/PLLv/3tb0eOHLn//vvFc8T3oK5du3bkyBGlUvnoo4/ef//9FEVZrda9e/e+/vrrR48evffee8Uz8Gyg1tbWY8eOURT1+OOP33PPPRRF9fT07N69+6233jp27NjatWtFNfBsoObm5qKiIq1W+8QTT6xdu5YkyZ6enl27dm3btq2oqOiOO+6AgWcAgDEF7RO+XrvspUuXqqurMzIyNmzYMHPmTLlc3tXVtWPHjpMnT54/f37KlCnDmFlFkqTRaNRoNAKsJlVUVJSVleXn5z/zzDMLFiyQy+Vms/lvf/vboUOHSkpKCgoKIjrwbCjQiHUcx61Wa7+N8TU1NRcvXhw/fvzGjRunTZsmk8k6Ojr++c9/lpaWVldX5+XlRXQ1fuRJu6SkpKKiYvr06T/60Y9mz54tk8muXr36xz/+8dSpU6WlpZMmTYrWwLNB4ThOkiRN0wOXVePi4hYvXnzw4MHXXntt1qxZaHZ6v8XnSZMmGY3GYTwuz/NutxvDsMid3jx9+vTU1NTQ8/MEbmJFXzV6zguZseVyuclkikq7+P8UEJVHBQLjeZ7jOAzD+j7P0Ic8zwvZuTEMNpvt8uXLOTk5Dz74IDqNKTMzMxgMFhUVtbe3X7lyReQxu6enp66uLjc3d/Pmzej08szMTIZhTpw40d7e3tDQIOaY3d3dXV9fn5+fv2HDBnR2RUZGhs/nO3nypNlsbmpqEnnM7uzsbGhomDJlygMPPIAGgWRmZrrd7tOnT5vN5ubmZojZAIAxxe12h1hNunbtmsViWb169dKlS1FPaUpKitlsvnz58tWrV3t6em42KalUKpPJRFGUMB2bjY2NnZ2dW7ZsKSwsRNuaMjMzr1y5UlVVVV9f393dHfWYLfluvrdcLrdarX27Z1tbW61W63333bd48WKDwSCRSFJSUpqbm69cudLS0uJwOCLd9D7CpF1XV9fT07Nx48aVK1eaTCaJRJKZmYmuHVy+fNlqtYoqZqNpfB6PZ+BS0+XLl8vLy1taWpqamqqqqgY91/0Xv/jF8GK2RCLhOA4l7bi4uHAl7fPnz7e1tWVmZubk5Ljd7tbWVo/HE+L2cXFxFEWF5aFvKBgMOhwOu90e4hC1SMAwzGg0UhQVxWmLELOB2NE0bbPZMjIysrKy0L+g16bc3NyioiKLxRLV6m4MHeaRl5fXe+0QXcUcN25cSUmJyOunadrhcBgMht5rGVKpNDExMScn59y5cz09PdEt74Z8Pp/D4TAajb1nvEml0qSkpOzs7NraWqvVGt3yAABASDRNu1wulmWvdwOPx0PTdGJiYm8clUqlqampJpPJ6XR6vd6bejiKolDGFuxtrsPh8Hq9aWlpvRFIJpPl5OTEx8ej8WPClHFDUqmUJMn4+Hgcxx0OB/qJuFwuv9+fnJzcG0elUmlGRoZer7fb7cI0Ho4kaaMiMzMzdTod+heZTJaXl2c0Gi0Wy80+eQSgVCpJkmQYpt9qk0KhSEtLC91mPMIpquj7zPM8StojX2vdtWvX119/vX79+i1btlRWVr755putra0hbv/WW28JM54GHU3ndDpZlhV4zL5Op9NqtQKcoBYCxGwgdoN2vOM4rlarA4GAyDveJd/VL5PJ+tZPEARFUSzLhj7SM+qCweD1ig8EAiIvXiKRBAIBlmVlMlnfMacEQahUKvF/8wEAIIw4jnO5XNebLo4EAoFgMCiXy/u+N1UqlQRB+P3+6w3uGpRarTaZTAIf3MWybDAYJAiib/0qlUqhUNA0HeL6gvAwDFMoFEajES1rMwyDvvk4jvddO1UqlTiOo88KU9iwk/ag33yKotBMb8HqHzqpVKrVar1eb7+YnZubGxcXF/rZMvL5u+j7zHFcXFzcyLuak5KScnNzExIScBzXarXZ2dmhLwQIszfb6/Wiy1vC//RVKlUUt2T3gpg9htTW1j777LO9H3o8nqqqqp6enh07dlRXV/e95aRJk5566inBCxwcz/M8zw/seJdKpagZPoq1DcWg9Uskkpio/3rFYxjGcZzIi0cGffLEUP0AABAWHo/H5XKFfr/b+5rf9x/Rh+hTQ3wsjUZjNBqFPxx70CKlUqloX/NxHNfpdDKZzGq1Dvrt7f2DJeRK4PCS9qDfXvTkEbj+oSNJUqVSMQxz+fLlzs7OpKSk9PR0r9fb0dERevldp9ONPKmi7nGUtEd4pPO6detWrFih1+u1Wq0Y9mYHg0Gn04lODRT+9w7HcaPRGNFx7kMEMXsMMZvN27dv7/2Q53mGYViWLS4uLisr63vLlStXiidmS747fgyIjfh/LuKvEAAABBAIBFBPcuibheU1U61WRyVjS2LzNV8ul6PThkbYhxxe4T1PW7Q/l94F7W+//fb48ePLly9fu3ZtXV3dzp07zWZziP/w3//939H+8wskQyUAABJOSURBVBHied7r9XZ3dweDQY1GM+xfmb6DcnQ6XW/fflT4fD6bzebxeIRvFJdIJDKZzGg0DnqMmfAgZo8JmZmZzz//vNvtHuLt8/LyIloPAAAAAATjdruFmfFLUVS0MnbsQsc4h2WPbhiFN2mLFkmSFEUlJiZmZGSgHn6KolJTU/vuNRv0vwpXATzP+3y+7u5uv99vMBhCP25oV65cOXHiRH19PcdxOTk5t912W1ZWlpCbk6O7iC2RSDAMQ2cHRuWU7IEgZo8JKSkpjz322NCf8RE6Y2Akqqur+3W8nzt3zmKxfPzxx5WVlX1vOW3atMcff1zwAm+gsrKyb/1ut7uysrKrq+uDDz4oLS3te8uZM2c+/PDDghcYSmlpad/iXS5XRUUFOmjkzJkzfW85Z86cBx98UPACb6C4uLhv/U6ns7y8vL29ffv27SdPnux7ywULFmzYsEHwAgEAIIJYlvV4PKGbSPv65ptvWlpaej+0Wq1NTU0cx33wwQcHDx7se8uVK1fOnDmz98PeueLRzdiffPLJhQsXej/s6uqqq6vDMOzPf/5zYmJi31tu3LhRJOc5S6VS9E3bv3//xYsXe/+9p6fn6tWrMpnsvffe67d8euedd06ePDmiVQ0jab///vunT5/u/bCjo6O5ubmjo+MPf/gDml3f69FHH50xY0Z4Cx4GqVSq0+lWr149c+ZMjUaj0WiE2ZvdF8/zfr8fnaZuNBpJkhzGb9DBgwe3bdtWWVlpt9t5ntfpdJ9//vmPf/zjpUuXCrATGy3LOxyOaC1iSyQSDMP0er1er4/u2LO+xFIHiCiCIISZKBg5ra2tg3a8nzx5sqSkpO8t77jjDhHG7Obm5n71o3EyJ06c6JdUXS6X2GJ2Q0PDoMUXFRX1/WsqkUj8fr8IY3Z9ff3Vq1d7P0T1B4PBY8eO9YvZPM9DzAYAjDIej6ffEc2hVVVV1dbW9n7IcRzqNj9+/Hi/NaLc3NzemI3Ox456xpZIJKdPn+57/ZrjODTw8ssvv+xX/+zZs0USs3uVl5efP3++98Peb/6xY8f6FT9jxoxIx2zJzSftY8eOnTp1qu9/TtM0hmHd3d39nhi33nqrGGK2RCJRKpU5OTl6vR5Fa7VarVarhS8jEAi43W6WZVHX901lxYaGhq1btx44cGDcuHGLFy+WSqVnz549fvw4ml0/ffr0yJXN8zw6lcbr9fr9/ihOQFCr1WjsmXi6QiBmA7HLycl54YUXht7xPmnSpIjWc7Nyc3Off/75oZ8jMnXq1IjWc1Py8/NfeOGFoRcvkj+ZvSZPnvzCCy8M/RyR2bNnR7QeAAAQGMMwaH1pKDeeM2cOjuNDn8jdu8VMoVAYDIao74e8/fbb1Wr1Dbeg9xIgpg7dypUrDQYDajrw+Xw3bLvNzs4WprAhJu3CwsLExMShN03k5uaGp74RwzAM7dBuamoqLy9vbm7mOC41NXXevHmpqalCLo1yHOfz+dBJLmjK2hB/oU6dOnXu3Lk5c+b86Ec/mjFjBoZhLS0tv/vd78rKysrLy8eNGxehCwd+vx+tYKPVi0g8xBChVhoxjD3rCxPtWAIAEIZhHA7HTXW89x74KQZ+v9/pdA69fqVSGd3ZFX3FdPGS7w6JHXr9JEn2HlgKAACjgM1ms1gsQww/Xq+XpumhvzOkKEqpVMrlcpPJJIZeTbQFfej1a7Va8Qwe63vcGsuyDofD4XCEmAyvVquF3OInk8k0Gk2IpH3D4+L60el0otry/fnnn2/durW6utrpdPI8r1ars7KyNm3aNHfuXOGfJOgUW4qi0HfphtHxF7/4xTvvvPPLX/7y0UcfRe+Bg8HgX//611dffXXjxo0/+clP+s5IGznUFeh2uz0ejxhOa1MoFAkJCVG/zDcQrGYDsYv1jneFQhG79cd08RKJRKlUiuqvOAAACOmmlrIlEolKpbrZbZwymUyv199sj2uERKvdNyzQxuDeDxMTE202m91uF8lx3zdc0+5Xf2xpamrasWPH0aNHU1JSli5dKpPJLly4UFlZyTBMXFyc8F0PaKcDy7Jer1etVut0utC90Ghfd3Z2du+PQCaT5efn6/X6rq4un88XxsJ8Ph+6pMIwTDAYjPp6LbrMJ4btKgNF/zURAAAAAACEncfjuakFxpuFum31ev1IxiODQeE4bjAYJBJJDCXt2FVcXHz+/PmCgoIHHnhg/PjxGIa1t7dv27atqqqqpqYmKyuLoijhqwoGgz6fD40wVKlUarX6etPRGIbhOI4giL4b+NVqtVwu9/l8YWnnRpkfLV+jgD3y+xw5uVweFxen0WhEMlq8H4jZAAAAAACjTSAQ8Hq9EU1oarVar9cTBBG5hxjLUNLGMMxms0HSjqhLly5ZrdZHH330zjvvDAQCfr8/JSWlrq6usbGxqanJ5XJFJWYjgUAAleR2uxUKBUVRKD/3XdzmOI7n+X7L3VKpFMMw9KlhPzrLsj6fD403YxgmEAhEcchZPzKZzGQyiaSVZlAiLQsAAAAAAAybz+e7qY3WN4skSb1eL7aZQ6NM36Q99OliETUqk7bNZqNpOisrKyUlxW6322w2iUSSnZ2t1WqtViuaVB9dwWAwGAz6/X6fz+dwOBQKBUmSJElGYrA2x3EMw6DH8vv9LMsGAgGRLF/3En/GlkDMBgAAAAAYZTiO83q9kQtmOI7r9Xpx7occZeRyuV6vxzDMarVC0o4QlmWDwSBBEARB6PV6v9/vcrlIkpTL5VGfod0XOs6WYRifz+d2u+VyuVwuVyqVDMPwPD/sa2o8zweDQZZlGYZBPeEoV4swXSNSqdRoNIp/uwrEbAAAAACAUYWm6RueCDVsaEu2aPdDjj5yuRyd4gFJO0LQbwpaFiYIwmAwsCwblqbrCEELzgzDYBiGDgiQSCSvv/76l19+2Xvlq6Ojw2w2u1yuV155Be3zl0gkKI0/9thj48ePR9EaNaUHg0GO49CauTi/5F6xkrElELMBAAAAAEYTnufRXsoI3b9ardZqtWLu1Rx9IGkLSaVSGQwG8ac4iUTC8zzaL83z/JEjR/ru2UZN5jabrbOzs2/XCc/z8+bN02g0PM9z34lS+TcNwzCDwRArPx14iQQAAAAAGD1QT2mEDrNVKBRDPMsXhBdK2jzPwz7tSJNKpbHVr3HrrbempaUN/VfeZDJF7jJc5PTN2DHx+gMxGwAAAABg9EDDzyJxzyh+wJbsaEH7tCUSCSTtSNi2bduxY8d6P7x27Vp7e7vVat22bRtqJeh13333jR8/Xuj6rm/+/PkFBQVDv71Wq41cMREilUr1er3RaIzE1LcIgZgNAAAAADBKcBxH03SEzn+CdvGog6QdOUeOHDlx4kTvh4FAgKZpDMN6enr6XVdatGiRqGK2Wq1Wq9XRriKCpFIpWseOoYwtgZgNAAAAADBq+P1+v98fiQlGBEFotVqFQhH2ewY3BZJ22H3ve99LS0sb9OIUx3Fut7tfi3VaWppQpQGJTCaLrV7xXpiYR8kBAAAAAIChs9ls3d3dYV/NxjDMaDSaTKaYmDw0FgQCAXTCs0iStkQikclkGo0mFpO20+m83iHzPM97PJ6enp6+GzE0Gg1BEAIWOHah87H1en3f6W6xAlazAQAAAABGA9QxHonhZyqVSqPRQLu4eMCadhhptdoQ25U5jjOZTBaLJRbHhsU0uVxuMpl0Ol2MXt2Dl0sAAAAAgNEgQh3jaJWSJMmYW00a3SBpC0MqlaLjrywWi0i+z2MBjuMoY8fu1T0YFAkAAAAAMBr4fL5IxACKomC6uDihpI1GQ0W7lv+Bkna/LutYJ5PJtFqt0WiM0WXVmEMQRFxcXExnbAmsZgMAAAAAjAIcx/n9/rB3jOM4rtFoYPKZaMGatjBkMhk6t9xqtUZokj9AVCqV0WhUq9Wxcm759UDMBgAAAACIeQzDsCwb9o5xtVqtUqmgXVzMIGkLA32feZ632WyQtCMBwzCNRmMwGFQq1Shon4GYDQAAAAAQ81DMDu99EgRBURQ0yoofJG1h9P0+Q9IOL6lUqtfr9Xq9UqkcHdf1IGYDAAAAAMQ8v98f9vf9KpUKJp/FCkjawsBx3GAwYBgG3eNhJJfLjUYjGio+al5wIGYDAAAAAMS2QCDAMEwwGAzjfcrlcpVKBUvZMQSStjDQ9xklbZF8n2OaUqk0Go2j78jAUfXFAAAAAACMQSzLwlI2kIg7acfFxY2aWXro+yyVSnt6euA87WHDMAwNPKMoKtYHng0EMRsAAAAAILaFvWNcKpWqVCrxHBMFhg6StjDQKV8ymcxisdA0Hfbpg6OeTCbT6/VarVapVI6CgWcDQcwGAAAAAIhtDMOE9ygvkiRJkhyV733HAkjawpDJZGq1Gq1pezweSNpDp1QqDQYDahQfrS0zELMBAAAAAGIYx3GBQIDjuHDdIYZhFEWNmiw0NkHSFoZUKqUoSiqVymQyl8sVxl/D0UoqlWo0Gr1eT5Lk6GsU7wtiNgAAAABADGNZNrxL2UqlctS/Ax4LIGkLA8MwkiTj4+MJgrDb7TB+PASCIFCjOEEQo3URuxfEbAAAAACAGMaybHhnjKtUqlEzFHqMg6QtDAzDFAqFwWDAcdxqtfr9fmgg7wf1yOj1eoqiRtlE8esZE18kAAAAAMBoFQgEwriaLZfLlUolLGWPGpC0BYPjuFarlcvlVqvV6/VCA3kvgiC0Wq1Wq1UoFGNn4gPEbAAAAACAGBbepnGFQjEW+jnHFEjagkFD0XAcdzgcDocDGshlMplGo9FqtWgfyph6YYGYDQAAAAAQq8I+/0ypVMI5XqMPJG3BYBiG+kGUSqXVavX5fGOzgRxtWdfr9ehowDEVsBGI2QAAAAAAsSoYDIZxY7ZMJlMoFNAxPipB0hYSjuMajQYtazudzvAOKRQ/1CWu0WhG65nYQwExGwAAAAAgVgWDwTAuZUPH+OgGSVtIUqlUpVLhOK5Sqex2+xjZrY3a5rVarUqlGmtd4v1AzAYAAAAAiFXhXc2GjvFRD5K2wNCytkKhcLlcDoeDYZjR2kMul8spikIr2HC1TgIxGwAAAAAgdoVxNRvtJh0jZ+2MZZC0BSaVStFvFkmSLpfL5XKNstFofQM2juNjtku8H3glBQAAAACIVWGM2QRBwBrUGNGbtK1Wq0gi3+hO2pLvsqhCoaAoyuVyud3uUbBhG1awQ4CYDQAAAAAQq8IYsxUKBSxljx2QtIWHYRiO4+hoerVa7Xa7Yzds4ziuVqspioKAfT3wYgoAAAAAEKs4jgtXzEYBICx3BWICJO2owDCMIAgcx0mS1Gg0Ho/H5XIFAoGY2LMtlUpJkqQoiiRJ9FVAwL4eeDEFAAAAYgDHcW63OxgMqtVqHMejXQ4Qi3DFbKlUKpfLYVPlWANJO1p6w7ZSqdRoND6fz+120zQt2mnkCoVCpVKpVCp0HoFUKoWAHRrEbAAAAEDsOI5zuVw9PT3BYJBlWYPBAEkbSCQSnufDtQIml8vlcjm8bx6DIGlHEQrbBEGgNnKapr1er9frZVlWJIvb6EIAag7HcRyWr4cOYjYAAAAgar0Zm6ZpnuftdrtEIoGkDSRhjdnQMT6WQdKOOnSdCw1IY1mWYRiv1+vz+aJyAJhUKlUoFCRJ9kZruVwuk8kELiPWwespAAAAIF79MrZEImFZFpI2QCBmg3CBpC0GUqkULW6j/c8sy7IsS9O03++naToYDEYucqPxbChdKxSK3mgNG0mGDV5PAQAAAJEamLERlLQxDNPr9ZC0x7IwvueGmA0gaYtHb97meZ6iqGAwGAgEAoEA8x304UheAeRyOf5/yWQytKgO+67DAl5PAQAAADG6XsZGWJa12WwSiQSS9lgWrtVsqVSK4zgsWwFI2mKDFpnRizzP88FgEJ3hx3Fcb/ZGH/I83/u/6P9IJBKpVIoys7QPFKdlMhlarEb/Ar/+YQcxGwAAABCd0BkbgaQdQxiG8Xg8aFRvGO82XDEbNl6CXpC0RQvDMLTa3PsvvYkavQ7w35F81+qCfafv/0epG9arIw1iNgAAACAuQ8nYCCTtmMAwjNVqdblcSqVSIpGEN2mHBaxlgb4gaf//du1YhYEQiKKo//+3grVs8SCEzRbJasgEzim1sfQy8y8yi/71K7gmswGgkPcbO5R2cWns3nvWO3O4q7Qfc6pFPuucKG1YJLMBoIpPGzuUdlnPjd1am3OOMXK1pbR3rX2aZvNKacMKmQ0AJdxr7FDaBZ0aO/aWtmk2X6W04bYDuulaQU9bOfUAAAAASUVORK5CYII=;points=[[0,0,0,0,0],[0,0.25,0,0,0],[0,0.5,0,0,0],[0,0.75,0,0,0],[0,1,0,0,0],[0.03,1,0,0,0],[0.06,1,0,0,0],[0.1,1,0,0,0],[0.13,1,0,0,0],[0.16,1,0,0,0],[0.19,1,0,0,0],[0.23,1,0,0,0],[0.25,0,0,0,0],[0.25,1,0,0,0],[0.26,1,0,0,0],[0.29,1,0,0,0],[0.32,1,0,0,0],[0.35,1,0,0,0],[0.39,1,0,0,0],[0.42,1,0,0,0],[0.45,1,0,0,0],[0.48,1,0,0,0],[0.5,0,0,0,0],[0.5,1,0,0,0],[0.52,1,0,0,0],[0.55,1,0,0,0],[0.58,1,0,0,0],[0.61,1,0,0,0],[0.65,1,0,0,0],[0.68,1,0,0,0],[0.71,1,0,0,0],[0.74,1,0,0,0],[0.75,0,0,0,0],[0.75,1,0,0,0],[0.77,1,0,0,0],[0.81,1,0,0,0],[0.84,1,0,0,0],[0.87,1,0,0,0],[0.9,1,0,0,0],[0.94,1,0,0,0],[0.97,1,0,0,0],[1,0,0,0,0],[1,0.25,0,0,0],[1,0.5,0,0,0],[1,0.75,0,0,0],[1,1,0,0,0]];" vertex="1" parent="1">
          <mxGeometry x="100" y="15.91" width="586.89" height="308.18" as="geometry" />
        </mxCell>
        <mxCell id="Z2mN5AaFtpbvVztp5gZX-6" style="edgeStyle=orthogonalEdgeStyle;rounded=0;orthogonalLoop=1;jettySize=auto;html=1;exitX=1;exitY=0.5;exitDx=0;exitDy=0;exitPerimeter=0;entryX=0;entryY=0.5;entryDx=0;entryDy=0;entryPerimeter=0;endArrow=none;endFill=0;" edge="1" parent="1">
          <mxGeometry relative="1" as="geometry">
            <mxPoint x="288" y="490" as="sourcePoint" />
            <mxPoint x="298" y="520" as="targetPoint" />
            <Array as="points">
              <mxPoint x="288" y="520" />
            </Array>
          </mxGeometry>
        </mxCell>
        <mxCell id="Z2mN5AaFtpbvVztp5gZX-14" style="edgeStyle=orthogonalEdgeStyle;rounded=0;orthogonalLoop=1;jettySize=auto;html=1;entryX=0.32;entryY=1;entryDx=0;entryDy=0;entryPerimeter=0;endArrow=none;endFill=0;" edge="1" parent="1" source="1cb643a89b7d889d-6" target="Z2mN5AaFtpbvVztp5gZX-1">
          <mxGeometry relative="1" as="geometry" />
        </mxCell>
        <mxCell id="Z2mN5AaFtpbvVztp5gZX-17" value="" style="pointerEvents=1;verticalLabelPosition=bottom;shadow=0;dashed=0;align=center;html=1;verticalAlign=top;shape=mxgraph.electrical.miscellaneous.light_bulb;" vertex="1" parent="1">
          <mxGeometry x="840" y="70" width="60" height="50" as="geometry" />
        </mxCell>
        <mxCell id="Z2mN5AaFtpbvVztp5gZX-18" value="Step Down 3.3V" style="rounded=1;whiteSpace=wrap;html=1;" vertex="1" parent="1">
          <mxGeometry x="471" y="442" width="60" height="60" as="geometry" />
        </mxCell>
        <mxCell id="Z2mN5AaFtpbvVztp5gZX-23" value="+&amp;nbsp; 12 V&amp;nbsp; -" style="verticalLabelPosition=bottom;shadow=0;dashed=0;align=center;fillColor=strokeColor;html=1;verticalAlign=top;strokeWidth=1;shape=mxgraph.electrical.miscellaneous.monocell_battery;" vertex="1" parent="1">
          <mxGeometry x="349" y="650" width="100" height="60" as="geometry" />
        </mxCell>
        <mxCell id="Z2mN5AaFtpbvVztp5gZX-26" style="edgeStyle=orthogonalEdgeStyle;rounded=0;orthogonalLoop=1;jettySize=auto;html=1;exitX=0.25;exitY=0;exitDx=0;exitDy=0;endArrow=none;endFill=0;entryX=0.665;entryY=0.987;entryDx=0;entryDy=0;entryPerimeter=0;" edge="1" parent="1" source="Z2mN5AaFtpbvVztp5gZX-18" target="Z2mN5AaFtpbvVztp5gZX-1">
          <mxGeometry relative="1" as="geometry">
            <mxPoint x="440" y="340" as="targetPoint" />
          </mxGeometry>
        </mxCell>
        <mxCell id="Z2mN5AaFtpbvVztp5gZX-27" style="edgeStyle=orthogonalEdgeStyle;rounded=0;orthogonalLoop=1;jettySize=auto;html=1;exitX=0.75;exitY=0;exitDx=0;exitDy=0;entryX=0.71;entryY=1;entryDx=0;entryDy=0;entryPerimeter=0;endArrow=none;endFill=0;" edge="1" parent="1" source="Z2mN5AaFtpbvVztp5gZX-18" target="Z2mN5AaFtpbvVztp5gZX-1">
          <mxGeometry relative="1" as="geometry" />
        </mxCell>
        <mxCell id="Z2mN5AaFtpbvVztp5gZX-58" style="edgeStyle=orthogonalEdgeStyle;rounded=0;orthogonalLoop=1;jettySize=auto;html=1;entryX=0;entryY=0.5;entryDx=0;entryDy=0;endArrow=none;endFill=0;" edge="1" parent="1" source="Z2mN5AaFtpbvVztp5gZX-32" target="Z2mN5AaFtpbvVztp5gZX-55">
          <mxGeometry relative="1" as="geometry">
            <Array as="points">
              <mxPoint x="70" y="760" />
              <mxPoint x="70" y="460" />
            </Array>
          </mxGeometry>
        </mxCell>
        <mxCell id="Z2mN5AaFtpbvVztp5gZX-32" value="" style="shape=waypoint;sketch=0;fillStyle=solid;size=6;pointerEvents=1;points=[];fillColor=none;resizable=0;rotatable=0;perimeter=centerPerimeter;snapToPoint=1;" vertex="1" parent="1">
          <mxGeometry x="140" y="750" width="20" height="20" as="geometry" />
        </mxCell>
        <mxCell id="Z2mN5AaFtpbvVztp5gZX-33" style="edgeStyle=orthogonalEdgeStyle;rounded=0;orthogonalLoop=1;jettySize=auto;html=1;exitX=0.7;exitY=1;exitDx=0;exitDy=0;exitPerimeter=0;endArrow=none;endFill=0;" edge="1" parent="1" source="hSU6qVYD1k81FgD0RHNi-1">
          <mxGeometry relative="1" as="geometry">
            <mxPoint x="70" y="646" as="targetPoint" />
            <Array as="points">
              <mxPoint x="327" y="646" />
            </Array>
          </mxGeometry>
        </mxCell>
        <mxCell id="Z2mN5AaFtpbvVztp5gZX-34" style="edgeStyle=orthogonalEdgeStyle;rounded=0;orthogonalLoop=1;jettySize=auto;html=1;entryX=0.55;entryY=0.8;entryDx=0;entryDy=0;entryPerimeter=0;endArrow=none;endFill=0;" edge="1" parent="1" source="Z2mN5AaFtpbvVztp5gZX-32" target="Z2mN5AaFtpbvVztp5gZX-29">
          <mxGeometry relative="1" as="geometry" />
        </mxCell>
        <mxCell id="Z2mN5AaFtpbvVztp5gZX-29" value="" style="shape=waypoint;sketch=0;fillStyle=solid;size=6;pointerEvents=1;points=[];fillColor=none;resizable=0;rotatable=0;perimeter=centerPerimeter;snapToPoint=1;" vertex="1" parent="1">
          <mxGeometry x="500" y="750" width="20" height="20" as="geometry" />
        </mxCell>
        <mxCell id="Z2mN5AaFtpbvVztp5gZX-37" value="&lt;font color=&quot;#ffffff&quot;&gt;Presence Sensor&lt;/font&gt;" style="sketch=0;outlineConnect=0;fontColor=#232F3E;gradientColor=none;fillColor=#7AA116;strokeColor=none;dashed=0;verticalLabelPosition=top;verticalAlign=bottom;align=center;html=1;fontSize=12;fontStyle=0;aspect=fixed;pointerEvents=1;shape=mxgraph.aws4.iot_thing_vibration_sensor;labelPosition=center;" vertex="1" parent="1">
          <mxGeometry x="343" y="380" width="78" height="78" as="geometry" />
        </mxCell>
        <mxCell id="Z2mN5AaFtpbvVztp5gZX-39" value="" style="shape=waypoint;sketch=0;fillStyle=solid;size=6;pointerEvents=1;points=[];fillColor=none;resizable=0;rotatable=0;perimeter=centerPerimeter;snapToPoint=1;" vertex="1" parent="1">
          <mxGeometry x="500" y="670" width="20" height="20" as="geometry" />
        </mxCell>
        <mxCell id="Z2mN5AaFtpbvVztp5gZX-43" style="edgeStyle=orthogonalEdgeStyle;rounded=0;orthogonalLoop=1;jettySize=auto;html=1;exitX=0.7;exitY=0;exitDx=0;exitDy=0;exitPerimeter=0;entryX=0.321;entryY=0.955;entryDx=0;entryDy=0;entryPerimeter=0;endArrow=none;endFill=0;" edge="1" parent="1" source="hSU6qVYD1k81FgD0RHNi-1" target="Z2mN5AaFtpbvVztp5gZX-37">
          <mxGeometry relative="1" as="geometry" />
        </mxCell>
        <mxCell id="Z2mN5AaFtpbvVztp5gZX-44" style="edgeStyle=orthogonalEdgeStyle;rounded=0;orthogonalLoop=1;jettySize=auto;html=1;entryX=0.125;entryY=0.5;entryDx=0;entryDy=0;entryPerimeter=0;endArrow=none;endFill=0;" edge="1" parent="1" source="Z2mN5AaFtpbvVztp5gZX-23" target="Z2mN5AaFtpbvVztp5gZX-39">
          <mxGeometry relative="1" as="geometry" />
        </mxCell>
        <mxCell id="Z2mN5AaFtpbvVztp5gZX-45" style="edgeStyle=orthogonalEdgeStyle;rounded=0;orthogonalLoop=1;jettySize=auto;html=1;entryX=0.45;entryY=0.975;entryDx=0;entryDy=0;entryPerimeter=0;endArrow=none;endFill=0;" edge="1" parent="1" source="Z2mN5AaFtpbvVztp5gZX-29" target="Z2mN5AaFtpbvVztp5gZX-39">
          <mxGeometry relative="1" as="geometry" />
        </mxCell>
        <mxCell id="Z2mN5AaFtpbvVztp5gZX-46" style="edgeStyle=orthogonalEdgeStyle;rounded=0;orthogonalLoop=1;jettySize=auto;html=1;entryX=0.642;entryY=1.058;entryDx=0;entryDy=0;entryPerimeter=0;endArrow=none;endFill=0;" edge="1" parent="1" source="Z2mN5AaFtpbvVztp5gZX-39" target="Z2mN5AaFtpbvVztp5gZX-18">
          <mxGeometry relative="1" as="geometry" />
        </mxCell>
        <mxCell id="Z2mN5AaFtpbvVztp5gZX-51" style="edgeStyle=orthogonalEdgeStyle;rounded=0;orthogonalLoop=1;jettySize=auto;html=1;endArrow=none;endFill=0;" edge="1" parent="1" source="Z2mN5AaFtpbvVztp5gZX-47" target="Z2mN5AaFtpbvVztp5gZX-37">
          <mxGeometry relative="1" as="geometry" />
        </mxCell>
        <mxCell id="Z2mN5AaFtpbvVztp5gZX-54" style="edgeStyle=orthogonalEdgeStyle;rounded=0;orthogonalLoop=1;jettySize=auto;html=1;entryX=0.25;entryY=1;entryDx=0;entryDy=0;endArrow=none;endFill=0;" edge="1" parent="1" source="Z2mN5AaFtpbvVztp5gZX-47" target="Z2mN5AaFtpbvVztp5gZX-18">
          <mxGeometry relative="1" as="geometry" />
        </mxCell>
        <mxCell id="Z2mN5AaFtpbvVztp5gZX-47" value="" style="shape=waypoint;sketch=0;fillStyle=solid;size=6;pointerEvents=1;points=[];fillColor=none;resizable=0;rotatable=0;perimeter=centerPerimeter;snapToPoint=1;" vertex="1" parent="1">
          <mxGeometry x="372" y="530" width="20" height="20" as="geometry" />
        </mxCell>
        <mxCell id="Z2mN5AaFtpbvVztp5gZX-52" style="edgeStyle=orthogonalEdgeStyle;rounded=0;orthogonalLoop=1;jettySize=auto;html=1;entryX=0.4;entryY=0.725;entryDx=0;entryDy=0;entryPerimeter=0;endArrow=none;endFill=0;" edge="1" parent="1" target="Z2mN5AaFtpbvVztp5gZX-47">
          <mxGeometry relative="1" as="geometry">
            <mxPoint x="360" y="680" as="sourcePoint" />
            <Array as="points">
              <mxPoint x="350" y="680" />
              <mxPoint x="350" y="600" />
              <mxPoint x="382" y="600" />
            </Array>
          </mxGeometry>
        </mxCell>
        <mxCell id="Z2mN5AaFtpbvVztp5gZX-55" value="Ambient Light sensor&lt;br&gt;VEML7700" style="image;aspect=fixed;perimeter=ellipsePerimeter;html=1;align=center;shadow=0;dashed=0;fontColor=#FFFFFF;labelBackgroundColor=default;fontSize=12;spacingTop=3;image=img/lib/ibm/users/sensor.svg;" vertex="1" parent="1">
          <mxGeometry x="111" y="430" width="60" height="60" as="geometry" />
        </mxCell>
        <mxCell id="Z2mN5AaFtpbvVztp5gZX-56" style="edgeStyle=orthogonalEdgeStyle;rounded=0;orthogonalLoop=1;jettySize=auto;html=1;exitX=0.5;exitY=0;exitDx=0;exitDy=0;entryX=0.13;entryY=1;entryDx=0;entryDy=0;entryPerimeter=0;endArrow=none;endFill=0;" edge="1" parent="1" source="Z2mN5AaFtpbvVztp5gZX-55" target="Z2mN5AaFtpbvVztp5gZX-1">
          <mxGeometry relative="1" as="geometry" />
        </mxCell>
        <mxCell id="Z2mN5AaFtpbvVztp5gZX-57" style="edgeStyle=orthogonalEdgeStyle;rounded=0;orthogonalLoop=1;jettySize=auto;html=1;exitX=0.75;exitY=0;exitDx=0;exitDy=0;entryX=0.16;entryY=1;entryDx=0;entryDy=0;entryPerimeter=0;endArrow=none;endFill=0;" edge="1" parent="1" source="Z2mN5AaFtpbvVztp5gZX-55" target="Z2mN5AaFtpbvVztp5gZX-1">
          <mxGeometry relative="1" as="geometry">
            <Array as="points">
              <mxPoint x="153" y="410" />
              <mxPoint x="194" y="410" />
            </Array>
          </mxGeometry>
        </mxCell>
      </root>
    </mxGraphModel>
  </diagram>
</mxfile>
